<?xml version="1.0" encoding="utf-8" standalone="no"?>
<!DOCTYPE svg PUBLIC "-//W3C//DTD SVG 1.1//EN"
  "http://www.w3.org/Graphics/SVG/1.1/DTD/svg11.dtd">
<!-- Created with matplotlib (http://matplotlib.org/) -->
<svg height="246.3565pt" version="1.1" viewBox="0 0 537.96 246.3565" width="537.96pt" xmlns="http://www.w3.org/2000/svg" xmlns:xlink="http://www.w3.org/1999/xlink">
 <defs>
  <style type="text/css">
*{stroke-linecap:butt;stroke-linejoin:round;}
  </style>
 </defs>
 <g id="figure_1">
  <g id="patch_1">
   <path d="M 0 246.3565 
L 537.96 246.3565 
L 537.96 0 
L 0 0 
z
" style="fill:none;"/>
  </g>
  <g id="axes_1">
   <g id="patch_2">
    <path d="M 56.74 198.044 
L 530.76 198.044 
L 530.76 7.2 
L 56.74 7.2 
z
" style="fill:none;"/>
   </g>
   <g id="matplotlib.axis_1">
    <g id="xtick_1">
     <g id="line2d_1">
      <defs>
       <path d="M 0 0 
L 0 -5 
" id="m70772ef5fc" style="stroke:#ffffff;stroke-width:1.2;"/>
      </defs>
      <g>
       <use style="fill:#ffffff;stroke:#ffffff;stroke-width:1.2;" x="78.286364" xlink:href="#m70772ef5fc" y="198.044"/>
      </g>
     </g>
     <g id="line2d_2">
      <defs>
       <path d="M 0 0 
L 0 5 
" id="m7f7e076507" style="stroke:#ffffff;stroke-width:1.2;"/>
      </defs>
      <g>
       <use style="fill:#ffffff;stroke:#ffffff;stroke-width:1.2;" x="78.286364" xlink:href="#m7f7e076507" y="7.2"/>
      </g>
     </g>
     <g id="text_1">
      <!-- −500 -->
      <defs>
       <path d="M 55.421875 29.59375 
L 55.421875 21.390625 
L 4.5 21.390625 
L 4.5 29.59375 
z
" id="Helvetica-2212"/>
       <path d="M 12.359375 17.828125 
Q 13.234375 10.296875 19.34375 7.421875 
Q 22.46875 5.953125 26.5625 5.953125 
Q 34.375 5.953125 38.125 10.9375 
Q 41.890625 15.921875 41.890625 21.96875 
Q 41.890625 29.296875 37.421875 33.296875 
Q 32.953125 37.3125 26.703125 37.3125 
Q 22.171875 37.3125 18.921875 35.546875 
Q 15.671875 33.796875 13.375 30.671875 
L 5.765625 31.109375 
L 11.078125 68.75 
L 47.40625 68.75 
L 47.40625 60.25 
L 17.671875 60.25 
L 14.703125 40.828125 
Q 17.140625 42.671875 19.34375 43.609375 
Q 23.25 45.21875 28.375 45.21875 
Q 37.984375 45.21875 44.671875 39.015625 
Q 51.375 32.8125 51.375 23.296875 
Q 51.375 13.375 45.234375 5.796875 
Q 39.109375 -1.765625 25.6875 -1.765625 
Q 17.140625 -1.765625 10.5625 3.046875 
Q 4 7.859375 3.21875 17.828125 
z
" id="Helvetica-35"/>
       <path d="M 27.046875 69.921875 
Q 40.625 69.921875 46.6875 58.734375 
Q 51.375 50.09375 51.375 35.0625 
Q 51.375 20.796875 47.125 11.46875 
Q 40.96875 -1.90625 27 -1.90625 
Q 14.40625 -1.90625 8.25 9.03125 
Q 3.125 18.171875 3.125 33.546875 
Q 3.125 45.453125 6.203125 54 
Q 11.96875 69.921875 27.046875 69.921875 
z
M 26.953125 6.109375 
Q 33.796875 6.109375 37.84375 12.15625 
Q 41.890625 18.21875 41.890625 34.71875 
Q 41.890625 46.625 38.953125 54.3125 
Q 36.03125 62.015625 27.59375 62.015625 
Q 19.828125 62.015625 16.234375 54.703125 
Q 12.640625 47.40625 12.640625 33.203125 
Q 12.640625 22.515625 14.9375 16.015625 
Q 18.453125 6.109375 26.953125 6.109375 
z
" id="Helvetica-30"/>
      </defs>
      <g style="fill:#ffffff;" transform="translate(60.267614 213.0215)scale(0.16 -0.16)">
       <use xlink:href="#Helvetica-2212"/>
       <use x="58.398438" xlink:href="#Helvetica-35"/>
       <use x="114.013672" xlink:href="#Helvetica-30"/>
       <use x="169.628906" xlink:href="#Helvetica-30"/>
      </g>
     </g>
    </g>
    <g id="xtick_2">
     <g id="line2d_3">
      <g>
       <use style="fill:#ffffff;stroke:#ffffff;stroke-width:1.2;" x="164.471818" xlink:href="#m70772ef5fc" y="198.044"/>
      </g>
     </g>
     <g id="line2d_4">
      <g>
       <use style="fill:#ffffff;stroke:#ffffff;stroke-width:1.2;" x="164.471818" xlink:href="#m7f7e076507" y="7.2"/>
      </g>
     </g>
     <g id="text_2">
      <!-- −400 -->
      <defs>
       <path d="M 33.0625 24.75 
L 33.0625 56.453125 
L 10.640625 24.75 
z
M 33.203125 0 
L 33.203125 17.09375 
L 2.546875 17.09375 
L 2.546875 25.6875 
L 34.578125 70.125 
L 42 70.125 
L 42 24.75 
L 52.296875 24.75 
L 52.296875 17.09375 
L 42 17.09375 
L 42 0 
z
" id="Helvetica-34"/>
      </defs>
      <g style="fill:#ffffff;" transform="translate(146.453068 213.0215)scale(0.16 -0.16)">
       <use xlink:href="#Helvetica-2212"/>
       <use x="58.398438" xlink:href="#Helvetica-34"/>
       <use x="114.013672" xlink:href="#Helvetica-30"/>
       <use x="169.628906" xlink:href="#Helvetica-30"/>
      </g>
     </g>
    </g>
    <g id="xtick_3">
     <g id="line2d_5">
      <g>
       <use style="fill:#ffffff;stroke:#ffffff;stroke-width:1.2;" x="250.657273" xlink:href="#m70772ef5fc" y="198.044"/>
      </g>
     </g>
     <g id="line2d_6">
      <g>
       <use style="fill:#ffffff;stroke:#ffffff;stroke-width:1.2;" x="250.657273" xlink:href="#m7f7e076507" y="7.2"/>
      </g>
     </g>
     <g id="text_3">
      <!-- −300 -->
      <defs>
       <path d="M 25.984375 -1.90625 
Q 13.578125 -1.90625 7.984375 4.90625 
Q 2.390625 11.71875 2.390625 21.484375 
L 11.578125 21.484375 
Q 12.15625 14.703125 14.109375 11.625 
Q 17.53125 6.109375 26.46875 6.109375 
Q 33.40625 6.109375 37.59375 9.8125 
Q 41.796875 13.53125 41.796875 19.390625 
Q 41.796875 26.609375 37.375 29.484375 
Q 32.953125 32.375 25.09375 32.375 
Q 24.21875 32.375 23.3125 32.34375 
Q 22.40625 32.328125 21.484375 32.28125 
L 21.484375 40.046875 
Q 22.859375 39.890625 23.78125 39.84375 
Q 24.703125 39.796875 25.78125 39.796875 
Q 30.71875 39.796875 33.890625 41.359375 
Q 39.453125 44.09375 39.453125 51.125 
Q 39.453125 56.34375 35.734375 59.171875 
Q 32.03125 62.015625 27.09375 62.015625 
Q 18.3125 62.015625 14.9375 56.15625 
Q 13.09375 52.9375 12.84375 46.96875 
L 4.15625 46.96875 
Q 4.15625 54.78125 7.28125 60.25 
Q 12.640625 70.015625 26.171875 70.015625 
Q 36.859375 70.015625 42.71875 65.25 
Q 48.578125 60.5 48.578125 51.46875 
Q 48.578125 45.015625 45.125 41.015625 
Q 42.96875 38.53125 39.546875 37.109375 
Q 45.0625 35.59375 48.15625 31.265625 
Q 51.265625 26.953125 51.265625 20.703125 
Q 51.265625 10.6875 44.671875 4.390625 
Q 38.09375 -1.90625 25.984375 -1.90625 
z
" id="Helvetica-33"/>
      </defs>
      <g style="fill:#ffffff;" transform="translate(232.638523 213.0215)scale(0.16 -0.16)">
       <use xlink:href="#Helvetica-2212"/>
       <use x="58.398438" xlink:href="#Helvetica-33"/>
       <use x="114.013672" xlink:href="#Helvetica-30"/>
       <use x="169.628906" xlink:href="#Helvetica-30"/>
      </g>
     </g>
    </g>
    <g id="xtick_4">
     <g id="line2d_7">
      <g>
       <use style="fill:#ffffff;stroke:#ffffff;stroke-width:1.2;" x="336.842727" xlink:href="#m70772ef5fc" y="198.044"/>
      </g>
     </g>
     <g id="line2d_8">
      <g>
       <use style="fill:#ffffff;stroke:#ffffff;stroke-width:1.2;" x="336.842727" xlink:href="#m7f7e076507" y="7.2"/>
      </g>
     </g>
     <g id="text_4">
      <!-- −200 -->
      <defs>
       <path d="M 3.125 0 
Q 3.609375 9.03125 6.859375 15.71875 
Q 10.109375 22.40625 19.53125 27.875 
L 28.90625 33.296875 
Q 35.203125 36.96875 37.75 39.546875 
Q 41.75 43.609375 41.75 48.828125 
Q 41.75 54.9375 38.078125 58.515625 
Q 34.421875 62.109375 28.328125 62.109375 
Q 19.28125 62.109375 15.828125 55.28125 
Q 13.96875 51.609375 13.765625 45.125 
L 4.828125 45.125 
Q 4.984375 54.25 8.203125 60.015625 
Q 13.921875 70.171875 28.375 70.171875 
Q 40.375 70.171875 45.921875 63.671875 
Q 51.46875 57.171875 51.46875 49.21875 
Q 51.46875 40.828125 45.5625 34.859375 
Q 42.140625 31.390625 33.296875 26.46875 
L 26.609375 22.75 
Q 21.828125 20.125 19.09375 17.71875 
Q 14.203125 13.484375 12.9375 8.296875 
L 51.125 8.296875 
L 51.125 0 
L 3.125 0 
z
" id="Helvetica-32"/>
      </defs>
      <g style="fill:#ffffff;" transform="translate(318.823977 213.0215)scale(0.16 -0.16)">
       <use xlink:href="#Helvetica-2212"/>
       <use x="58.398438" xlink:href="#Helvetica-32"/>
       <use x="114.013672" xlink:href="#Helvetica-30"/>
       <use x="169.628906" xlink:href="#Helvetica-30"/>
      </g>
     </g>
    </g>
    <g id="xtick_5">
     <g id="line2d_9">
      <g>
       <use style="fill:#ffffff;stroke:#ffffff;stroke-width:1.2;" x="423.028182" xlink:href="#m70772ef5fc" y="198.044"/>
      </g>
     </g>
     <g id="line2d_10">
      <g>
       <use style="fill:#ffffff;stroke:#ffffff;stroke-width:1.2;" x="423.028182" xlink:href="#m7f7e076507" y="7.2"/>
      </g>
     </g>
     <g id="text_5">
      <!-- −100 -->
      <defs>
       <path d="M 9.578125 49.515625 
L 9.578125 56.25 
Q 19.09375 57.171875 22.84375 59.34375 
Q 26.609375 61.53125 28.46875 69.625 
L 35.40625 69.625 
L 35.40625 0 
L 26.03125 0 
L 26.03125 49.515625 
z
" id="Helvetica-31"/>
      </defs>
      <g style="fill:#ffffff;" transform="translate(405.009432 213.0215)scale(0.16 -0.16)">
       <use xlink:href="#Helvetica-2212"/>
       <use x="58.398438" xlink:href="#Helvetica-31"/>
       <use x="114.013672" xlink:href="#Helvetica-30"/>
       <use x="169.628906" xlink:href="#Helvetica-30"/>
      </g>
     </g>
    </g>
    <g id="xtick_6">
     <g id="line2d_11">
      <g>
       <use style="fill:#ffffff;stroke:#ffffff;stroke-width:1.2;" x="509.213636" xlink:href="#m70772ef5fc" y="198.044"/>
      </g>
     </g>
     <g id="line2d_12">
      <g>
       <use style="fill:#ffffff;stroke:#ffffff;stroke-width:1.2;" x="509.213636" xlink:href="#m7f7e076507" y="7.2"/>
      </g>
     </g>
     <g id="text_6">
      <!-- 0 -->
      <g style="fill:#ffffff;" transform="translate(504.764886 213.0215)scale(0.16 -0.16)">
       <use xlink:href="#Helvetica-30"/>
      </g>
     </g>
    </g>
    <g id="text_7">
     <!-- $V_p$ (mV)$\propto \mu_{dot}$ (meV) -->
     <defs>
      <path d="M 13.28125 71.734375 
L 33.890625 10.640625 
L 54.25 71.734375 
L 65.140625 71.734375 
L 38.96875 0 
L 28.65625 0 
L 2.546875 71.734375 
z
" id="Helvetica-56"/>
      <path d="M 28.515625 5.90625 
Q 34.671875 5.90625 38.75 11.0625 
Q 42.828125 16.21875 42.828125 26.46875 
Q 42.828125 32.71875 41.015625 37.203125 
Q 37.59375 45.84375 28.515625 45.84375 
Q 19.390625 45.84375 16.015625 36.71875 
Q 14.203125 31.84375 14.203125 24.3125 
Q 14.203125 18.265625 16.015625 14.015625 
Q 19.4375 5.90625 28.515625 5.90625 
z
M 5.765625 52.046875 
L 14.3125 52.046875 
L 14.3125 45.125 
Q 16.9375 48.6875 20.0625 50.640625 
Q 24.515625 53.5625 30.515625 53.5625 
Q 39.40625 53.5625 45.609375 46.75 
Q 51.8125 39.9375 51.8125 27.296875 
Q 51.8125 10.203125 42.875 2.875 
Q 37.203125 -1.765625 29.6875 -1.765625 
Q 23.78125 -1.765625 19.78125 0.828125 
Q 17.4375 2.296875 14.546875 5.859375 
L 14.546875 -20.84375 
L 5.765625 -20.84375 
z
" id="Helvetica-70"/>
      <path id="Helvetica-20"/>
      <path d="M 29.59375 72.90625 
Q 21.921875 58.015625 19.625 50.984375 
Q 16.15625 40.28125 16.15625 26.265625 
Q 16.15625 12.109375 20.125 0.390625 
Q 22.5625 -6.84375 29.734375 -20.40625 
L 23.828125 -20.40625 
Q 16.703125 -9.28125 14.984375 -6.203125 
Q 13.28125 -3.125 11.28125 2.15625 
Q 8.546875 9.375 7.46875 17.578125 
Q 6.9375 21.828125 6.9375 25.6875 
Q 6.9375 40.140625 11.46875 51.421875 
Q 14.359375 58.59375 23.484375 72.90625 
z
" id="Helvetica-28"/>
      <path d="M 6.453125 52.296875 
L 15.140625 52.296875 
L 15.140625 44.875 
Q 18.265625 48.734375 20.796875 50.484375 
Q 25.140625 53.46875 30.671875 53.46875 
Q 36.921875 53.46875 40.71875 50.390625 
Q 42.875 48.640625 44.625 45.21875 
Q 47.5625 49.421875 51.515625 51.4375 
Q 55.46875 53.46875 60.40625 53.46875 
Q 70.953125 53.46875 74.75 45.84375 
Q 76.8125 41.75 76.8125 34.8125 
L 76.8125 0 
L 67.671875 0 
L 67.671875 36.328125 
Q 67.671875 41.546875 65.0625 43.5 
Q 62.453125 45.453125 58.6875 45.453125 
Q 53.515625 45.453125 49.78125 41.984375 
Q 46.046875 38.53125 46.046875 30.421875 
L 46.046875 0 
L 37.109375 0 
L 37.109375 34.125 
Q 37.109375 39.453125 35.84375 41.890625 
Q 33.84375 45.5625 28.375 45.5625 
Q 23.390625 45.5625 19.3125 41.703125 
Q 15.234375 37.84375 15.234375 27.734375 
L 15.234375 0 
L 6.453125 0 
z
" id="Helvetica-6d"/>
      <path d="M 3.46875 -20.40625 
Q 11.234375 -5.28125 13.484375 1.65625 
Q 16.890625 12.15625 16.890625 26.265625 
Q 16.890625 40.375 12.9375 52.09375 
Q 10.5 59.328125 3.328125 72.90625 
L 9.234375 72.90625 
Q 16.75 60.890625 18.328125 58.078125 
Q 19.921875 55.28125 21.78125 50.34375 
Q 24.125 44.234375 25.125 38.28125 
Q 26.125 32.328125 26.125 26.8125 
Q 26.125 12.359375 21.53125 1.03125 
Q 18.65625 -6.25 9.578125 -20.40625 
z
" id="Helvetica-29"/>
      <path d="M 64.296875 8.40625 
L 64.296875 0 
Q 57.40625 0 52.5 3.5 
Q 47.59375 7 42.59375 14.5 
Q 35.40625 0 21.703125 0 
Q 14.59375 0 9.34375 5.140625 
Q 4.09375 10.296875 4.09375 20 
Q 4.09375 25.203125 5.546875 29.390625 
Q 7 33.59375 9.140625 36.046875 
Q 11.296875 38.5 14 40.140625 
Q 16.703125 41.796875 18.953125 42.390625 
Q 21.203125 43 23.203125 43 
Q 29.203125 43 33.75 40.140625 
Q 38.296875 37.296875 45 28.296875 
Q 49.09375 35.703125 53.25 39.34375 
Q 57.40625 43 64.296875 43 
L 64.296875 34.59375 
Q 58.203125 34.59375 53.796875 31.640625 
Q 49.40625 28.703125 47 24.5 
L 47 24.203125 
Q 52 15.90625 55.953125 12.15625 
Q 59.90625 8.40625 64.296875 8.40625 
z
M 40.40625 18.09375 
L 40.40625 18.40625 
Q 34.703125 27.796875 29.84375 32.4375 
Q 25 37.09375 20.09375 37.09375 
Q 15.90625 37.09375 13 33.546875 
Q 10.09375 30 10.09375 25.203125 
Q 10.09375 18.40625 13.890625 13.40625 
Q 17.703125 8.40625 24 8.40625 
Q 27.09375 8.40625 29.796875 9.296875 
Q 32.5 10.203125 34.59375 11.953125 
Q 36.703125 13.703125 37.84375 14.953125 
Q 39 16.203125 40.40625 18.09375 
z
" id="STIXGeneral-Regular-221d"/>
      <path d="M 8.984375 52 
L 18.015625 52 
L 18.015625 21.390625 
Q 17.921875 14.59375 20.703125 10.796875 
Q 23.390625 6.78125 30.515625 6.78125 
Q 37.796875 6.78125 40.484375 10.890625 
Q 43.109375 14.703125 43.109375 21.390625 
L 43.109375 52 
L 52.09375 52 
L 52.09375 12.59375 
Q 51.8125 6.78125 55.421875 6.78125 
Q 56.78125 6.78125 58.203125 7.078125 
L 58.203125 0 
Q 56.890625 -0.875 52.6875 -0.984375 
Q 48.578125 -0.6875 46.78125 0.984375 
Q 44.875 2.59375 43.796875 6 
Q 39.109375 -0.78125 30.71875 -0.984375 
Q 23.484375 -0.984375 18.21875 5.609375 
L 18.015625 5.609375 
L 18.015625 -19.578125 
L 8.984375 -19.578125 
z
" id="Helvetica-3bc"/>
      <path d="M 12.015625 25.53125 
Q 12.015625 17.140625 15.578125 11.46875 
Q 19.140625 5.8125 27 5.8125 
Q 33.109375 5.8125 37.03125 11.0625 
Q 40.96875 16.3125 40.96875 26.125 
Q 40.96875 36.03125 36.90625 40.796875 
Q 32.859375 45.5625 26.90625 45.5625 
Q 20.265625 45.5625 16.140625 40.484375 
Q 12.015625 35.40625 12.015625 25.53125 
z
M 25.25 53.21875 
Q 31.25 53.21875 35.296875 50.6875 
Q 37.640625 49.21875 40.625 45.5625 
L 40.625 71.96875 
L 49.078125 71.96875 
L 49.078125 0 
L 41.15625 0 
L 41.15625 7.28125 
Q 38.09375 2.4375 33.890625 0.28125 
Q 29.6875 -1.859375 24.265625 -1.859375 
Q 15.53125 -1.859375 9.125 5.484375 
Q 2.734375 12.84375 2.734375 25.046875 
Q 2.734375 36.46875 8.5625 44.84375 
Q 14.40625 53.21875 25.25 53.21875 
z
" id="Helvetica-64"/>
      <path d="M 27.203125 5.671875 
Q 35.9375 5.671875 39.1875 12.28125 
Q 42.4375 18.890625 42.4375 27 
Q 42.4375 34.328125 40.09375 38.921875 
Q 36.375 46.140625 27.296875 46.140625 
Q 19.234375 46.140625 15.578125 39.984375 
Q 11.921875 33.84375 11.921875 25.140625 
Q 11.921875 16.796875 15.578125 11.234375 
Q 19.234375 5.671875 27.203125 5.671875 
z
M 27.546875 53.8125 
Q 37.640625 53.8125 44.625 47.0625 
Q 51.609375 40.328125 51.609375 27.25 
Q 51.609375 14.59375 45.453125 6.34375 
Q 39.3125 -1.90625 26.375 -1.90625 
Q 15.578125 -1.90625 9.21875 5.390625 
Q 2.875 12.703125 2.875 25 
Q 2.875 38.1875 9.5625 46 
Q 16.265625 53.8125 27.546875 53.8125 
z
M 27.25 53.5625 
z
" id="Helvetica-6f"/>
      <path d="M 8.203125 66.890625 
L 17.09375 66.890625 
L 17.09375 52.296875 
L 25.4375 52.296875 
L 25.4375 45.125 
L 17.09375 45.125 
L 17.09375 10.984375 
Q 17.09375 8.25 18.953125 7.328125 
Q 19.96875 6.78125 22.359375 6.78125 
Q 23 6.78125 23.734375 6.8125 
Q 24.46875 6.84375 25.4375 6.9375 
L 25.4375 0 
Q 23.921875 -0.4375 22.28125 -0.625 
Q 20.65625 -0.828125 18.75 -0.828125 
Q 12.59375 -0.828125 10.390625 2.3125 
Q 8.203125 5.46875 8.203125 10.5 
L 8.203125 45.125 
L 1.125 45.125 
L 1.125 52.296875 
L 8.203125 52.296875 
z
" id="Helvetica-74"/>
      <path d="M 28.21875 53.46875 
Q 33.796875 53.46875 39.015625 50.859375 
Q 44.234375 48.25 46.96875 44.09375 
Q 49.609375 40.140625 50.484375 34.859375 
Q 51.265625 31.25 51.265625 23.34375 
L 12.9375 23.34375 
Q 13.1875 15.375 16.703125 10.5625 
Q 20.21875 5.765625 27.59375 5.765625 
Q 34.46875 5.765625 38.578125 10.296875 
Q 40.921875 12.9375 41.890625 16.40625 
L 50.53125 16.40625 
Q 50.203125 13.53125 48.265625 9.984375 
Q 46.34375 6.453125 43.953125 4.203125 
Q 39.9375 0.296875 34.03125 -1.078125 
Q 30.859375 -1.859375 26.859375 -1.859375 
Q 17.09375 -1.859375 10.296875 5.25 
Q 3.515625 12.359375 3.515625 25.140625 
Q 3.515625 37.75 10.34375 45.609375 
Q 17.1875 53.46875 28.21875 53.46875 
z
M 42.234375 30.328125 
Q 41.703125 36.03125 39.75 39.453125 
Q 36.140625 45.796875 27.6875 45.796875 
Q 21.625 45.796875 17.515625 41.421875 
Q 13.421875 37.0625 13.1875 30.328125 
z
M 27.390625 53.5625 
z
" id="Helvetica-65"/>
     </defs>
     <g style="fill:#ffffff;" transform="translate(201.95 232.9565)scale(0.2 -0.2)">
      <use transform="translate(0 0.09375)" xlink:href="#Helvetica-56"/>
      <use transform="translate(67.614414 -15.595313)scale(0.7)" xlink:href="#Helvetica-70"/>
      <use transform="translate(109.159922 0.09375)" xlink:href="#Helvetica-20"/>
      <use transform="translate(136.943125 0.09375)" xlink:href="#Helvetica-28"/>
      <use transform="translate(170.243906 0.09375)" xlink:href="#Helvetica-6d"/>
      <use transform="translate(253.544688 0.09375)" xlink:href="#Helvetica-56"/>
      <use transform="translate(320.243906 0.09375)" xlink:href="#Helvetica-29"/>
      <use transform="translate(370.204844 0.09375)" xlink:href="#STIXGeneral-Regular-221d"/>
      <use transform="translate(455.364985 0.09375)" xlink:href="#Helvetica-3bc"/>
      <use transform="translate(517.364164 -15.595313)scale(0.7)" xlink:href="#Helvetica-64"/>
      <use transform="translate(556.294828 -15.595313)scale(0.7)" xlink:href="#Helvetica-6f"/>
      <use transform="translate(595.225493 -15.595313)scale(0.7)" xlink:href="#Helvetica-74"/>
      <use transform="translate(617.288578 0.09375)" xlink:href="#Helvetica-20"/>
      <use transform="translate(645.071782 0.09375)" xlink:href="#Helvetica-28"/>
      <use transform="translate(678.372563 0.09375)" xlink:href="#Helvetica-6d"/>
      <use transform="translate(761.673344 0.09375)" xlink:href="#Helvetica-65"/>
      <use transform="translate(817.288578 0.09375)" xlink:href="#Helvetica-56"/>
      <use transform="translate(883.987797 0.09375)" xlink:href="#Helvetica-29"/>
     </g>
    </g>
   </g>
   <g id="matplotlib.axis_2">
    <g id="ytick_1">
     <g id="line2d_13">
      <defs>
       <path d="M 0 0 
L 5 0 
" id="m690abbcb40" style="stroke:#ffffff;stroke-width:1.2;"/>
      </defs>
      <g>
       <use style="fill:#ffffff;stroke:#ffffff;stroke-width:1.2;" x="56.74" xlink:href="#m690abbcb40" y="191.05192"/>
      </g>
     </g>
     <g id="line2d_14">
      <defs>
       <path d="M 0 0 
L -5 0 
" id="m35327ee661" style="stroke:#ffffff;stroke-width:1.2;"/>
      </defs>
      <g>
       <use style="fill:#ffffff;stroke:#ffffff;stroke-width:1.2;" x="530.76" xlink:href="#m35327ee661" y="191.05192"/>
      </g>
     </g>
     <g id="text_8">
      <!-- 0.5 -->
      <defs>
       <path d="M 8.546875 10.640625 
L 18.75 10.640625 
L 18.75 0 
L 8.546875 0 
z
" id="Helvetica-2e"/>
      </defs>
      <g style="fill:#ffffff;" transform="translate(31 196.79067)scale(0.16 -0.16)">
       <use xlink:href="#Helvetica-30"/>
       <use x="55.615234" xlink:href="#Helvetica-2e"/>
       <use x="83.398438" xlink:href="#Helvetica-35"/>
      </g>
     </g>
    </g>
    <g id="ytick_2">
     <g id="line2d_15">
      <g>
       <use style="fill:#ffffff;stroke:#ffffff;stroke-width:1.2;" x="56.74" xlink:href="#m690abbcb40" y="127.006361"/>
      </g>
     </g>
     <g id="line2d_16">
      <g>
       <use style="fill:#ffffff;stroke:#ffffff;stroke-width:1.2;" x="530.76" xlink:href="#m35327ee661" y="127.006361"/>
      </g>
     </g>
     <g id="text_9">
      <!-- 1.0 -->
      <g style="fill:#ffffff;" transform="translate(31 132.745111)scale(0.16 -0.16)">
       <use xlink:href="#Helvetica-31"/>
       <use x="55.615234" xlink:href="#Helvetica-2e"/>
       <use x="83.398438" xlink:href="#Helvetica-30"/>
      </g>
     </g>
    </g>
    <g id="ytick_3">
     <g id="line2d_17">
      <g>
       <use style="fill:#ffffff;stroke:#ffffff;stroke-width:1.2;" x="56.74" xlink:href="#m690abbcb40" y="62.960803"/>
      </g>
     </g>
     <g id="line2d_18">
      <g>
       <use style="fill:#ffffff;stroke:#ffffff;stroke-width:1.2;" x="530.76" xlink:href="#m35327ee661" y="62.960803"/>
      </g>
     </g>
     <g id="text_10">
      <!-- 1.5 -->
      <g style="fill:#ffffff;" transform="translate(31 68.699553)scale(0.16 -0.16)">
       <use xlink:href="#Helvetica-31"/>
       <use x="55.615234" xlink:href="#Helvetica-2e"/>
       <use x="83.398438" xlink:href="#Helvetica-35"/>
      </g>
     </g>
    </g>
    <g id="text_11">
     <!-- $g_{sense}$ ($e^2/h$) -->
     <defs>
      <path d="M 24.90625 53.21875 
Q 31.0625 53.21875 35.640625 50.203125 
Q 38.140625 48.484375 40.71875 45.21875 
L 40.71875 51.8125 
L 48.828125 51.8125 
L 48.828125 4.25 
Q 48.828125 -5.71875 45.90625 -11.46875 
Q 40.4375 -22.125 25.25 -22.125 
Q 16.796875 -22.125 11.03125 -18.328125 
Q 5.28125 -14.546875 4.59375 -6.5 
L 13.53125 -6.5 
Q 14.15625 -10.015625 16.0625 -11.921875 
Q 19.046875 -14.84375 25.4375 -14.84375 
Q 35.546875 -14.84375 38.671875 -7.71875 
Q 40.53125 -3.515625 40.375 7.28125 
Q 37.75 3.265625 34.03125 1.3125 
Q 30.328125 -0.640625 24.21875 -0.640625 
Q 15.71875 -0.640625 9.34375 5.390625 
Q 2.984375 11.421875 2.984375 25.34375 
Q 2.984375 38.484375 9.40625 45.84375 
Q 15.828125 53.21875 24.90625 53.21875 
z
M 40.71875 26.375 
Q 40.71875 36.078125 36.71875 40.765625 
Q 32.71875 45.453125 26.515625 45.453125 
Q 17.234375 45.453125 13.8125 36.765625 
Q 12.015625 32.125 12.015625 24.609375 
Q 12.015625 15.765625 15.59375 11.15625 
Q 19.1875 6.546875 25.25 6.546875 
Q 34.71875 6.546875 38.578125 15.09375 
Q 40.71875 19.921875 40.71875 26.375 
z
M 25.921875 53.5625 
z
" id="Helvetica-67"/>
      <path d="M 11.671875 16.40625 
Q 12.0625 12.015625 13.875 9.671875 
Q 17.1875 5.421875 25.390625 5.421875 
Q 30.28125 5.421875 33.984375 7.546875 
Q 37.703125 9.671875 37.703125 14.109375 
Q 37.703125 17.484375 34.71875 19.234375 
Q 32.8125 20.3125 27.203125 21.734375 
L 20.21875 23.484375 
Q 13.53125 25.140625 10.359375 27.203125 
Q 4.6875 30.765625 4.6875 37.0625 
Q 4.6875 44.484375 10.03125 49.0625 
Q 15.375 53.65625 24.421875 53.65625 
Q 36.234375 53.65625 41.453125 46.734375 
Q 44.734375 42.328125 44.625 37.25 
L 36.328125 37.25 
Q 36.078125 40.234375 34.234375 42.671875 
Q 31.203125 46.140625 23.734375 46.140625 
Q 18.75 46.140625 16.1875 44.234375 
Q 13.625 42.328125 13.625 39.203125 
Q 13.625 35.796875 17 33.734375 
Q 18.953125 32.515625 22.75 31.59375 
L 28.5625 30.171875 
Q 38.03125 27.875 41.265625 25.734375 
Q 46.390625 22.359375 46.390625 15.140625 
Q 46.390625 8.15625 41.09375 3.078125 
Q 35.796875 -2 24.953125 -2 
Q 13.28125 -2 8.421875 3.296875 
Q 3.5625 8.59375 3.21875 16.40625 
z
M 24.65625 53.5625 
z
" id="Helvetica-73"/>
      <path d="M 6.453125 52.296875 
L 14.796875 52.296875 
L 14.796875 44.875 
Q 18.5 49.46875 22.65625 51.46875 
Q 26.8125 53.46875 31.890625 53.46875 
Q 43.015625 53.46875 46.921875 45.703125 
Q 49.078125 41.453125 49.078125 33.546875 
L 49.078125 0 
L 40.140625 0 
L 40.140625 32.953125 
Q 40.140625 37.75 38.71875 40.671875 
Q 36.375 45.5625 30.21875 45.5625 
Q 27.09375 45.5625 25.09375 44.921875 
Q 21.484375 43.84375 18.75 40.625 
Q 16.546875 38.03125 15.890625 35.265625 
Q 15.234375 32.515625 15.234375 27.390625 
L 15.234375 0 
L 6.453125 0 
z
M 27.09375 53.5625 
z
" id="Helvetica-6e"/>
      <path d="M 22.75 71.734375 
L 30.171875 71.734375 
L 7.421875 0 
L 0 0 
z
" id="Helvetica-2f"/>
      <path d="M 6.453125 71.96875 
L 15.234375 71.96875 
L 15.234375 45.21875 
Q 18.359375 49.171875 20.84375 50.78125 
Q 25.09375 53.5625 31.453125 53.5625 
Q 42.828125 53.5625 46.875 45.609375 
Q 49.078125 41.265625 49.078125 33.546875 
L 49.078125 0 
L 40.046875 0 
L 40.046875 32.953125 
Q 40.046875 38.71875 38.578125 41.40625 
Q 36.1875 45.703125 29.59375 45.703125 
Q 24.125 45.703125 19.671875 41.9375 
Q 15.234375 38.1875 15.234375 27.734375 
L 15.234375 0 
L 6.453125 0 
z
" id="Helvetica-68"/>
     </defs>
     <g style="fill:#ffffff;" transform="translate(24.4 154.822)rotate(-90)scale(0.2 -0.2)">
      <use transform="translate(0 0.271875)" xlink:href="#Helvetica-67"/>
      <use transform="translate(56.53043 -15.417187)scale(0.7)" xlink:href="#Helvetica-73"/>
      <use transform="translate(91.53043 -15.417187)scale(0.7)" xlink:href="#Helvetica-65"/>
      <use transform="translate(130.461094 -15.417187)scale(0.7)" xlink:href="#Helvetica-6e"/>
      <use transform="translate(169.391758 -15.417187)scale(0.7)" xlink:href="#Helvetica-73"/>
      <use transform="translate(204.391758 -15.417187)scale(0.7)" xlink:href="#Helvetica-65"/>
      <use transform="translate(245.937266 0.271875)" xlink:href="#Helvetica-20"/>
      <use transform="translate(273.720469 0.271875)" xlink:href="#Helvetica-28"/>
      <use transform="translate(307.02125 0.271875)" xlink:href="#Helvetica-65"/>
      <use transform="translate(363.55168 36.879688)scale(0.7)" xlink:href="#Helvetica-32"/>
      <use transform="translate(405.097188 0.271875)" xlink:href="#Helvetica-2f"/>
      <use transform="translate(432.880391 0.271875)" xlink:href="#Helvetica-68"/>
      <use transform="translate(488.495625 0.271875)" xlink:href="#Helvetica-29"/>
     </g>
    </g>
   </g>
   <g id="line2d_19">
    <path clip-path="url(#pe417c3bda5)" d="M 509.213636 15.874727 
L 501.456945 17.187108 
L 496.285818 18.265405 
L 491.976545 19.310307 
L 491.114691 19.427349 
L 489.390982 20.045923 
L 488.529127 20.413723 
L 483.358 21.66759 
L 481.634291 22.486792 
L 479.910582 22.921442 
L 479.048727 22.921442 
L 478.186873 23.305993 
L 477.325018 22.837871 
L 476.463164 21.734441 
L 475.601309 21.609061 
L 473.8776 22.353075 
L 472.153891 22.570378 
L 468.706473 23.673793 
L 466.982764 24.359217 
L 464.3972 25.086495 
L 462.673491 25.788655 
L 460.087927 26.791749 
L 459.226073 27.059258 
L 458.364218 27.560835 
L 456.640509 28.31311 
L 454.9168 29.098917 
L 454.054945 29.299484 
L 452.331236 30.152141 
L 449.745673 31.514667 
L 448.883818 32.03298 
L 446.298255 33.019369 
L 442.850836 34.992101 
L 440.265273 35.811303 
L 439.403418 35.075687 
L 438.541564 32.668274 
L 437.679709 32.501056 
L 435.094145 33.704793 
L 434.232291 33.821835 
L 430.784873 35.945019 
L 429.923018 36.513462 
L 429.061164 36.948128 
L 428.199309 37.198948 
L 426.4756 38.068279 
L 423.028182 40.550941 
L 421.304473 41.102664 
L 420.442618 41.554051 
L 418.718909 43.125588 
L 416.9952 44.513171 
L 416.133345 44.446321 
L 415.271491 45.048159 
L 414.409636 45.315653 
L 413.547782 46.193352 
L 412.685927 46.870454 
L 411.824073 47.915357 
L 410.962218 48.567386 
L 410.100364 48.935186 
L 409.238509 49.035508 
L 407.5148 50.155582 
L 406.652945 51.125312 
L 404.929236 52.370766 
L 404.067382 52.713508 
L 403.205527 53.348818 
L 402.343673 53.323745 
L 400.619964 54.594348 
L 399.758109 54.995543 
L 398.896255 55.029014 
L 398.0344 54.544156 
L 397.172545 53.440787 
L 396.310691 52.705202 
L 395.448836 52.170199 
L 394.586982 52.278843 
L 393.725127 52.629922 
L 391.139564 54.677919 
L 390.277709 54.845106 
L 389.415855 55.229657 
L 385.106582 59.258722 
L 384.244727 59.509541 
L 383.382873 59.927502 
L 379.935455 63.296216 
L 379.0736 64.148874 
L 377.349891 64.717317 
L 375.626182 66.372379 
L 374.764327 67.400561 
L 373.040618 69.206136 
L 372.178764 69.540542 
L 371.316909 69.490335 
L 367.869491 73.527829 
L 367.007636 74.321958 
L 366.145782 74.873681 
L 365.283927 75.132838 
L 364.422073 75.584224 
L 360.1128 80.03125 
L 359.250945 80.282069 
L 357.527236 81.694756 
L 354.941673 84.553586 
L 354.079818 85.23901 
L 353.217964 85.757323 
L 352.356109 85.523224 
L 351.494255 82.781452 
L 350.6324 78.24241 
L 349.770545 77.991637 
L 348.908691 78.743988 
L 348.046836 79.27896 
L 347.184982 80.382376 
L 345.461273 80.883907 
L 341.152 85.59009 
L 339.428291 86.158518 
L 338.566436 86.852356 
L 337.704582 88.03102 
L 336.842727 88.741502 
L 335.980873 89.995369 
L 335.119018 90.914892 
L 334.257164 91.148976 
L 332.533455 92.202215 
L 331.6716 92.97121 
L 329.947891 95.119543 
L 328.224182 96.925118 
L 327.362327 97.159217 
L 326.500473 97.710925 
L 325.638618 98.4632 
L 323.914909 100.419273 
L 322.1912 102.249921 
L 321.329345 102.233185 
L 319.605636 103.854868 
L 318.743782 104.908168 
L 317.020073 106.563231 
L 316.158218 107.415888 
L 315.296364 107.833833 
L 314.434509 108.126446 
L 312.7108 109.697922 
L 310.987091 111.871312 
L 310.125236 112.774085 
L 309.263382 113.375999 
L 308.401527 113.375999 
L 305.815964 115.958983 
L 304.092255 117.848144 
L 303.2304 118.399852 
L 302.368545 118.516832 
L 300.644836 119.954608 
L 298.921127 121.860626 
L 298.059273 122.362219 
L 297.197418 123.264992 
L 296.335564 123.298402 
L 295.473709 123.825052 
L 294.611855 124.694429 
L 293.75 125.363118 
L 291.164436 127.937787 
L 289.440727 128.439304 
L 288.578873 128.991004 
L 287.717018 129.174919 
L 285.993309 120.071665 
L 285.131455 121.074881 
L 283.407745 122.412334 
L 282.545891 122.612977 
L 281.684036 123.122892 
L 280.822182 123.891902 
L 277.374764 127.536516 
L 276.512909 127.653558 
L 275.651055 128.054753 
L 273.927345 129.567784 
L 271.341782 132.075519 
L 270.479927 132.30961 
L 269.618073 132.276155 
L 267.032509 134.850801 
L 265.3088 136.347089 
L 264.446945 136.907134 
L 263.585091 136.965655 
L 261.861382 138.269722 
L 260.999527 139.139046 
L 260.137673 139.774347 
L 259.275818 140.560078 
L 258.413964 141.095058 
L 257.552109 141.161984 
L 256.690255 141.7137 
L 254.966545 143.26844 
L 254.104691 143.80342 
L 252.380982 145.174337 
L 251.519127 145.249594 
L 250.657273 145.659194 
L 249.795418 146.436595 
L 248.933564 146.921391 
L 248.071709 147.807512 
L 246.348 149.161694 
L 245.486145 149.429187 
L 244.624291 149.546168 
L 242.038727 151.368471 
L 241.176873 152.120814 
L 240.315018 152.664193 
L 238.591309 153.148981 
L 236.8676 154.469775 
L 233.420182 156.710009 
L 232.558327 156.810323 
L 231.696473 157.211525 
L 228.249055 159.309728 
L 227.3872 159.995144 
L 226.525345 160.128929 
L 225.663491 160.145589 
L 223.939782 161.299203 
L 223.077927 161.967899 
L 222.216073 162.335707 
L 221.354218 162.887415 
L 220.492364 163.004464 
L 219.630509 163.238495 
L 218.768655 163.338809 
L 217.9068 159.292992 
L 217.044945 157.270046 
L 215.321236 158.030734 
L 214.459382 158.749614 
L 213.597527 159.142479 
L 211.873818 159.493628 
L 209.288255 161.148698 
L 208.4264 161.566697 
L 207.564545 162.252113 
L 205.840836 162.619921 
L 201.531564 165.085863 
L 198.946 165.871662 
L 196.360436 167.225851 
L 195.498582 167.911267 
L 194.636727 168.145366 
L 193.774873 168.145366 
L 192.913018 168.429519 
L 188.603745 170.502581 
L 186.880036 170.786802 
L 185.156327 171.572617 
L 184.294473 171.639475 
L 182.570764 172.299819 
L 181.708909 172.63417 
L 180.847055 172.650906 
L 179.9852 172.901664 
L 177.399636 174.038551 
L 175.675927 174.824289 
L 173.952218 175.024924 
L 169.642945 176.730178 
L 166.195527 177.499257 
L 163.609964 178.402044 
L 162.748109 178.636075 
L 161.886255 178.702933 
L 159.300691 179.430211 
L 157.576982 179.990256 
L 155.853273 180.383129 
L 153.267709 180.834523 
L 152.405855 181.118737 
L 151.544 181.252522 
L 149.820291 181.670452 
L 148.096582 181.921218 
L 144.649164 182.857461 
L 142.0636 183.10822 
L 138.616182 183.760249 
L 134.306909 184.39555 
L 132.5832 184.76335 
L 115.346109 186.685975 
L 111.036836 186.970197 
L 109.313127 187.162434 
L 108.451273 187.262748 
L 107.589418 187.137377 
L 105.865709 187.480043 
L 105.003855 187.438257 
L 102.418291 187.66395 
L 101.556436 187.647291 
L 99.832727 187.914777 
L 98.970873 187.797736 
L 97.247164 188.015099 
L 92.076036 188.165543 
L 91.214182 188.382838 
L 89.490473 188.516615 
L 88.628618 188.399566 
L 87.766764 188.416301 
L 86.043055 188.633657 
L 83.457491 188.733979 
L 82.595636 188.901151 
L 80.871927 188.884423 
L 78.286364 189.369273 
L 78.286364 189.369273 
" style="fill:none;stroke:#8dd3c7;stroke-linecap:square;stroke-width:2;"/>
   </g>
   <g id="patch_3">
    <path d="M 56.74 198.044 
L 56.74 7.2 
" style="fill:none;stroke:#ffffff;stroke-linecap:square;stroke-linejoin:miter;stroke-width:1.2;"/>
   </g>
   <g id="patch_4">
    <path d="M 530.76 198.044 
L 530.76 7.2 
" style="fill:none;stroke:#ffffff;stroke-linecap:square;stroke-linejoin:miter;stroke-width:1.2;"/>
   </g>
   <g id="patch_5">
    <path d="M 56.74 198.044 
L 530.76 198.044 
" style="fill:none;stroke:#ffffff;stroke-linecap:square;stroke-linejoin:miter;stroke-width:1.2;"/>
   </g>
   <g id="patch_6">
    <path d="M 56.74 7.2 
L 530.76 7.2 
" style="fill:none;stroke:#ffffff;stroke-linecap:square;stroke-linejoin:miter;stroke-width:1.2;"/>
   </g>
  </g>
 </g>
 <defs>
  <clipPath id="pe417c3bda5">
   <rect height="190.844" width="474.02" x="56.74" y="7.2"/>
  </clipPath>
 </defs>
</svg>
