<?xml version="1.0" encoding="utf-8" standalone="no"?>
<!DOCTYPE svg PUBLIC "-//W3C//DTD SVG 1.1//EN"
  "http://www.w3.org/Graphics/SVG/1.1/DTD/svg11.dtd">
<!-- Created with matplotlib (http://matplotlib.org/) -->
<svg height="504pt" version="1.1" viewBox="0 0 720 504" width="720pt" xmlns="http://www.w3.org/2000/svg" xmlns:xlink="http://www.w3.org/1999/xlink">
 <defs>
  <style type="text/css">
*{stroke-linecap:butt;stroke-linejoin:round;}
  </style>
 </defs>
 <g id="figure_1">
  <g id="patch_1">
   <path d="M 0 504 
L 720 504 
L 720 0 
L 0 0 
z
" style="fill:none;"/>
  </g>
  <g id="axes_1">
   <g id="patch_2">
    <path d="M 90 233.443636 
L 648 233.443636 
L 648 60.48 
L 90 60.48 
z
" style="fill:none;"/>
   </g>
   <g id="matplotlib.axis_1">
    <g id="xtick_1">
     <g id="line2d_1">
      <defs>
       <path d="M 0 0 
L 0 -5 
" id="m3652ef9fcd" style="stroke:#ffffff;stroke-width:1.2;"/>
      </defs>
      <g>
       <use style="fill:#ffffff;stroke:#ffffff;stroke-width:1.2;" x="218.197478" xlink:href="#m3652ef9fcd" y="233.443636"/>
      </g>
     </g>
     <g id="line2d_2">
      <defs>
       <path d="M 0 0 
L 0 5 
" id="m7f7fad3cb8" style="stroke:#ffffff;stroke-width:1.2;"/>
      </defs>
      <g>
       <use style="fill:#ffffff;stroke:#ffffff;stroke-width:1.2;" x="218.197478" xlink:href="#m7f7fad3cb8" y="60.48"/>
      </g>
     </g>
    </g>
    <g id="xtick_2">
     <g id="line2d_3">
      <g>
       <use style="fill:#ffffff;stroke:#ffffff;stroke-width:1.2;" x="401.606604" xlink:href="#m3652ef9fcd" y="233.443636"/>
      </g>
     </g>
     <g id="line2d_4">
      <g>
       <use style="fill:#ffffff;stroke:#ffffff;stroke-width:1.2;" x="401.606604" xlink:href="#m7f7fad3cb8" y="60.48"/>
      </g>
     </g>
    </g>
    <g id="xtick_3">
     <g id="line2d_5">
      <g>
       <use style="fill:#ffffff;stroke:#ffffff;stroke-width:1.2;" x="585.01573" xlink:href="#m3652ef9fcd" y="233.443636"/>
      </g>
     </g>
     <g id="line2d_6">
      <g>
       <use style="fill:#ffffff;stroke:#ffffff;stroke-width:1.2;" x="585.01573" xlink:href="#m7f7fad3cb8" y="60.48"/>
      </g>
     </g>
    </g>
    <g id="xtick_4">
     <g id="line2d_7">
      <defs>
       <path d="M 0 0 
L 0 -3 
" id="m96aa3fdf03" style="stroke:#ffffff;stroke-width:0.8;"/>
      </defs>
      <g>
       <use style="fill:#ffffff;stroke:#ffffff;stroke-width:0.8;" x="90" xlink:href="#m96aa3fdf03" y="233.443636"/>
      </g>
     </g>
     <g id="line2d_8">
      <defs>
       <path d="M 0 0 
L 0 3 
" id="m4910e4009d" style="stroke:#ffffff;stroke-width:0.8;"/>
      </defs>
      <g>
       <use style="fill:#ffffff;stroke:#ffffff;stroke-width:0.8;" x="90" xlink:href="#m4910e4009d" y="60.48"/>
      </g>
     </g>
    </g>
    <g id="xtick_5">
     <g id="line2d_9">
      <g>
       <use style="fill:#ffffff;stroke:#ffffff;stroke-width:0.8;" x="122.296744" xlink:href="#m96aa3fdf03" y="233.443636"/>
      </g>
     </g>
     <g id="line2d_10">
      <g>
       <use style="fill:#ffffff;stroke:#ffffff;stroke-width:0.8;" x="122.296744" xlink:href="#m4910e4009d" y="60.48"/>
      </g>
     </g>
    </g>
    <g id="xtick_6">
     <g id="line2d_11">
      <g>
       <use style="fill:#ffffff;stroke:#ffffff;stroke-width:0.8;" x="145.211648" xlink:href="#m96aa3fdf03" y="233.443636"/>
      </g>
     </g>
     <g id="line2d_12">
      <g>
       <use style="fill:#ffffff;stroke:#ffffff;stroke-width:0.8;" x="145.211648" xlink:href="#m4910e4009d" y="60.48"/>
      </g>
     </g>
    </g>
    <g id="xtick_7">
     <g id="line2d_13">
      <g>
       <use style="fill:#ffffff;stroke:#ffffff;stroke-width:0.8;" x="162.985829" xlink:href="#m96aa3fdf03" y="233.443636"/>
      </g>
     </g>
     <g id="line2d_14">
      <g>
       <use style="fill:#ffffff;stroke:#ffffff;stroke-width:0.8;" x="162.985829" xlink:href="#m4910e4009d" y="60.48"/>
      </g>
     </g>
    </g>
    <g id="xtick_8">
     <g id="line2d_15">
      <g>
       <use style="fill:#ffffff;stroke:#ffffff;stroke-width:0.8;" x="177.508392" xlink:href="#m96aa3fdf03" y="233.443636"/>
      </g>
     </g>
     <g id="line2d_16">
      <g>
       <use style="fill:#ffffff;stroke:#ffffff;stroke-width:0.8;" x="177.508392" xlink:href="#m4910e4009d" y="60.48"/>
      </g>
     </g>
    </g>
    <g id="xtick_9">
     <g id="line2d_17">
      <g>
       <use style="fill:#ffffff;stroke:#ffffff;stroke-width:0.8;" x="189.787045" xlink:href="#m96aa3fdf03" y="233.443636"/>
      </g>
     </g>
     <g id="line2d_18">
      <g>
       <use style="fill:#ffffff;stroke:#ffffff;stroke-width:0.8;" x="189.787045" xlink:href="#m4910e4009d" y="60.48"/>
      </g>
     </g>
    </g>
    <g id="xtick_10">
     <g id="line2d_19">
      <g>
       <use style="fill:#ffffff;stroke:#ffffff;stroke-width:0.8;" x="200.423297" xlink:href="#m96aa3fdf03" y="233.443636"/>
      </g>
     </g>
     <g id="line2d_20">
      <g>
       <use style="fill:#ffffff;stroke:#ffffff;stroke-width:0.8;" x="200.423297" xlink:href="#m4910e4009d" y="60.48"/>
      </g>
     </g>
    </g>
    <g id="xtick_11">
     <g id="line2d_21">
      <g>
       <use style="fill:#ffffff;stroke:#ffffff;stroke-width:0.8;" x="209.805136" xlink:href="#m96aa3fdf03" y="233.443636"/>
      </g>
     </g>
     <g id="line2d_22">
      <g>
       <use style="fill:#ffffff;stroke:#ffffff;stroke-width:0.8;" x="209.805136" xlink:href="#m4910e4009d" y="60.48"/>
      </g>
     </g>
    </g>
    <g id="xtick_12">
     <g id="line2d_23">
      <g>
       <use style="fill:#ffffff;stroke:#ffffff;stroke-width:0.8;" x="273.409126" xlink:href="#m96aa3fdf03" y="233.443636"/>
      </g>
     </g>
     <g id="line2d_24">
      <g>
       <use style="fill:#ffffff;stroke:#ffffff;stroke-width:0.8;" x="273.409126" xlink:href="#m4910e4009d" y="60.48"/>
      </g>
     </g>
    </g>
    <g id="xtick_13">
     <g id="line2d_25">
      <g>
       <use style="fill:#ffffff;stroke:#ffffff;stroke-width:0.8;" x="305.70587" xlink:href="#m96aa3fdf03" y="233.443636"/>
      </g>
     </g>
     <g id="line2d_26">
      <g>
       <use style="fill:#ffffff;stroke:#ffffff;stroke-width:0.8;" x="305.70587" xlink:href="#m4910e4009d" y="60.48"/>
      </g>
     </g>
    </g>
    <g id="xtick_14">
     <g id="line2d_27">
      <g>
       <use style="fill:#ffffff;stroke:#ffffff;stroke-width:0.8;" x="328.620775" xlink:href="#m96aa3fdf03" y="233.443636"/>
      </g>
     </g>
     <g id="line2d_28">
      <g>
       <use style="fill:#ffffff;stroke:#ffffff;stroke-width:0.8;" x="328.620775" xlink:href="#m4910e4009d" y="60.48"/>
      </g>
     </g>
    </g>
    <g id="xtick_15">
     <g id="line2d_29">
      <g>
       <use style="fill:#ffffff;stroke:#ffffff;stroke-width:0.8;" x="346.394955" xlink:href="#m96aa3fdf03" y="233.443636"/>
      </g>
     </g>
     <g id="line2d_30">
      <g>
       <use style="fill:#ffffff;stroke:#ffffff;stroke-width:0.8;" x="346.394955" xlink:href="#m4910e4009d" y="60.48"/>
      </g>
     </g>
    </g>
    <g id="xtick_16">
     <g id="line2d_31">
      <g>
       <use style="fill:#ffffff;stroke:#ffffff;stroke-width:0.8;" x="360.917518" xlink:href="#m96aa3fdf03" y="233.443636"/>
      </g>
     </g>
     <g id="line2d_32">
      <g>
       <use style="fill:#ffffff;stroke:#ffffff;stroke-width:0.8;" x="360.917518" xlink:href="#m4910e4009d" y="60.48"/>
      </g>
     </g>
    </g>
    <g id="xtick_17">
     <g id="line2d_33">
      <g>
       <use style="fill:#ffffff;stroke:#ffffff;stroke-width:0.8;" x="373.196171" xlink:href="#m96aa3fdf03" y="233.443636"/>
      </g>
     </g>
     <g id="line2d_34">
      <g>
       <use style="fill:#ffffff;stroke:#ffffff;stroke-width:0.8;" x="373.196171" xlink:href="#m4910e4009d" y="60.48"/>
      </g>
     </g>
    </g>
    <g id="xtick_18">
     <g id="line2d_35">
      <g>
       <use style="fill:#ffffff;stroke:#ffffff;stroke-width:0.8;" x="383.832423" xlink:href="#m96aa3fdf03" y="233.443636"/>
      </g>
     </g>
     <g id="line2d_36">
      <g>
       <use style="fill:#ffffff;stroke:#ffffff;stroke-width:0.8;" x="383.832423" xlink:href="#m4910e4009d" y="60.48"/>
      </g>
     </g>
    </g>
    <g id="xtick_19">
     <g id="line2d_37">
      <g>
       <use style="fill:#ffffff;stroke:#ffffff;stroke-width:0.8;" x="393.214262" xlink:href="#m96aa3fdf03" y="233.443636"/>
      </g>
     </g>
     <g id="line2d_38">
      <g>
       <use style="fill:#ffffff;stroke:#ffffff;stroke-width:0.8;" x="393.214262" xlink:href="#m4910e4009d" y="60.48"/>
      </g>
     </g>
    </g>
    <g id="xtick_20">
     <g id="line2d_39">
      <g>
       <use style="fill:#ffffff;stroke:#ffffff;stroke-width:0.8;" x="456.818252" xlink:href="#m96aa3fdf03" y="233.443636"/>
      </g>
     </g>
     <g id="line2d_40">
      <g>
       <use style="fill:#ffffff;stroke:#ffffff;stroke-width:0.8;" x="456.818252" xlink:href="#m4910e4009d" y="60.48"/>
      </g>
     </g>
    </g>
    <g id="xtick_21">
     <g id="line2d_41">
      <g>
       <use style="fill:#ffffff;stroke:#ffffff;stroke-width:0.8;" x="489.114996" xlink:href="#m96aa3fdf03" y="233.443636"/>
      </g>
     </g>
     <g id="line2d_42">
      <g>
       <use style="fill:#ffffff;stroke:#ffffff;stroke-width:0.8;" x="489.114996" xlink:href="#m4910e4009d" y="60.48"/>
      </g>
     </g>
    </g>
    <g id="xtick_22">
     <g id="line2d_43">
      <g>
       <use style="fill:#ffffff;stroke:#ffffff;stroke-width:0.8;" x="512.029901" xlink:href="#m96aa3fdf03" y="233.443636"/>
      </g>
     </g>
     <g id="line2d_44">
      <g>
       <use style="fill:#ffffff;stroke:#ffffff;stroke-width:0.8;" x="512.029901" xlink:href="#m4910e4009d" y="60.48"/>
      </g>
     </g>
    </g>
    <g id="xtick_23">
     <g id="line2d_45">
      <g>
       <use style="fill:#ffffff;stroke:#ffffff;stroke-width:0.8;" x="529.804081" xlink:href="#m96aa3fdf03" y="233.443636"/>
      </g>
     </g>
     <g id="line2d_46">
      <g>
       <use style="fill:#ffffff;stroke:#ffffff;stroke-width:0.8;" x="529.804081" xlink:href="#m4910e4009d" y="60.48"/>
      </g>
     </g>
    </g>
    <g id="xtick_24">
     <g id="line2d_47">
      <g>
       <use style="fill:#ffffff;stroke:#ffffff;stroke-width:0.8;" x="544.326645" xlink:href="#m96aa3fdf03" y="233.443636"/>
      </g>
     </g>
     <g id="line2d_48">
      <g>
       <use style="fill:#ffffff;stroke:#ffffff;stroke-width:0.8;" x="544.326645" xlink:href="#m4910e4009d" y="60.48"/>
      </g>
     </g>
    </g>
    <g id="xtick_25">
     <g id="line2d_49">
      <g>
       <use style="fill:#ffffff;stroke:#ffffff;stroke-width:0.8;" x="556.605297" xlink:href="#m96aa3fdf03" y="233.443636"/>
      </g>
     </g>
     <g id="line2d_50">
      <g>
       <use style="fill:#ffffff;stroke:#ffffff;stroke-width:0.8;" x="556.605297" xlink:href="#m4910e4009d" y="60.48"/>
      </g>
     </g>
    </g>
    <g id="xtick_26">
     <g id="line2d_51">
      <g>
       <use style="fill:#ffffff;stroke:#ffffff;stroke-width:0.8;" x="567.241549" xlink:href="#m96aa3fdf03" y="233.443636"/>
      </g>
     </g>
     <g id="line2d_52">
      <g>
       <use style="fill:#ffffff;stroke:#ffffff;stroke-width:0.8;" x="567.241549" xlink:href="#m4910e4009d" y="60.48"/>
      </g>
     </g>
    </g>
    <g id="xtick_27">
     <g id="line2d_53">
      <g>
       <use style="fill:#ffffff;stroke:#ffffff;stroke-width:0.8;" x="576.623389" xlink:href="#m96aa3fdf03" y="233.443636"/>
      </g>
     </g>
     <g id="line2d_54">
      <g>
       <use style="fill:#ffffff;stroke:#ffffff;stroke-width:0.8;" x="576.623389" xlink:href="#m4910e4009d" y="60.48"/>
      </g>
     </g>
    </g>
    <g id="xtick_28">
     <g id="line2d_55">
      <g>
       <use style="fill:#ffffff;stroke:#ffffff;stroke-width:0.8;" x="640.227378" xlink:href="#m96aa3fdf03" y="233.443636"/>
      </g>
     </g>
     <g id="line2d_56">
      <g>
       <use style="fill:#ffffff;stroke:#ffffff;stroke-width:0.8;" x="640.227378" xlink:href="#m4910e4009d" y="60.48"/>
      </g>
     </g>
    </g>
    <g id="text_1">
     <!-- Frequency (Hz) -->
     <defs>
      <path d="M 8.546875 71.734375 
L 58.296875 71.734375 
L 58.296875 62.9375 
L 18.265625 62.9375 
L 18.265625 41.15625 
L 53.46875 41.15625 
L 53.46875 32.625 
L 18.265625 32.625 
L 18.265625 0 
L 8.546875 0 
z
" id="Helvetica-46"/>
      <path d="M 6.6875 52.296875 
L 15.046875 52.296875 
L 15.046875 43.265625 
Q 16.0625 45.90625 20.0625 49.6875 
Q 24.078125 53.46875 29.296875 53.46875 
Q 29.546875 53.46875 30.125 53.421875 
Q 30.71875 53.375 32.125 53.21875 
L 32.125 43.953125 
Q 31.34375 44.09375 30.6875 44.140625 
Q 30.03125 44.1875 29.25 44.1875 
Q 22.609375 44.1875 19.046875 39.90625 
Q 15.484375 35.640625 15.484375 30.078125 
L 15.484375 0 
L 6.6875 0 
z
" id="Helvetica-72"/>
      <path d="M 28.21875 53.46875 
Q 33.796875 53.46875 39.015625 50.859375 
Q 44.234375 48.25 46.96875 44.09375 
Q 49.609375 40.140625 50.484375 34.859375 
Q 51.265625 31.25 51.265625 23.34375 
L 12.9375 23.34375 
Q 13.1875 15.375 16.703125 10.5625 
Q 20.21875 5.765625 27.59375 5.765625 
Q 34.46875 5.765625 38.578125 10.296875 
Q 40.921875 12.9375 41.890625 16.40625 
L 50.53125 16.40625 
Q 50.203125 13.53125 48.265625 9.984375 
Q 46.34375 6.453125 43.953125 4.203125 
Q 39.9375 0.296875 34.03125 -1.078125 
Q 30.859375 -1.859375 26.859375 -1.859375 
Q 17.09375 -1.859375 10.296875 5.25 
Q 3.515625 12.359375 3.515625 25.140625 
Q 3.515625 37.75 10.34375 45.609375 
Q 17.1875 53.46875 28.21875 53.46875 
z
M 42.234375 30.328125 
Q 41.703125 36.03125 39.75 39.453125 
Q 36.140625 45.796875 27.6875 45.796875 
Q 21.625 45.796875 17.515625 41.421875 
Q 13.421875 37.0625 13.1875 30.328125 
z
M 27.390625 53.5625 
z
" id="Helvetica-65"/>
      <path d="M 12.109375 25.4375 
Q 12.109375 18.65625 14.015625 14.0625 
Q 17.390625 5.90625 26.078125 5.90625 
Q 35.25 5.90625 38.71875 14.5 
Q 40.625 19.234375 40.625 26.609375 
Q 40.625 33.40625 38.53125 37.9375 
Q 34.96875 45.703125 25.984375 45.703125 
Q 20.265625 45.703125 16.1875 40.75 
Q 12.109375 35.796875 12.109375 25.4375 
z
M 25.09375 53.46875 
Q 31.59375 53.46875 36.03125 50.203125 
Q 38.484375 48.4375 40.71875 45.015625 
L 40.71875 52.296875 
L 49.078125 52.296875 
L 49.078125 -20.84375 
L 40.234375 -20.84375 
L 40.234375 6 
Q 38.03125 2.484375 34.15625 0.40625 
Q 30.28125 -1.65625 24.46875 -1.65625 
Q 16.109375 -1.65625 9.515625 4.875 
Q 2.9375 11.421875 2.9375 24.8125 
Q 2.9375 37.359375 9.109375 45.40625 
Q 15.28125 53.46875 25.09375 53.46875 
z
" id="Helvetica-71"/>
      <path d="M 15.234375 52.296875 
L 15.234375 17.578125 
Q 15.234375 13.578125 16.5 11.03125 
Q 18.84375 6.34375 25.25 6.34375 
Q 34.421875 6.34375 37.75 14.546875 
Q 39.546875 18.953125 39.546875 26.609375 
L 39.546875 52.296875 
L 48.34375 52.296875 
L 48.34375 0 
L 40.046875 0 
L 40.140625 7.71875 
Q 38.421875 4.734375 35.890625 2.6875 
Q 30.859375 -1.421875 23.6875 -1.421875 
Q 12.5 -1.421875 8.453125 6.0625 
Q 6.25 10.0625 6.25 16.75 
L 6.25 52.296875 
z
M 27.296875 53.5625 
z
" id="Helvetica-75"/>
      <path d="M 6.453125 52.296875 
L 14.796875 52.296875 
L 14.796875 44.875 
Q 18.5 49.46875 22.65625 51.46875 
Q 26.8125 53.46875 31.890625 53.46875 
Q 43.015625 53.46875 46.921875 45.703125 
Q 49.078125 41.453125 49.078125 33.546875 
L 49.078125 0 
L 40.140625 0 
L 40.140625 32.953125 
Q 40.140625 37.75 38.71875 40.671875 
Q 36.375 45.5625 30.21875 45.5625 
Q 27.09375 45.5625 25.09375 44.921875 
Q 21.484375 43.84375 18.75 40.625 
Q 16.546875 38.03125 15.890625 35.265625 
Q 15.234375 32.515625 15.234375 27.390625 
L 15.234375 0 
L 6.453125 0 
z
M 27.09375 53.5625 
z
" id="Helvetica-6e"/>
      <path d="M 26.609375 53.8125 
Q 35.453125 53.8125 40.984375 49.515625 
Q 46.53125 45.21875 47.65625 34.71875 
L 39.109375 34.71875 
Q 38.328125 39.546875 35.546875 42.75 
Q 32.765625 45.953125 26.609375 45.953125 
Q 18.21875 45.953125 14.59375 37.75 
Q 12.25 32.421875 12.25 24.609375 
Q 12.25 16.75 15.5625 11.375 
Q 18.890625 6 26.03125 6 
Q 31.5 6 34.6875 9.34375 
Q 37.890625 12.703125 39.109375 18.5 
L 47.65625 18.5 
Q 46.1875 8.109375 40.328125 3.296875 
Q 34.46875 -1.515625 25.34375 -1.515625 
Q 15.09375 -1.515625 8.984375 5.984375 
Q 2.875 13.484375 2.875 24.703125 
Q 2.875 38.484375 9.5625 46.140625 
Q 16.265625 53.8125 26.609375 53.8125 
z
M 25.25 53.5625 
z
" id="Helvetica-63"/>
      <path d="M 39.109375 52.296875 
L 48.828125 52.296875 
Q 46.96875 47.265625 40.578125 29.34375 
Q 35.796875 15.875 32.5625 7.375 
Q 24.953125 -12.640625 21.828125 -17.03125 
Q 18.703125 -21.4375 11.078125 -21.4375 
Q 9.234375 -21.4375 8.234375 -21.28125 
Q 7.234375 -21.140625 5.765625 -20.75 
L 5.765625 -12.75 
Q 8.0625 -13.375 9.078125 -13.515625 
Q 10.109375 -13.671875 10.890625 -13.671875 
Q 13.328125 -13.671875 14.46875 -12.859375 
Q 15.625 -12.0625 16.40625 -10.890625 
Q 16.65625 -10.5 18.15625 -6.875 
Q 19.671875 -3.265625 20.359375 -1.515625 
L 1.03125 52.296875 
L 10.984375 52.296875 
L 25 9.71875 
z
M 24.953125 53.5625 
z
" id="Helvetica-79"/>
      <path id="Helvetica-20"/>
      <path d="M 29.59375 72.90625 
Q 21.921875 58.015625 19.625 50.984375 
Q 16.15625 40.28125 16.15625 26.265625 
Q 16.15625 12.109375 20.125 0.390625 
Q 22.5625 -6.84375 29.734375 -20.40625 
L 23.828125 -20.40625 
Q 16.703125 -9.28125 14.984375 -6.203125 
Q 13.28125 -3.125 11.28125 2.15625 
Q 8.546875 9.375 7.46875 17.578125 
Q 6.9375 21.828125 6.9375 25.6875 
Q 6.9375 40.140625 11.46875 51.421875 
Q 14.359375 58.59375 23.484375 72.90625 
z
" id="Helvetica-28"/>
      <path d="M 7.859375 71.734375 
L 17.671875 71.734375 
L 17.671875 42.09375 
L 54.984375 42.09375 
L 54.984375 71.734375 
L 64.796875 71.734375 
L 64.796875 0 
L 54.984375 0 
L 54.984375 33.546875 
L 17.671875 33.546875 
L 17.671875 0 
L 7.859375 0 
z
" id="Helvetica-48"/>
      <path d="M 2.546875 6.9375 
L 33.546875 44.4375 
L 4.828125 44.4375 
L 4.828125 52.296875 
L 45.359375 52.296875 
L 45.359375 45.125 
L 14.546875 7.859375 
L 46.296875 7.859375 
L 46.296875 0 
L 2.546875 0 
z
M 25.140625 53.5625 
z
" id="Helvetica-7a"/>
      <path d="M 3.46875 -20.40625 
Q 11.234375 -5.28125 13.484375 1.65625 
Q 16.890625 12.15625 16.890625 26.265625 
Q 16.890625 40.375 12.9375 52.09375 
Q 10.5 59.328125 3.328125 72.90625 
L 9.234375 72.90625 
Q 16.75 60.890625 18.328125 58.078125 
Q 19.921875 55.28125 21.78125 50.34375 
Q 24.125 44.234375 25.125 38.28125 
Q 26.125 32.328125 26.125 26.8125 
Q 26.125 12.359375 21.53125 1.03125 
Q 18.65625 -6.25 9.578125 -20.40625 
z
" id="Helvetica-29"/>
     </defs>
     <g style="fill:#ffffff;" transform="translate(300.098437 250.024886)scale(0.2 -0.2)">
      <use xlink:href="#Helvetica-46"/>
      <use x="61.083984" xlink:href="#Helvetica-72"/>
      <use x="94.384766" xlink:href="#Helvetica-65"/>
      <use x="150" xlink:href="#Helvetica-71"/>
      <use x="205.615234" xlink:href="#Helvetica-75"/>
      <use x="261.230469" xlink:href="#Helvetica-65"/>
      <use x="316.845703" xlink:href="#Helvetica-6e"/>
      <use x="372.460938" xlink:href="#Helvetica-63"/>
      <use x="422.460938" xlink:href="#Helvetica-79"/>
      <use x="472.460938" xlink:href="#Helvetica-20"/>
      <use x="500.244141" xlink:href="#Helvetica-28"/>
      <use x="533.544922" xlink:href="#Helvetica-48"/>
      <use x="605.761719" xlink:href="#Helvetica-7a"/>
      <use x="655.761719" xlink:href="#Helvetica-29"/>
     </g>
    </g>
   </g>
   <g id="matplotlib.axis_2">
    <g id="ytick_1">
     <g id="line2d_57">
      <defs>
       <path d="M 0 0 
L 5 0 
" id="ma866647510" style="stroke:#ffffff;stroke-width:1.2;"/>
      </defs>
      <g>
       <use style="fill:#ffffff;stroke:#ffffff;stroke-width:1.2;" x="90" xlink:href="#ma866647510" y="181.847812"/>
      </g>
     </g>
     <g id="line2d_58">
      <defs>
       <path d="M 0 0 
L -5 0 
" id="mcd017db612" style="stroke:#ffffff;stroke-width:1.2;"/>
      </defs>
      <g>
       <use style="fill:#ffffff;stroke:#ffffff;stroke-width:1.2;" x="648" xlink:href="#mcd017db612" y="181.847812"/>
      </g>
     </g>
     <g id="text_2">
      <!-- 0.0 -->
      <defs>
       <path d="M 27.046875 69.921875 
Q 40.625 69.921875 46.6875 58.734375 
Q 51.375 50.09375 51.375 35.0625 
Q 51.375 20.796875 47.125 11.46875 
Q 40.96875 -1.90625 27 -1.90625 
Q 14.40625 -1.90625 8.25 9.03125 
Q 3.125 18.171875 3.125 33.546875 
Q 3.125 45.453125 6.203125 54 
Q 11.96875 69.921875 27.046875 69.921875 
z
M 26.953125 6.109375 
Q 33.796875 6.109375 37.84375 12.15625 
Q 41.890625 18.21875 41.890625 34.71875 
Q 41.890625 46.625 38.953125 54.3125 
Q 36.03125 62.015625 27.59375 62.015625 
Q 19.828125 62.015625 16.234375 54.703125 
Q 12.640625 47.40625 12.640625 33.203125 
Q 12.640625 22.515625 14.9375 16.015625 
Q 18.453125 6.109375 26.953125 6.109375 
z
" id="Helvetica-30"/>
       <path d="M 8.546875 10.640625 
L 18.75 10.640625 
L 18.75 0 
L 8.546875 0 
z
" id="Helvetica-2e"/>
      </defs>
      <g style="fill:#ffffff;" transform="translate(64.26 187.586562)scale(0.16 -0.16)">
       <use xlink:href="#Helvetica-30"/>
       <use x="55.615234" xlink:href="#Helvetica-2e"/>
       <use x="83.398438" xlink:href="#Helvetica-30"/>
      </g>
     </g>
    </g>
    <g id="ytick_2">
     <g id="line2d_59">
      <g>
       <use style="fill:#ffffff;stroke:#ffffff;stroke-width:1.2;" x="90" xlink:href="#ma866647510" y="120.358977"/>
      </g>
     </g>
     <g id="line2d_60">
      <g>
       <use style="fill:#ffffff;stroke:#ffffff;stroke-width:1.2;" x="648" xlink:href="#mcd017db612" y="120.358977"/>
      </g>
     </g>
     <g id="text_3">
      <!-- 0.5 -->
      <defs>
       <path d="M 12.359375 17.828125 
Q 13.234375 10.296875 19.34375 7.421875 
Q 22.46875 5.953125 26.5625 5.953125 
Q 34.375 5.953125 38.125 10.9375 
Q 41.890625 15.921875 41.890625 21.96875 
Q 41.890625 29.296875 37.421875 33.296875 
Q 32.953125 37.3125 26.703125 37.3125 
Q 22.171875 37.3125 18.921875 35.546875 
Q 15.671875 33.796875 13.375 30.671875 
L 5.765625 31.109375 
L 11.078125 68.75 
L 47.40625 68.75 
L 47.40625 60.25 
L 17.671875 60.25 
L 14.703125 40.828125 
Q 17.140625 42.671875 19.34375 43.609375 
Q 23.25 45.21875 28.375 45.21875 
Q 37.984375 45.21875 44.671875 39.015625 
Q 51.375 32.8125 51.375 23.296875 
Q 51.375 13.375 45.234375 5.796875 
Q 39.109375 -1.765625 25.6875 -1.765625 
Q 17.140625 -1.765625 10.5625 3.046875 
Q 4 7.859375 3.21875 17.828125 
z
" id="Helvetica-35"/>
      </defs>
      <g style="fill:#ffffff;" transform="translate(64.26 126.097727)scale(0.16 -0.16)">
       <use xlink:href="#Helvetica-30"/>
       <use x="55.615234" xlink:href="#Helvetica-2e"/>
       <use x="83.398438" xlink:href="#Helvetica-35"/>
      </g>
     </g>
    </g>
    <g id="text_4">
     <!-- $r_{Pearson}$ -->
     <defs>
      <path d="M 8.546875 71.734375 
L 40.828125 71.734375 
Q 50.390625 71.734375 56.25 66.328125 
Q 62.109375 60.9375 62.109375 51.171875 
Q 62.109375 42.78125 56.875 36.546875 
Q 51.65625 30.328125 40.828125 30.328125 
L 18.265625 30.328125 
L 18.265625 0 
L 8.546875 0 
z
M 52.296875 51.125 
Q 52.296875 59.03125 46.4375 61.859375 
Q 43.21875 63.375 37.59375 63.375 
L 18.265625 63.375 
L 18.265625 38.53125 
L 37.59375 38.53125 
Q 44.140625 38.53125 48.21875 41.3125 
Q 52.296875 44.09375 52.296875 51.125 
z
" id="Helvetica-50"/>
      <path d="M 13.1875 13.921875 
Q 13.1875 10.109375 15.96875 7.90625 
Q 18.75 5.71875 22.5625 5.71875 
Q 27.203125 5.71875 31.546875 7.859375 
Q 38.875 11.421875 38.875 19.53125 
L 38.875 26.609375 
Q 37.25 25.59375 34.703125 24.90625 
Q 32.171875 24.21875 29.734375 23.921875 
L 24.421875 23.25 
Q 19.625 22.609375 17.234375 21.234375 
Q 13.1875 18.953125 13.1875 13.921875 
z
M 34.46875 31.6875 
Q 37.5 32.078125 38.53125 34.234375 
Q 39.109375 35.40625 39.109375 37.59375 
Q 39.109375 42.09375 35.90625 44.109375 
Q 32.71875 46.140625 26.765625 46.140625 
Q 19.875 46.140625 17 42.4375 
Q 15.375 40.375 14.890625 36.328125 
L 6.6875 36.328125 
Q 6.9375 46 12.96875 49.78125 
Q 19 53.5625 26.953125 53.5625 
Q 36.1875 53.5625 41.9375 50.046875 
Q 47.65625 46.53125 47.65625 39.109375 
L 47.65625 8.984375 
Q 47.65625 7.625 48.21875 6.78125 
Q 48.78125 5.953125 50.59375 5.953125 
Q 51.171875 5.953125 51.90625 6.03125 
Q 52.640625 6.109375 53.46875 6.25 
L 53.46875 -0.25 
Q 51.421875 -0.828125 50.34375 -0.96875 
Q 49.265625 -1.125 47.40625 -1.125 
Q 42.875 -1.125 40.828125 2.09375 
Q 39.75 3.8125 39.3125 6.9375 
Q 36.625 3.421875 31.59375 0.828125 
Q 26.5625 -1.765625 20.515625 -1.765625 
Q 13.234375 -1.765625 8.609375 2.65625 
Q 4 7.078125 4 13.71875 
Q 4 21 8.546875 25 
Q 13.09375 29 20.453125 29.9375 
z
M 27.203125 53.5625 
z
" id="Helvetica-61"/>
      <path d="M 11.671875 16.40625 
Q 12.0625 12.015625 13.875 9.671875 
Q 17.1875 5.421875 25.390625 5.421875 
Q 30.28125 5.421875 33.984375 7.546875 
Q 37.703125 9.671875 37.703125 14.109375 
Q 37.703125 17.484375 34.71875 19.234375 
Q 32.8125 20.3125 27.203125 21.734375 
L 20.21875 23.484375 
Q 13.53125 25.140625 10.359375 27.203125 
Q 4.6875 30.765625 4.6875 37.0625 
Q 4.6875 44.484375 10.03125 49.0625 
Q 15.375 53.65625 24.421875 53.65625 
Q 36.234375 53.65625 41.453125 46.734375 
Q 44.734375 42.328125 44.625 37.25 
L 36.328125 37.25 
Q 36.078125 40.234375 34.234375 42.671875 
Q 31.203125 46.140625 23.734375 46.140625 
Q 18.75 46.140625 16.1875 44.234375 
Q 13.625 42.328125 13.625 39.203125 
Q 13.625 35.796875 17 33.734375 
Q 18.953125 32.515625 22.75 31.59375 
L 28.5625 30.171875 
Q 38.03125 27.875 41.265625 25.734375 
Q 46.390625 22.359375 46.390625 15.140625 
Q 46.390625 8.15625 41.09375 3.078125 
Q 35.796875 -2 24.953125 -2 
Q 13.28125 -2 8.421875 3.296875 
Q 3.5625 8.59375 3.21875 16.40625 
z
M 24.65625 53.5625 
z
" id="Helvetica-73"/>
      <path d="M 27.203125 5.671875 
Q 35.9375 5.671875 39.1875 12.28125 
Q 42.4375 18.890625 42.4375 27 
Q 42.4375 34.328125 40.09375 38.921875 
Q 36.375 46.140625 27.296875 46.140625 
Q 19.234375 46.140625 15.578125 39.984375 
Q 11.921875 33.84375 11.921875 25.140625 
Q 11.921875 16.796875 15.578125 11.234375 
Q 19.234375 5.671875 27.203125 5.671875 
z
M 27.546875 53.8125 
Q 37.640625 53.8125 44.625 47.0625 
Q 51.609375 40.328125 51.609375 27.25 
Q 51.609375 14.59375 45.453125 6.34375 
Q 39.3125 -1.90625 26.375 -1.90625 
Q 15.578125 -1.90625 9.21875 5.390625 
Q 2.875 12.703125 2.875 25 
Q 2.875 38.1875 9.5625 46 
Q 16.265625 53.8125 27.546875 53.8125 
z
M 27.25 53.5625 
z
" id="Helvetica-6f"/>
     </defs>
     <g style="fill:#ffffff;" transform="translate(58.09125 176.761818)rotate(-90)scale(0.2 -0.2)">
      <use transform="translate(0 0.53125)" xlink:href="#Helvetica-72"/>
      <use transform="translate(34.215977 -15.157813)scale(0.7)" xlink:href="#Helvetica-50"/>
      <use transform="translate(80.90543 -15.157813)scale(0.7)" xlink:href="#Helvetica-65"/>
      <use transform="translate(119.836094 -15.157813)scale(0.7)" xlink:href="#Helvetica-61"/>
      <use transform="translate(158.766758 -15.157813)scale(0.7)" xlink:href="#Helvetica-72"/>
      <use transform="translate(182.077305 -15.157813)scale(0.7)" xlink:href="#Helvetica-73"/>
      <use transform="translate(217.077305 -15.157813)scale(0.7)" xlink:href="#Helvetica-6f"/>
      <use transform="translate(256.007969 -15.157813)scale(0.7)" xlink:href="#Helvetica-6e"/>
     </g>
    </g>
   </g>
   <g id="line2d_61">
    <path clip-path="url(#pd5029036c7)" d="M 81.614884 143.240685 
L 90.007225 181.847812 
L 97.599021 136.745711 
L 104.529788 144.73026 
L 110.905476 111.838885 
L 116.80844 68.341983 
L 122.303969 68.379855 
L 127.444693 102.879833 
L 132.27366 181.847812 
L 145.218874 181.847812 
L 149.105184 143.475663 
L 152.81067 129.049857 
L 156.351411 131.505566 
L 159.741437 145.460473 
L 162.993054 181.847812 
L 166.117124 181.847812 
L 169.123276 142.086079 
L 172.020089 181.847812 
L 187.485309 181.847812 
L 189.79427 147.13351 
L 192.038181 141.796309 
L 194.220607 181.847812 
L 196.344828 181.847812 
L 198.413868 146.590308 
L 200.430522 181.847812 
L 218.204703 181.847812 
L 219.782053 147.216437 
L 221.328773 181.847812 
L 240.319062 181.847812 
L 241.516883 150.785449 
L 242.696957 181.847812 
L 249.432255 181.847812 
L 250.501447 214.722631 
L 251.556476 181.847812 
L 305.180293 181.847812 
L 305.713095 225.581653 
L 306.242357 216.288866 
L 306.768125 181.847812 
L 343.481763 181.847812 
L 343.811592 216.391884 
L 344.140061 181.847812 
L 346.082927 181.847812 
L 346.40218 139.361189 
L 346.720159 136.437704 
L 347.036874 181.847812 
L 355.144229 181.847812 
L 355.429215 143.838261 
L 355.713185 135.544913 
L 355.996147 144.620429 
L 356.278107 135.564797 
L 356.83905 97.919342 
L 357.118047 95.851488 
L 357.673126 77.315594 
L 358.224364 104.551558 
L 358.771813 181.847812 
L 359.585997 181.847812 
L 359.855552 214.117022 
L 360.124198 181.847812 
L 364.048814 181.847812 
L 364.303705 139.6599 
L 364.557784 129.055712 
L 364.811054 137.520097 
L 365.063522 139.154317 
L 365.56607 215.05043 
L 365.81616 212.814702 
L 366.065467 181.847812 
L 366.808741 181.847812 
L 367.054965 146.580583 
L 367.300431 181.847812 
L 367.545143 105.739245 
L 367.789105 99.059145 
L 368.274799 136.54966 
L 368.51654 125.462015 
L 368.757549 96.495663 
L 368.997832 97.124054 
L 369.237392 125.388717 
L 369.476233 131.676219 
L 369.71436 122.993063 
L 369.951778 181.847812 
L 370.424501 181.847812 
L 370.659815 128.065194 
L 370.894435 101.544077 
L 371.128366 90.471788 
L 371.594178 181.847812 
L 373.430653 181.847812 
L 373.657264 133.906525 
L 373.883231 181.847812 
L 376.108336 181.847812 
L 376.545994 114.717483 
L 376.763925 119.610523 
L 376.981261 136.679299 
L 377.198005 131.521055 
L 377.414162 115.058988 
L 377.844722 181.847812 
L 378.059133 148.699818 
L 378.272968 181.847812 
L 382.433369 181.847812 
L 382.837703 113.757464 
L 383.039103 100.584221 
L 383.640265 181.847812 
L 389.600247 181.847812 
L 389.785273 223.380936 
L 389.96987 181.847812 
L 397.69565 181.847812 
L 397.862814 140.440035 
L 398.029628 181.847812 
L 402.406408 181.847812 
L 402.563982 151.058639 
L 402.721245 181.847812 
L 403.034842 181.847812 
L 403.347209 129.165738 
L 403.502935 181.847812 
L 407.596407 181.847812 
L 407.744051 220.370464 
L 407.891421 217.384239 
L 408.038519 222.057801 
L 408.185346 181.847812 
L 408.915448 181.847812 
L 409.060669 212.896637 
L 409.205625 181.847812 
L 410.355877 181.847812 
L 410.498498 140.431392 
L 410.640863 151.006795 
L 410.782975 148.513531 
L 410.924834 123.503102 
L 411.06644 129.6836 
L 411.207795 181.847812 
L 411.489755 181.847812 
L 411.630362 149.90482 
L 411.77072 143.607696 
L 411.910832 181.847812 
L 420.902862 181.847812 
L 421.027809 218.394069 
L 421.15256 181.847812 
L 422.143597 181.847812 
L 422.266614 215.007062 
L 422.389441 181.847812 
L 428.072938 181.847812 
L 428.301172 221.167023 
L 428.415044 181.847812 
L 428.528754 181.847812 
L 428.642301 221.055864 
L 428.755687 219.781381 
L 428.868912 181.847812 
L 455.053535 181.847812 
L 455.134939 148.629091 
L 455.297497 181.847812 
L 489.704216 181.847812 
L 489.756914 148.674198 
L 489.809578 181.847812 
L 529.010761 181.847812 
L 529.042938 150.87622 
L 529.107253 181.847812 
L 532.659174 181.847812 
L 532.689911 221.895515 
L 532.751348 181.847812 
L 537.721082 181.847812 
L 537.749926 145.829585 
L 537.807583 181.847812 
L 538.21002 181.847812 
L 538.238688 150.51605 
L 538.295993 181.847812 
L 564.596447 181.847812 
L 564.617032 217.703828 
L 564.699319 181.847812 
L 567.705471 181.847812 
L 567.725268 221.696667 
L 567.804407 181.847812 
L 574.894861 181.847812 
L 574.91295 148.64046 
L 575.003332 181.847812 
L 578.985078 181.847812 
L 579.002261 150.359083 
L 579.088123 181.847812 
L 580.516925 181.847812 
L 580.533781 217.062983 
L 580.618008 181.847812 
L 583.038973 181.847812 
L 583.055304 212.692344 
L 583.136908 181.847812 
L 586.47526 181.847812 
L 586.490902 214.636978 
L 586.584685 181.847812 
L 588.101058 181.847812 
L 588.116383 213.878918 
L 588.208273 181.847812 
L 593.105639 181.847812 
L 593.134421 134.862552 
L 593.20633 181.847812 
L 595.249933 181.847812 
L 595.263943 212.774251 
L 595.347951 181.847812 
L 599.850273 181.847812 
L 599.863497 146.722508 
L 599.956002 181.847812 
L 609.947444 181.847812 
L 609.959093 146.749622 
L 610.052228 181.847812 
L 611.926516 181.847812 
L 611.93788 214.722104 
L 612.028731 181.847812 
L 623.223422 181.847812 
L 623.233283 150.956204 
L 623.331828 181.847812 
L 625.785288 181.847812 
L 625.794837 213.438919 
L 625.890265 181.847812 
L 633.488997 181.847812 
L 633.497666 217.901273 
L 633.592961 181.847812 
L 635.204256 181.847812 
L 635.21274 215.706177 
L 635.31448 181.847812 
L 636.215958 181.847812 
L 636.224335 212.623626 
L 636.324791 181.847812 
L 639.642975 181.847812 
L 639.699129 143.893026 
L 639.747229 181.847812 
L 640.322174 181.847812 
L 640.33013 213.521757 
L 640.425543 181.847812 
L 641.561667 181.847812 
L 641.5695 213.622933 
L 641.671264 181.847812 
L 642.496213 181.847812 
L 642.503955 223.900151 
L 642.604533 181.847812 
L 643.097841 181.847812 
L 643.105525 214.790367 
L 643.205346 181.847812 
L 643.86257 181.847812 
L 643.87018 146.016828 
L 643.969049 181.847812 
L 645.66851 181.847812 
L 645.675949 147.043271 
L 645.772603 181.847812 
L 646.556353 181.847812 
L 646.563711 144.77096 
L 646.666641 181.847812 
L 648 181.847812 
L 648 181.847812 
" style="fill:none;stroke:#8dd3c7;stroke-linecap:square;stroke-width:2;"/>
   </g>
   <g id="patch_3">
    <path d="M 90 233.443636 
L 90 60.48 
" style="fill:none;stroke:#ffffff;stroke-linecap:square;stroke-linejoin:miter;stroke-width:1.2;"/>
   </g>
   <g id="patch_4">
    <path d="M 648 233.443636 
L 648 60.48 
" style="fill:none;stroke:#ffffff;stroke-linecap:square;stroke-linejoin:miter;stroke-width:1.2;"/>
   </g>
   <g id="patch_5">
    <path d="M 90 233.443636 
L 648 233.443636 
" style="fill:none;stroke:#ffffff;stroke-linecap:square;stroke-linejoin:miter;stroke-width:1.2;"/>
   </g>
   <g id="patch_6">
    <path d="M 90 60.48 
L 648 60.48 
" style="fill:none;stroke:#ffffff;stroke-linecap:square;stroke-linejoin:miter;stroke-width:1.2;"/>
   </g>
  </g>
  <g id="axes_2">
   <g id="patch_7">
    <path d="M 90 441 
L 648 441 
L 648 268.036364 
L 90 268.036364 
z
" style="fill:none;"/>
   </g>
   <g id="matplotlib.axis_3">
    <g id="xtick_29">
     <g id="line2d_62">
      <g>
       <use style="fill:#ffffff;stroke:#ffffff;stroke-width:1.2;" x="218.197478" xlink:href="#m3652ef9fcd" y="441"/>
      </g>
     </g>
     <g id="line2d_63">
      <g>
       <use style="fill:#ffffff;stroke:#ffffff;stroke-width:1.2;" x="218.197478" xlink:href="#m7f7fad3cb8" y="268.036364"/>
      </g>
     </g>
     <g id="text_5">
      <!-- $\mathdefault{10^{2}}$ -->
      <defs>
       <path d="M 9.578125 49.515625 
L 9.578125 56.25 
Q 19.09375 57.171875 22.84375 59.34375 
Q 26.609375 61.53125 28.46875 69.625 
L 35.40625 69.625 
L 35.40625 0 
L 26.03125 0 
L 26.03125 49.515625 
z
" id="Helvetica-31"/>
       <path d="M 3.125 0 
Q 3.609375 9.03125 6.859375 15.71875 
Q 10.109375 22.40625 19.53125 27.875 
L 28.90625 33.296875 
Q 35.203125 36.96875 37.75 39.546875 
Q 41.75 43.609375 41.75 48.828125 
Q 41.75 54.9375 38.078125 58.515625 
Q 34.421875 62.109375 28.328125 62.109375 
Q 19.28125 62.109375 15.828125 55.28125 
Q 13.96875 51.609375 13.765625 45.125 
L 4.828125 45.125 
Q 4.984375 54.25 8.203125 60.015625 
Q 13.921875 70.171875 28.375 70.171875 
Q 40.375 70.171875 45.921875 63.671875 
Q 51.46875 57.171875 51.46875 49.21875 
Q 51.46875 40.828125 45.5625 34.859375 
Q 42.140625 31.390625 33.296875 26.46875 
L 26.609375 22.75 
Q 21.828125 20.125 19.09375 17.71875 
Q 14.203125 13.484375 12.9375 8.296875 
L 51.125 8.296875 
L 51.125 0 
L 3.125 0 
z
" id="Helvetica-32"/>
      </defs>
      <g style="fill:#ffffff;" transform="translate(205.877478 455.9775)scale(0.16 -0.16)">
       <use transform="translate(0 0.271875)" xlink:href="#Helvetica-31"/>
       <use transform="translate(55.615234 0.271875)" xlink:href="#Helvetica-30"/>
       <use transform="translate(112.145664 36.879688)scale(0.7)" xlink:href="#Helvetica-32"/>
      </g>
     </g>
    </g>
    <g id="xtick_30">
     <g id="line2d_64">
      <g>
       <use style="fill:#ffffff;stroke:#ffffff;stroke-width:1.2;" x="401.606604" xlink:href="#m3652ef9fcd" y="441"/>
      </g>
     </g>
     <g id="line2d_65">
      <g>
       <use style="fill:#ffffff;stroke:#ffffff;stroke-width:1.2;" x="401.606604" xlink:href="#m7f7fad3cb8" y="268.036364"/>
      </g>
     </g>
     <g id="text_6">
      <!-- $\mathdefault{10^{3}}$ -->
      <defs>
       <path d="M 25.984375 -1.90625 
Q 13.578125 -1.90625 7.984375 4.90625 
Q 2.390625 11.71875 2.390625 21.484375 
L 11.578125 21.484375 
Q 12.15625 14.703125 14.109375 11.625 
Q 17.53125 6.109375 26.46875 6.109375 
Q 33.40625 6.109375 37.59375 9.8125 
Q 41.796875 13.53125 41.796875 19.390625 
Q 41.796875 26.609375 37.375 29.484375 
Q 32.953125 32.375 25.09375 32.375 
Q 24.21875 32.375 23.3125 32.34375 
Q 22.40625 32.328125 21.484375 32.28125 
L 21.484375 40.046875 
Q 22.859375 39.890625 23.78125 39.84375 
Q 24.703125 39.796875 25.78125 39.796875 
Q 30.71875 39.796875 33.890625 41.359375 
Q 39.453125 44.09375 39.453125 51.125 
Q 39.453125 56.34375 35.734375 59.171875 
Q 32.03125 62.015625 27.09375 62.015625 
Q 18.3125 62.015625 14.9375 56.15625 
Q 13.09375 52.9375 12.84375 46.96875 
L 4.15625 46.96875 
Q 4.15625 54.78125 7.28125 60.25 
Q 12.640625 70.015625 26.171875 70.015625 
Q 36.859375 70.015625 42.71875 65.25 
Q 48.578125 60.5 48.578125 51.46875 
Q 48.578125 45.015625 45.125 41.015625 
Q 42.96875 38.53125 39.546875 37.109375 
Q 45.0625 35.59375 48.15625 31.265625 
Q 51.265625 26.953125 51.265625 20.703125 
Q 51.265625 10.6875 44.671875 4.390625 
Q 38.09375 -1.90625 25.984375 -1.90625 
z
" id="Helvetica-33"/>
      </defs>
      <g style="fill:#ffffff;" transform="translate(389.286604 455.9775)scale(0.16 -0.16)">
       <use transform="translate(0 0.38125)" xlink:href="#Helvetica-31"/>
       <use transform="translate(55.615234 0.38125)" xlink:href="#Helvetica-30"/>
       <use transform="translate(112.145664 36.989063)scale(0.7)" xlink:href="#Helvetica-33"/>
      </g>
     </g>
    </g>
    <g id="xtick_31">
     <g id="line2d_66">
      <g>
       <use style="fill:#ffffff;stroke:#ffffff;stroke-width:1.2;" x="585.01573" xlink:href="#m3652ef9fcd" y="441"/>
      </g>
     </g>
     <g id="line2d_67">
      <g>
       <use style="fill:#ffffff;stroke:#ffffff;stroke-width:1.2;" x="585.01573" xlink:href="#m7f7fad3cb8" y="268.036364"/>
      </g>
     </g>
     <g id="text_7">
      <!-- $\mathdefault{10^{4}}$ -->
      <defs>
       <path d="M 33.0625 24.75 
L 33.0625 56.453125 
L 10.640625 24.75 
z
M 33.203125 0 
L 33.203125 17.09375 
L 2.546875 17.09375 
L 2.546875 25.6875 
L 34.578125 70.125 
L 42 70.125 
L 42 24.75 
L 52.296875 24.75 
L 52.296875 17.09375 
L 42 17.09375 
L 42 0 
z
" id="Helvetica-34"/>
      </defs>
      <g style="fill:#ffffff;" transform="translate(572.69573 455.9775)scale(0.16 -0.16)">
       <use transform="translate(0 0.304688)" xlink:href="#Helvetica-31"/>
       <use transform="translate(55.615234 0.304688)" xlink:href="#Helvetica-30"/>
       <use transform="translate(112.145664 36.9125)scale(0.7)" xlink:href="#Helvetica-34"/>
      </g>
     </g>
    </g>
    <g id="xtick_32">
     <g id="line2d_68">
      <g>
       <use style="fill:#ffffff;stroke:#ffffff;stroke-width:0.8;" x="90" xlink:href="#m96aa3fdf03" y="441"/>
      </g>
     </g>
     <g id="line2d_69">
      <g>
       <use style="fill:#ffffff;stroke:#ffffff;stroke-width:0.8;" x="90" xlink:href="#m4910e4009d" y="268.036364"/>
      </g>
     </g>
    </g>
    <g id="xtick_33">
     <g id="line2d_70">
      <g>
       <use style="fill:#ffffff;stroke:#ffffff;stroke-width:0.8;" x="122.296744" xlink:href="#m96aa3fdf03" y="441"/>
      </g>
     </g>
     <g id="line2d_71">
      <g>
       <use style="fill:#ffffff;stroke:#ffffff;stroke-width:0.8;" x="122.296744" xlink:href="#m4910e4009d" y="268.036364"/>
      </g>
     </g>
    </g>
    <g id="xtick_34">
     <g id="line2d_72">
      <g>
       <use style="fill:#ffffff;stroke:#ffffff;stroke-width:0.8;" x="145.211648" xlink:href="#m96aa3fdf03" y="441"/>
      </g>
     </g>
     <g id="line2d_73">
      <g>
       <use style="fill:#ffffff;stroke:#ffffff;stroke-width:0.8;" x="145.211648" xlink:href="#m4910e4009d" y="268.036364"/>
      </g>
     </g>
    </g>
    <g id="xtick_35">
     <g id="line2d_74">
      <g>
       <use style="fill:#ffffff;stroke:#ffffff;stroke-width:0.8;" x="162.985829" xlink:href="#m96aa3fdf03" y="441"/>
      </g>
     </g>
     <g id="line2d_75">
      <g>
       <use style="fill:#ffffff;stroke:#ffffff;stroke-width:0.8;" x="162.985829" xlink:href="#m4910e4009d" y="268.036364"/>
      </g>
     </g>
    </g>
    <g id="xtick_36">
     <g id="line2d_76">
      <g>
       <use style="fill:#ffffff;stroke:#ffffff;stroke-width:0.8;" x="177.508392" xlink:href="#m96aa3fdf03" y="441"/>
      </g>
     </g>
     <g id="line2d_77">
      <g>
       <use style="fill:#ffffff;stroke:#ffffff;stroke-width:0.8;" x="177.508392" xlink:href="#m4910e4009d" y="268.036364"/>
      </g>
     </g>
    </g>
    <g id="xtick_37">
     <g id="line2d_78">
      <g>
       <use style="fill:#ffffff;stroke:#ffffff;stroke-width:0.8;" x="189.787045" xlink:href="#m96aa3fdf03" y="441"/>
      </g>
     </g>
     <g id="line2d_79">
      <g>
       <use style="fill:#ffffff;stroke:#ffffff;stroke-width:0.8;" x="189.787045" xlink:href="#m4910e4009d" y="268.036364"/>
      </g>
     </g>
    </g>
    <g id="xtick_38">
     <g id="line2d_80">
      <g>
       <use style="fill:#ffffff;stroke:#ffffff;stroke-width:0.8;" x="200.423297" xlink:href="#m96aa3fdf03" y="441"/>
      </g>
     </g>
     <g id="line2d_81">
      <g>
       <use style="fill:#ffffff;stroke:#ffffff;stroke-width:0.8;" x="200.423297" xlink:href="#m4910e4009d" y="268.036364"/>
      </g>
     </g>
    </g>
    <g id="xtick_39">
     <g id="line2d_82">
      <g>
       <use style="fill:#ffffff;stroke:#ffffff;stroke-width:0.8;" x="209.805136" xlink:href="#m96aa3fdf03" y="441"/>
      </g>
     </g>
     <g id="line2d_83">
      <g>
       <use style="fill:#ffffff;stroke:#ffffff;stroke-width:0.8;" x="209.805136" xlink:href="#m4910e4009d" y="268.036364"/>
      </g>
     </g>
    </g>
    <g id="xtick_40">
     <g id="line2d_84">
      <g>
       <use style="fill:#ffffff;stroke:#ffffff;stroke-width:0.8;" x="273.409126" xlink:href="#m96aa3fdf03" y="441"/>
      </g>
     </g>
     <g id="line2d_85">
      <g>
       <use style="fill:#ffffff;stroke:#ffffff;stroke-width:0.8;" x="273.409126" xlink:href="#m4910e4009d" y="268.036364"/>
      </g>
     </g>
    </g>
    <g id="xtick_41">
     <g id="line2d_86">
      <g>
       <use style="fill:#ffffff;stroke:#ffffff;stroke-width:0.8;" x="305.70587" xlink:href="#m96aa3fdf03" y="441"/>
      </g>
     </g>
     <g id="line2d_87">
      <g>
       <use style="fill:#ffffff;stroke:#ffffff;stroke-width:0.8;" x="305.70587" xlink:href="#m4910e4009d" y="268.036364"/>
      </g>
     </g>
    </g>
    <g id="xtick_42">
     <g id="line2d_88">
      <g>
       <use style="fill:#ffffff;stroke:#ffffff;stroke-width:0.8;" x="328.620775" xlink:href="#m96aa3fdf03" y="441"/>
      </g>
     </g>
     <g id="line2d_89">
      <g>
       <use style="fill:#ffffff;stroke:#ffffff;stroke-width:0.8;" x="328.620775" xlink:href="#m4910e4009d" y="268.036364"/>
      </g>
     </g>
    </g>
    <g id="xtick_43">
     <g id="line2d_90">
      <g>
       <use style="fill:#ffffff;stroke:#ffffff;stroke-width:0.8;" x="346.394955" xlink:href="#m96aa3fdf03" y="441"/>
      </g>
     </g>
     <g id="line2d_91">
      <g>
       <use style="fill:#ffffff;stroke:#ffffff;stroke-width:0.8;" x="346.394955" xlink:href="#m4910e4009d" y="268.036364"/>
      </g>
     </g>
    </g>
    <g id="xtick_44">
     <g id="line2d_92">
      <g>
       <use style="fill:#ffffff;stroke:#ffffff;stroke-width:0.8;" x="360.917518" xlink:href="#m96aa3fdf03" y="441"/>
      </g>
     </g>
     <g id="line2d_93">
      <g>
       <use style="fill:#ffffff;stroke:#ffffff;stroke-width:0.8;" x="360.917518" xlink:href="#m4910e4009d" y="268.036364"/>
      </g>
     </g>
    </g>
    <g id="xtick_45">
     <g id="line2d_94">
      <g>
       <use style="fill:#ffffff;stroke:#ffffff;stroke-width:0.8;" x="373.196171" xlink:href="#m96aa3fdf03" y="441"/>
      </g>
     </g>
     <g id="line2d_95">
      <g>
       <use style="fill:#ffffff;stroke:#ffffff;stroke-width:0.8;" x="373.196171" xlink:href="#m4910e4009d" y="268.036364"/>
      </g>
     </g>
    </g>
    <g id="xtick_46">
     <g id="line2d_96">
      <g>
       <use style="fill:#ffffff;stroke:#ffffff;stroke-width:0.8;" x="383.832423" xlink:href="#m96aa3fdf03" y="441"/>
      </g>
     </g>
     <g id="line2d_97">
      <g>
       <use style="fill:#ffffff;stroke:#ffffff;stroke-width:0.8;" x="383.832423" xlink:href="#m4910e4009d" y="268.036364"/>
      </g>
     </g>
    </g>
    <g id="xtick_47">
     <g id="line2d_98">
      <g>
       <use style="fill:#ffffff;stroke:#ffffff;stroke-width:0.8;" x="393.214262" xlink:href="#m96aa3fdf03" y="441"/>
      </g>
     </g>
     <g id="line2d_99">
      <g>
       <use style="fill:#ffffff;stroke:#ffffff;stroke-width:0.8;" x="393.214262" xlink:href="#m4910e4009d" y="268.036364"/>
      </g>
     </g>
    </g>
    <g id="xtick_48">
     <g id="line2d_100">
      <g>
       <use style="fill:#ffffff;stroke:#ffffff;stroke-width:0.8;" x="456.818252" xlink:href="#m96aa3fdf03" y="441"/>
      </g>
     </g>
     <g id="line2d_101">
      <g>
       <use style="fill:#ffffff;stroke:#ffffff;stroke-width:0.8;" x="456.818252" xlink:href="#m4910e4009d" y="268.036364"/>
      </g>
     </g>
    </g>
    <g id="xtick_49">
     <g id="line2d_102">
      <g>
       <use style="fill:#ffffff;stroke:#ffffff;stroke-width:0.8;" x="489.114996" xlink:href="#m96aa3fdf03" y="441"/>
      </g>
     </g>
     <g id="line2d_103">
      <g>
       <use style="fill:#ffffff;stroke:#ffffff;stroke-width:0.8;" x="489.114996" xlink:href="#m4910e4009d" y="268.036364"/>
      </g>
     </g>
    </g>
    <g id="xtick_50">
     <g id="line2d_104">
      <g>
       <use style="fill:#ffffff;stroke:#ffffff;stroke-width:0.8;" x="512.029901" xlink:href="#m96aa3fdf03" y="441"/>
      </g>
     </g>
     <g id="line2d_105">
      <g>
       <use style="fill:#ffffff;stroke:#ffffff;stroke-width:0.8;" x="512.029901" xlink:href="#m4910e4009d" y="268.036364"/>
      </g>
     </g>
    </g>
    <g id="xtick_51">
     <g id="line2d_106">
      <g>
       <use style="fill:#ffffff;stroke:#ffffff;stroke-width:0.8;" x="529.804081" xlink:href="#m96aa3fdf03" y="441"/>
      </g>
     </g>
     <g id="line2d_107">
      <g>
       <use style="fill:#ffffff;stroke:#ffffff;stroke-width:0.8;" x="529.804081" xlink:href="#m4910e4009d" y="268.036364"/>
      </g>
     </g>
    </g>
    <g id="xtick_52">
     <g id="line2d_108">
      <g>
       <use style="fill:#ffffff;stroke:#ffffff;stroke-width:0.8;" x="544.326645" xlink:href="#m96aa3fdf03" y="441"/>
      </g>
     </g>
     <g id="line2d_109">
      <g>
       <use style="fill:#ffffff;stroke:#ffffff;stroke-width:0.8;" x="544.326645" xlink:href="#m4910e4009d" y="268.036364"/>
      </g>
     </g>
    </g>
    <g id="xtick_53">
     <g id="line2d_110">
      <g>
       <use style="fill:#ffffff;stroke:#ffffff;stroke-width:0.8;" x="556.605297" xlink:href="#m96aa3fdf03" y="441"/>
      </g>
     </g>
     <g id="line2d_111">
      <g>
       <use style="fill:#ffffff;stroke:#ffffff;stroke-width:0.8;" x="556.605297" xlink:href="#m4910e4009d" y="268.036364"/>
      </g>
     </g>
    </g>
    <g id="xtick_54">
     <g id="line2d_112">
      <g>
       <use style="fill:#ffffff;stroke:#ffffff;stroke-width:0.8;" x="567.241549" xlink:href="#m96aa3fdf03" y="441"/>
      </g>
     </g>
     <g id="line2d_113">
      <g>
       <use style="fill:#ffffff;stroke:#ffffff;stroke-width:0.8;" x="567.241549" xlink:href="#m4910e4009d" y="268.036364"/>
      </g>
     </g>
    </g>
    <g id="xtick_55">
     <g id="line2d_114">
      <g>
       <use style="fill:#ffffff;stroke:#ffffff;stroke-width:0.8;" x="576.623389" xlink:href="#m96aa3fdf03" y="441"/>
      </g>
     </g>
     <g id="line2d_115">
      <g>
       <use style="fill:#ffffff;stroke:#ffffff;stroke-width:0.8;" x="576.623389" xlink:href="#m4910e4009d" y="268.036364"/>
      </g>
     </g>
    </g>
    <g id="xtick_56">
     <g id="line2d_116">
      <g>
       <use style="fill:#ffffff;stroke:#ffffff;stroke-width:0.8;" x="640.227378" xlink:href="#m96aa3fdf03" y="441"/>
      </g>
     </g>
     <g id="line2d_117">
      <g>
       <use style="fill:#ffffff;stroke:#ffffff;stroke-width:0.8;" x="640.227378" xlink:href="#m4910e4009d" y="268.036364"/>
      </g>
     </g>
    </g>
    <g id="text_8">
     <!-- Frequency (Hz) -->
     <g style="fill:#ffffff;" transform="translate(300.098437 475.89375)scale(0.2 -0.2)">
      <use xlink:href="#Helvetica-46"/>
      <use x="61.083984" xlink:href="#Helvetica-72"/>
      <use x="94.384766" xlink:href="#Helvetica-65"/>
      <use x="150" xlink:href="#Helvetica-71"/>
      <use x="205.615234" xlink:href="#Helvetica-75"/>
      <use x="261.230469" xlink:href="#Helvetica-65"/>
      <use x="316.845703" xlink:href="#Helvetica-6e"/>
      <use x="372.460938" xlink:href="#Helvetica-63"/>
      <use x="422.460938" xlink:href="#Helvetica-79"/>
      <use x="472.460938" xlink:href="#Helvetica-20"/>
      <use x="500.244141" xlink:href="#Helvetica-28"/>
      <use x="533.544922" xlink:href="#Helvetica-48"/>
      <use x="605.761719" xlink:href="#Helvetica-7a"/>
      <use x="655.761719" xlink:href="#Helvetica-29"/>
     </g>
    </g>
   </g>
   <g id="matplotlib.axis_4">
    <g id="ytick_3">
     <g id="line2d_118">
      <g>
       <use style="fill:#ffffff;stroke:#ffffff;stroke-width:1.2;" x="90" xlink:href="#ma866647510" y="433.138017"/>
      </g>
     </g>
     <g id="line2d_119">
      <g>
       <use style="fill:#ffffff;stroke:#ffffff;stroke-width:1.2;" x="648" xlink:href="#mcd017db612" y="433.138017"/>
      </g>
     </g>
     <g id="text_9">
      <!-- 0 -->
      <g style="fill:#ffffff;" transform="translate(77.6025 438.876767)scale(0.16 -0.16)">
       <use xlink:href="#Helvetica-30"/>
      </g>
     </g>
    </g>
    <g id="ytick_4">
     <g id="line2d_120">
      <g>
       <use style="fill:#ffffff;stroke:#ffffff;stroke-width:1.2;" x="90" xlink:href="#ma866647510" y="364.861028"/>
      </g>
     </g>
     <g id="line2d_121">
      <g>
       <use style="fill:#ffffff;stroke:#ffffff;stroke-width:1.2;" x="648" xlink:href="#mcd017db612" y="364.861028"/>
      </g>
     </g>
     <g id="text_10">
      <!-- 2 -->
      <g style="fill:#ffffff;" transform="translate(77.6025 370.599778)scale(0.16 -0.16)">
       <use xlink:href="#Helvetica-32"/>
      </g>
     </g>
    </g>
    <g id="ytick_5">
     <g id="line2d_122">
      <g>
       <use style="fill:#ffffff;stroke:#ffffff;stroke-width:1.2;" x="90" xlink:href="#ma866647510" y="296.584039"/>
      </g>
     </g>
     <g id="line2d_123">
      <g>
       <use style="fill:#ffffff;stroke:#ffffff;stroke-width:1.2;" x="648" xlink:href="#mcd017db612" y="296.584039"/>
      </g>
     </g>
     <g id="text_11">
      <!-- 4 -->
      <g style="fill:#ffffff;" transform="translate(77.6025 302.322789)scale(0.16 -0.16)">
       <use xlink:href="#Helvetica-34"/>
      </g>
     </g>
    </g>
    <g id="text_12">
     <!-- I$_{RMS}$*R$_{SET}$ ($\mu V$) -->
     <defs>
      <path d="M 9.8125 71.734375 
L 19.625 71.734375 
L 19.625 0 
L 9.8125 0 
z
" id="Helvetica-49"/>
      <path d="M 40.96875 38.875 
Q 47.796875 38.875 51.78125 41.609375 
Q 55.765625 44.34375 55.765625 51.46875 
Q 55.765625 59.125 50.203125 61.921875 
Q 47.21875 63.375 42.234375 63.375 
L 18.5 63.375 
L 18.5 38.875 
z
M 8.796875 71.734375 
L 42 71.734375 
Q 50.203125 71.734375 55.515625 69.34375 
Q 65.625 64.75 65.625 52.390625 
Q 65.625 45.953125 62.953125 41.84375 
Q 60.296875 37.75 55.515625 35.25 
Q 59.71875 33.546875 61.84375 30.765625 
Q 63.96875 27.984375 64.203125 21.734375 
L 64.546875 12.109375 
Q 64.703125 8.015625 65.234375 6 
Q 66.109375 2.59375 68.359375 1.609375 
L 68.359375 0 
L 56.453125 0 
Q 55.953125 0.921875 55.65625 2.390625 
Q 55.375 3.859375 55.171875 8.0625 
L 54.59375 20.015625 
Q 54.25 27.046875 49.359375 29.4375 
Q 46.578125 30.765625 40.625 30.765625 
L 18.5 30.765625 
L 18.5 0 
L 8.796875 0 
z
" id="Helvetica-52"/>
      <path d="M 7.375 71.734375 
L 21.296875 71.734375 
L 41.890625 11.078125 
L 62.359375 71.734375 
L 76.125 71.734375 
L 76.125 0 
L 66.890625 0 
L 66.890625 42.328125 
Q 66.890625 44.53125 66.984375 49.609375 
Q 67.09375 54.6875 67.09375 60.5 
L 46.625 0 
L 37.015625 0 
L 16.40625 60.5 
L 16.40625 58.296875 
Q 16.40625 55.671875 16.53125 50.265625 
Q 16.65625 44.875 16.65625 42.328125 
L 16.65625 0 
L 7.375 0 
z
" id="Helvetica-4d"/>
      <path d="M 13.96875 23.140625 
Q 14.3125 17.046875 16.84375 13.234375 
Q 21.6875 6.109375 33.890625 6.109375 
Q 39.359375 6.109375 43.84375 7.671875 
Q 52.546875 10.6875 52.546875 18.5 
Q 52.546875 24.359375 48.875 26.859375 
Q 45.171875 29.296875 37.25 31.109375 
L 27.546875 33.296875 
Q 18.015625 35.453125 14.0625 38.03125 
Q 7.234375 42.53125 7.234375 51.46875 
Q 7.234375 61.140625 13.921875 67.328125 
Q 20.609375 73.53125 32.859375 73.53125 
Q 44.140625 73.53125 52.015625 68.078125 
Q 59.90625 62.640625 59.90625 50.6875 
L 50.78125 50.6875 
Q 50.046875 56.453125 47.65625 59.515625 
Q 43.21875 65.140625 32.5625 65.140625 
Q 23.96875 65.140625 20.203125 61.515625 
Q 16.453125 57.90625 16.453125 53.125 
Q 16.453125 47.859375 20.84375 45.40625 
Q 23.734375 43.84375 33.890625 41.5 
L 43.953125 39.203125 
Q 51.21875 37.546875 55.171875 34.671875 
Q 62.015625 29.640625 62.015625 20.0625 
Q 62.015625 8.15625 53.34375 3.03125 
Q 44.671875 -2.09375 33.203125 -2.09375 
Q 19.828125 -2.09375 12.25 4.734375 
Q 4.6875 11.53125 4.828125 23.140625 
z
M 33.59375 73.6875 
z
" id="Helvetica-53"/>
      <path d="M 21.96875 71.734375 
L 21.96875 60.84375 
L 32.625 64.546875 
L 34.578125 59.125 
L 23.921875 55.671875 
L 30.515625 46.484375 
L 25.6875 43.015625 
L 19.28125 52.546875 
L 12.84375 43.015625 
L 7.859375 46.484375 
L 14.546875 55.671875 
L 3.8125 59.125 
L 5.765625 64.546875 
L 16.3125 60.75 
L 16.3125 71.734375 
z
" id="Helvetica-2a"/>
      <path d="M 8.546875 71.734375 
L 60.84375 71.734375 
L 60.84375 62.9375 
L 18.015625 62.9375 
L 18.015625 41.15625 
L 57.625 41.15625 
L 57.625 32.859375 
L 18.015625 32.859375 
L 18.015625 8.546875 
L 61.578125 8.546875 
L 61.578125 0 
L 8.546875 0 
z
M 35.0625 71.734375 
z
" id="Helvetica-45"/>
      <path d="M 59.8125 71.734375 
L 59.8125 63.1875 
L 35.640625 63.1875 
L 35.640625 0 
L 25.78125 0 
L 25.78125 63.1875 
L 1.609375 63.1875 
L 1.609375 71.734375 
z
" id="Helvetica-54"/>
      <path d="M 8.984375 52 
L 18.015625 52 
L 18.015625 21.390625 
Q 17.921875 14.59375 20.703125 10.796875 
Q 23.390625 6.78125 30.515625 6.78125 
Q 37.796875 6.78125 40.484375 10.890625 
Q 43.109375 14.703125 43.109375 21.390625 
L 43.109375 52 
L 52.09375 52 
L 52.09375 12.59375 
Q 51.8125 6.78125 55.421875 6.78125 
Q 56.78125 6.78125 58.203125 7.078125 
L 58.203125 0 
Q 56.890625 -0.875 52.6875 -0.984375 
Q 48.578125 -0.6875 46.78125 0.984375 
Q 44.875 2.59375 43.796875 6 
Q 39.109375 -0.78125 30.71875 -0.984375 
Q 23.484375 -0.984375 18.21875 5.609375 
L 18.015625 5.609375 
L 18.015625 -19.578125 
L 8.984375 -19.578125 
z
" id="Helvetica-3bc"/>
      <path d="M 13.28125 71.734375 
L 33.890625 10.640625 
L 54.25 71.734375 
L 65.140625 71.734375 
L 38.96875 0 
L 28.65625 0 
L 2.546875 71.734375 
z
" id="Helvetica-56"/>
     </defs>
     <g style="fill:#ffffff;" transform="translate(71.4025 420.518182)rotate(-90)scale(0.2 -0.2)">
      <use transform="translate(0 0.09375)" xlink:href="#Helvetica-49"/>
      <use transform="translate(28.698398 -15.595313)scale(0.7)" xlink:href="#Helvetica-52"/>
      <use transform="translate(79.250156 -15.595313)scale(0.7)" xlink:href="#Helvetica-4d"/>
      <use transform="translate(137.560703 -15.595313)scale(0.7)" xlink:href="#Helvetica-53"/>
      <use transform="translate(186.865 0.09375)" xlink:href="#Helvetica-2a"/>
      <use transform="translate(225.781016 0.09375)" xlink:href="#Helvetica-52"/>
      <use transform="translate(298.913008 -15.595313)scale(0.7)" xlink:href="#Helvetica-53"/>
      <use transform="translate(345.602461 -15.595313)scale(0.7)" xlink:href="#Helvetica-45"/>
      <use transform="translate(392.291914 -15.595313)scale(0.7)" xlink:href="#Helvetica-54"/>
      <use transform="translate(437.665547 0.09375)" xlink:href="#Helvetica-20"/>
      <use transform="translate(465.44875 0.09375)" xlink:href="#Helvetica-28"/>
      <use transform="translate(498.749531 0.09375)" xlink:href="#Helvetica-3bc"/>
      <use transform="translate(559.833516 0.09375)" xlink:href="#Helvetica-56"/>
      <use transform="translate(626.532734 0.09375)" xlink:href="#Helvetica-29"/>
     </g>
    </g>
   </g>
   <g id="line2d_124">
    <path clip-path="url(#p116cb1ce97)" d="M -1 433.138017 
L 6.385144 433.138017 
L 26.403235 431.894989 
L 42.387373 431.29952 
L 85.921531 430.98791 
L 107.781406 430.322141 
L 113.911628 422.824359 
L 119.603589 415.319717 
L 124.915796 412.322767 
L 139.008958 412.268536 
L 167.634381 412.165721 
L 181.401928 412.139528 
L 195.289798 412.077394 
L 201.42002 411.943084 
L 240.920224 411.861049 
L 244.434922 411.807704 
L 304.91255 411.724478 
L 305.978166 404.602008 
L 306.505675 404.096443 
L 343.646848 404.038641 
L 344.303789 403.980953 
L 346.242714 403.888999 
L 346.878674 403.736266 
L 355.001352 403.736266 
L 355.286849 403.274354 
L 356.137251 401.242386 
L 356.418713 400.851628 
L 356.699184 400.736771 
L 356.97867 399.830031 
L 357.257179 388.949518 
L 357.811294 360.652514 
L 358.086912 356.14117 
L 358.361579 354.827662 
L 358.90809 354.758867 
L 363.921061 354.662499 
L 364.176361 353.819812 
L 364.430846 350.42238 
L 365.189457 324.845864 
L 365.44073 323.692461 
L 365.691213 321.633486 
L 365.940911 320.723373 
L 366.931948 320.651052 
L 367.422881 320.49565 
L 367.910806 320.208002 
L 368.153653 320.18677 
L 368.395761 319.622096 
L 368.637136 315.11029 
L 368.877781 307.920323 
L 369.117702 304.364705 
L 369.595386 303.206147 
L 369.833158 303.023198 
L 370.306583 303.023198 
L 370.542245 302.836704 
L 371.011487 301.738443 
L 371.245075 301.521447 
L 372.6324 301.499544 
L 373.317105 301.499544 
L 373.770328 301.207826 
L 375.998545 301.207826 
L 376.217976 300.984961 
L 376.872667 299.342873 
L 377.089707 297.53113 
L 377.52202 284.009137 
L 377.7373 283.669629 
L 382.736812 283.619351 
L 382.938467 283.412977 
L 383.340251 281.757178 
L 389.692814 281.684584 
L 390.062008 281.612026 
L 402.956559 281.532368 
L 403.42511 281.266649 
L 407.670263 281.208528 
L 408.111966 281.140356 
L 410.284471 281.095375 
L 410.995668 280.45896 
L 411.137149 280.192269 
L 411.560089 280.144406 
L 411.840807 277.197967 
L 428.130058 277.103834 
L 428.358129 276.914367 
L 428.471919 276.914367 
L 428.81232 276.153535 
L 528.994668 276.0426 
L 529.283851 276.011436 
L 635.208498 275.901508 
L 635.892768 275.900107 
L 647.989161 275.898347 
L 647.989161 275.898347 
" style="fill:none;stroke:#8dd3c7;stroke-linecap:square;stroke-width:2;"/>
   </g>
   <g id="patch_8">
    <path d="M 90 441 
L 90 268.036364 
" style="fill:none;stroke:#ffffff;stroke-linecap:square;stroke-linejoin:miter;stroke-width:1.2;"/>
   </g>
   <g id="patch_9">
    <path d="M 648 441 
L 648 268.036364 
" style="fill:none;stroke:#ffffff;stroke-linecap:square;stroke-linejoin:miter;stroke-width:1.2;"/>
   </g>
   <g id="patch_10">
    <path d="M 90 441 
L 648 441 
" style="fill:none;stroke:#ffffff;stroke-linecap:square;stroke-linejoin:miter;stroke-width:1.2;"/>
   </g>
   <g id="patch_11">
    <path d="M 90 268.036364 
L 648 268.036364 
" style="fill:none;stroke:#ffffff;stroke-linecap:square;stroke-linejoin:miter;stroke-width:1.2;"/>
   </g>
  </g>
 </g>
 <defs>
  <clipPath id="pd5029036c7">
   <rect height="172.963636" width="558" x="90" y="60.48"/>
  </clipPath>
  <clipPath id="p116cb1ce97">
   <rect height="172.963636" width="558" x="90" y="268.036364"/>
  </clipPath>
 </defs>
</svg>
