<?xml version="1.0" encoding="utf-8" standalone="no"?>
<!DOCTYPE svg PUBLIC "-//W3C//DTD SVG 1.1//EN"
  "http://www.w3.org/Graphics/SVG/1.1/DTD/svg11.dtd">
<!-- Created with matplotlib (http://matplotlib.org/) -->
<svg height="288pt" version="1.1" viewBox="0 0 612 288" width="612pt" xmlns="http://www.w3.org/2000/svg" xmlns:xlink="http://www.w3.org/1999/xlink">
 <defs>
  <style type="text/css">
*{stroke-linecap:butt;stroke-linejoin:round;}
  </style>
 </defs>
 <g id="figure_1">
  <g id="patch_1">
   <path d="M 0 288 
L 612 288 
L 612 0 
L 0 0 
z
" style="fill:none;"/>
  </g>
  <g id="axes_1">
   <g id="patch_2">
    <path d="M 74.08 224.468 
L 319.663917 224.468 
L 319.663917 19.650005 
L 74.08 19.650005 
z
" style="fill:none;"/>
   </g>
   <g id="matplotlib.axis_1">
    <g id="xtick_1">
     <g id="line2d_1">
      <defs>
       <path d="M 0 0 
L 0 -5 
" id="m69f5c1351b" style="stroke:#ffffff;stroke-width:1.2;"/>
      </defs>
      <g>
       <use style="fill:#ffffff;stroke:#ffffff;stroke-width:1.2;" x="78.372536" xlink:href="#m69f5c1351b" y="224.468"/>
      </g>
     </g>
     <g id="line2d_2">
      <defs>
       <path d="M 0 0 
L 0 5 
" id="m8142cb114e" style="stroke:#ffffff;stroke-width:1.2;"/>
      </defs>
      <g>
       <use style="fill:#ffffff;stroke:#ffffff;stroke-width:1.2;" x="78.372536" xlink:href="#m8142cb114e" y="19.650005"/>
      </g>
     </g>
     <g id="text_1">
      <!-- $\mathdefault{10^{1}}$ -->
      <defs>
       <path d="M 9.578125 49.515625 
L 9.578125 56.25 
Q 19.09375 57.171875 22.84375 59.34375 
Q 26.609375 61.53125 28.46875 69.625 
L 35.40625 69.625 
L 35.40625 0 
L 26.03125 0 
L 26.03125 49.515625 
z
" id="Helvetica-31"/>
       <path d="M 27.046875 69.921875 
Q 40.625 69.921875 46.6875 58.734375 
Q 51.375 50.09375 51.375 35.0625 
Q 51.375 20.796875 47.125 11.46875 
Q 40.96875 -1.90625 27 -1.90625 
Q 14.40625 -1.90625 8.25 9.03125 
Q 3.125 18.171875 3.125 33.546875 
Q 3.125 45.453125 6.203125 54 
Q 11.96875 69.921875 27.046875 69.921875 
z
M 26.953125 6.109375 
Q 33.796875 6.109375 37.84375 12.15625 
Q 41.890625 18.21875 41.890625 34.71875 
Q 41.890625 46.625 38.953125 54.3125 
Q 36.03125 62.015625 27.59375 62.015625 
Q 19.828125 62.015625 16.234375 54.703125 
Q 12.640625 47.40625 12.640625 33.203125 
Q 12.640625 22.515625 14.9375 16.015625 
Q 18.453125 6.109375 26.953125 6.109375 
z
" id="Helvetica-30"/>
      </defs>
      <g style="fill:#ffffff;" transform="translate(66.052536 239.4455)scale(0.16 -0.16)">
       <use transform="translate(0 0.654688)" xlink:href="#Helvetica-31"/>
       <use transform="translate(55.615234 0.654688)" xlink:href="#Helvetica-30"/>
       <use transform="translate(112.145664 37.2625)scale(0.7)" xlink:href="#Helvetica-31"/>
      </g>
     </g>
    </g>
    <g id="xtick_2">
     <g id="line2d_3">
      <g>
       <use style="fill:#ffffff;stroke:#ffffff;stroke-width:1.2;" x="179.597992" xlink:href="#m69f5c1351b" y="224.468"/>
      </g>
     </g>
     <g id="line2d_4">
      <g>
       <use style="fill:#ffffff;stroke:#ffffff;stroke-width:1.2;" x="179.597992" xlink:href="#m8142cb114e" y="19.650005"/>
      </g>
     </g>
     <g id="text_2">
      <!-- $\mathdefault{10^{2}}$ -->
      <defs>
       <path d="M 3.125 0 
Q 3.609375 9.03125 6.859375 15.71875 
Q 10.109375 22.40625 19.53125 27.875 
L 28.90625 33.296875 
Q 35.203125 36.96875 37.75 39.546875 
Q 41.75 43.609375 41.75 48.828125 
Q 41.75 54.9375 38.078125 58.515625 
Q 34.421875 62.109375 28.328125 62.109375 
Q 19.28125 62.109375 15.828125 55.28125 
Q 13.96875 51.609375 13.765625 45.125 
L 4.828125 45.125 
Q 4.984375 54.25 8.203125 60.015625 
Q 13.921875 70.171875 28.375 70.171875 
Q 40.375 70.171875 45.921875 63.671875 
Q 51.46875 57.171875 51.46875 49.21875 
Q 51.46875 40.828125 45.5625 34.859375 
Q 42.140625 31.390625 33.296875 26.46875 
L 26.609375 22.75 
Q 21.828125 20.125 19.09375 17.71875 
Q 14.203125 13.484375 12.9375 8.296875 
L 51.125 8.296875 
L 51.125 0 
L 3.125 0 
z
" id="Helvetica-32"/>
      </defs>
      <g style="fill:#ffffff;" transform="translate(167.277992 239.4455)scale(0.16 -0.16)">
       <use transform="translate(0 0.271875)" xlink:href="#Helvetica-31"/>
       <use transform="translate(55.615234 0.271875)" xlink:href="#Helvetica-30"/>
       <use transform="translate(112.145664 36.879688)scale(0.7)" xlink:href="#Helvetica-32"/>
      </g>
     </g>
    </g>
    <g id="xtick_3">
     <g id="line2d_5">
      <g>
       <use style="fill:#ffffff;stroke:#ffffff;stroke-width:1.2;" x="280.823449" xlink:href="#m69f5c1351b" y="224.468"/>
      </g>
     </g>
     <g id="line2d_6">
      <g>
       <use style="fill:#ffffff;stroke:#ffffff;stroke-width:1.2;" x="280.823449" xlink:href="#m8142cb114e" y="19.650005"/>
      </g>
     </g>
     <g id="text_3">
      <!-- $\mathdefault{10^{3}}$ -->
      <defs>
       <path d="M 25.984375 -1.90625 
Q 13.578125 -1.90625 7.984375 4.90625 
Q 2.390625 11.71875 2.390625 21.484375 
L 11.578125 21.484375 
Q 12.15625 14.703125 14.109375 11.625 
Q 17.53125 6.109375 26.46875 6.109375 
Q 33.40625 6.109375 37.59375 9.8125 
Q 41.796875 13.53125 41.796875 19.390625 
Q 41.796875 26.609375 37.375 29.484375 
Q 32.953125 32.375 25.09375 32.375 
Q 24.21875 32.375 23.3125 32.34375 
Q 22.40625 32.328125 21.484375 32.28125 
L 21.484375 40.046875 
Q 22.859375 39.890625 23.78125 39.84375 
Q 24.703125 39.796875 25.78125 39.796875 
Q 30.71875 39.796875 33.890625 41.359375 
Q 39.453125 44.09375 39.453125 51.125 
Q 39.453125 56.34375 35.734375 59.171875 
Q 32.03125 62.015625 27.09375 62.015625 
Q 18.3125 62.015625 14.9375 56.15625 
Q 13.09375 52.9375 12.84375 46.96875 
L 4.15625 46.96875 
Q 4.15625 54.78125 7.28125 60.25 
Q 12.640625 70.015625 26.171875 70.015625 
Q 36.859375 70.015625 42.71875 65.25 
Q 48.578125 60.5 48.578125 51.46875 
Q 48.578125 45.015625 45.125 41.015625 
Q 42.96875 38.53125 39.546875 37.109375 
Q 45.0625 35.59375 48.15625 31.265625 
Q 51.265625 26.953125 51.265625 20.703125 
Q 51.265625 10.6875 44.671875 4.390625 
Q 38.09375 -1.90625 25.984375 -1.90625 
z
" id="Helvetica-33"/>
      </defs>
      <g style="fill:#ffffff;" transform="translate(268.503449 239.4455)scale(0.16 -0.16)">
       <use transform="translate(0 0.38125)" xlink:href="#Helvetica-31"/>
       <use transform="translate(55.615234 0.38125)" xlink:href="#Helvetica-30"/>
       <use transform="translate(112.145664 36.989063)scale(0.7)" xlink:href="#Helvetica-33"/>
      </g>
     </g>
    </g>
    <g id="xtick_4">
     <g id="line2d_7">
      <defs>
       <path d="M 0 0 
L 0 -3 
" id="m7b9dd0d383" style="stroke:#ffffff;stroke-width:0.8;"/>
      </defs>
      <g>
       <use style="fill:#ffffff;stroke:#ffffff;stroke-width:0.8;" x="73.740713" xlink:href="#m7b9dd0d383" y="224.468"/>
      </g>
     </g>
     <g id="line2d_8">
      <defs>
       <path d="M 0 0 
L 0 3 
" id="m60019104f0" style="stroke:#ffffff;stroke-width:0.8;"/>
      </defs>
      <g>
       <use style="fill:#ffffff;stroke:#ffffff;stroke-width:0.8;" x="73.740713" xlink:href="#m60019104f0" y="19.650005"/>
      </g>
     </g>
    </g>
    <g id="xtick_5">
     <g id="line2d_9">
      <g>
       <use style="fill:#ffffff;stroke:#ffffff;stroke-width:0.8;" x="108.844435" xlink:href="#m7b9dd0d383" y="224.468"/>
      </g>
     </g>
     <g id="line2d_10">
      <g>
       <use style="fill:#ffffff;stroke:#ffffff;stroke-width:0.8;" x="108.844435" xlink:href="#m60019104f0" y="19.650005"/>
      </g>
     </g>
    </g>
    <g id="xtick_6">
     <g id="line2d_11">
      <g>
       <use style="fill:#ffffff;stroke:#ffffff;stroke-width:0.8;" x="126.669353" xlink:href="#m7b9dd0d383" y="224.468"/>
      </g>
     </g>
     <g id="line2d_12">
      <g>
       <use style="fill:#ffffff;stroke:#ffffff;stroke-width:0.8;" x="126.669353" xlink:href="#m60019104f0" y="19.650005"/>
      </g>
     </g>
    </g>
    <g id="xtick_7">
     <g id="line2d_13">
      <g>
       <use style="fill:#ffffff;stroke:#ffffff;stroke-width:0.8;" x="139.316333" xlink:href="#m7b9dd0d383" y="224.468"/>
      </g>
     </g>
     <g id="line2d_14">
      <g>
       <use style="fill:#ffffff;stroke:#ffffff;stroke-width:0.8;" x="139.316333" xlink:href="#m60019104f0" y="19.650005"/>
      </g>
     </g>
    </g>
    <g id="xtick_8">
     <g id="line2d_15">
      <g>
       <use style="fill:#ffffff;stroke:#ffffff;stroke-width:0.8;" x="149.126094" xlink:href="#m7b9dd0d383" y="224.468"/>
      </g>
     </g>
     <g id="line2d_16">
      <g>
       <use style="fill:#ffffff;stroke:#ffffff;stroke-width:0.8;" x="149.126094" xlink:href="#m60019104f0" y="19.650005"/>
      </g>
     </g>
    </g>
    <g id="xtick_9">
     <g id="line2d_17">
      <g>
       <use style="fill:#ffffff;stroke:#ffffff;stroke-width:0.8;" x="157.141251" xlink:href="#m7b9dd0d383" y="224.468"/>
      </g>
     </g>
     <g id="line2d_18">
      <g>
       <use style="fill:#ffffff;stroke:#ffffff;stroke-width:0.8;" x="157.141251" xlink:href="#m60019104f0" y="19.650005"/>
      </g>
     </g>
    </g>
    <g id="xtick_10">
     <g id="line2d_19">
      <g>
       <use style="fill:#ffffff;stroke:#ffffff;stroke-width:0.8;" x="163.917971" xlink:href="#m7b9dd0d383" y="224.468"/>
      </g>
     </g>
     <g id="line2d_20">
      <g>
       <use style="fill:#ffffff;stroke:#ffffff;stroke-width:0.8;" x="163.917971" xlink:href="#m60019104f0" y="19.650005"/>
      </g>
     </g>
    </g>
    <g id="xtick_11">
     <g id="line2d_21">
      <g>
       <use style="fill:#ffffff;stroke:#ffffff;stroke-width:0.8;" x="169.788232" xlink:href="#m7b9dd0d383" y="224.468"/>
      </g>
     </g>
     <g id="line2d_22">
      <g>
       <use style="fill:#ffffff;stroke:#ffffff;stroke-width:0.8;" x="169.788232" xlink:href="#m60019104f0" y="19.650005"/>
      </g>
     </g>
    </g>
    <g id="xtick_12">
     <g id="line2d_23">
      <g>
       <use style="fill:#ffffff;stroke:#ffffff;stroke-width:0.8;" x="174.966169" xlink:href="#m7b9dd0d383" y="224.468"/>
      </g>
     </g>
     <g id="line2d_24">
      <g>
       <use style="fill:#ffffff;stroke:#ffffff;stroke-width:0.8;" x="174.966169" xlink:href="#m60019104f0" y="19.650005"/>
      </g>
     </g>
    </g>
    <g id="xtick_13">
     <g id="line2d_25">
      <g>
       <use style="fill:#ffffff;stroke:#ffffff;stroke-width:0.8;" x="210.069891" xlink:href="#m7b9dd0d383" y="224.468"/>
      </g>
     </g>
     <g id="line2d_26">
      <g>
       <use style="fill:#ffffff;stroke:#ffffff;stroke-width:0.8;" x="210.069891" xlink:href="#m60019104f0" y="19.650005"/>
      </g>
     </g>
    </g>
    <g id="xtick_14">
     <g id="line2d_27">
      <g>
       <use style="fill:#ffffff;stroke:#ffffff;stroke-width:0.8;" x="227.894809" xlink:href="#m7b9dd0d383" y="224.468"/>
      </g>
     </g>
     <g id="line2d_28">
      <g>
       <use style="fill:#ffffff;stroke:#ffffff;stroke-width:0.8;" x="227.894809" xlink:href="#m60019104f0" y="19.650005"/>
      </g>
     </g>
    </g>
    <g id="xtick_15">
     <g id="line2d_29">
      <g>
       <use style="fill:#ffffff;stroke:#ffffff;stroke-width:0.8;" x="240.54179" xlink:href="#m7b9dd0d383" y="224.468"/>
      </g>
     </g>
     <g id="line2d_30">
      <g>
       <use style="fill:#ffffff;stroke:#ffffff;stroke-width:0.8;" x="240.54179" xlink:href="#m60019104f0" y="19.650005"/>
      </g>
     </g>
    </g>
    <g id="xtick_16">
     <g id="line2d_31">
      <g>
       <use style="fill:#ffffff;stroke:#ffffff;stroke-width:0.8;" x="250.35155" xlink:href="#m7b9dd0d383" y="224.468"/>
      </g>
     </g>
     <g id="line2d_32">
      <g>
       <use style="fill:#ffffff;stroke:#ffffff;stroke-width:0.8;" x="250.35155" xlink:href="#m60019104f0" y="19.650005"/>
      </g>
     </g>
    </g>
    <g id="xtick_17">
     <g id="line2d_33">
      <g>
       <use style="fill:#ffffff;stroke:#ffffff;stroke-width:0.8;" x="258.366708" xlink:href="#m7b9dd0d383" y="224.468"/>
      </g>
     </g>
     <g id="line2d_34">
      <g>
       <use style="fill:#ffffff;stroke:#ffffff;stroke-width:0.8;" x="258.366708" xlink:href="#m60019104f0" y="19.650005"/>
      </g>
     </g>
    </g>
    <g id="xtick_18">
     <g id="line2d_35">
      <g>
       <use style="fill:#ffffff;stroke:#ffffff;stroke-width:0.8;" x="265.143427" xlink:href="#m7b9dd0d383" y="224.468"/>
      </g>
     </g>
     <g id="line2d_36">
      <g>
       <use style="fill:#ffffff;stroke:#ffffff;stroke-width:0.8;" x="265.143427" xlink:href="#m60019104f0" y="19.650005"/>
      </g>
     </g>
    </g>
    <g id="xtick_19">
     <g id="line2d_37">
      <g>
       <use style="fill:#ffffff;stroke:#ffffff;stroke-width:0.8;" x="271.013688" xlink:href="#m7b9dd0d383" y="224.468"/>
      </g>
     </g>
     <g id="line2d_38">
      <g>
       <use style="fill:#ffffff;stroke:#ffffff;stroke-width:0.8;" x="271.013688" xlink:href="#m60019104f0" y="19.650005"/>
      </g>
     </g>
    </g>
    <g id="xtick_20">
     <g id="line2d_39">
      <g>
       <use style="fill:#ffffff;stroke:#ffffff;stroke-width:0.8;" x="276.191626" xlink:href="#m7b9dd0d383" y="224.468"/>
      </g>
     </g>
     <g id="line2d_40">
      <g>
       <use style="fill:#ffffff;stroke:#ffffff;stroke-width:0.8;" x="276.191626" xlink:href="#m60019104f0" y="19.650005"/>
      </g>
     </g>
    </g>
    <g id="xtick_21">
     <g id="line2d_41">
      <g>
       <use style="fill:#ffffff;stroke:#ffffff;stroke-width:0.8;" x="311.295347" xlink:href="#m7b9dd0d383" y="224.468"/>
      </g>
     </g>
     <g id="line2d_42">
      <g>
       <use style="fill:#ffffff;stroke:#ffffff;stroke-width:0.8;" x="311.295347" xlink:href="#m60019104f0" y="19.650005"/>
      </g>
     </g>
    </g>
    <g id="text_4">
     <!-- T$_{MC}$ (mK) -->
     <defs>
      <path d="M 59.8125 71.734375 
L 59.8125 63.1875 
L 35.640625 63.1875 
L 35.640625 0 
L 25.78125 0 
L 25.78125 63.1875 
L 1.609375 63.1875 
L 1.609375 71.734375 
z
" id="Helvetica-54"/>
      <path d="M 7.375 71.734375 
L 21.296875 71.734375 
L 41.890625 11.078125 
L 62.359375 71.734375 
L 76.125 71.734375 
L 76.125 0 
L 66.890625 0 
L 66.890625 42.328125 
Q 66.890625 44.53125 66.984375 49.609375 
Q 67.09375 54.6875 67.09375 60.5 
L 46.625 0 
L 37.015625 0 
L 16.40625 60.5 
L 16.40625 58.296875 
Q 16.40625 55.671875 16.53125 50.265625 
Q 16.65625 44.875 16.65625 42.328125 
L 16.65625 0 
L 7.375 0 
z
" id="Helvetica-4d"/>
      <path d="M 37.84375 73.6875 
Q 51.46875 73.6875 58.984375 66.5 
Q 66.5 59.328125 67.328125 50.203125 
L 57.859375 50.203125 
Q 56.25 57.125 51.4375 61.171875 
Q 46.625 65.234375 37.9375 65.234375 
Q 27.34375 65.234375 20.828125 57.78125 
Q 14.3125 50.34375 14.3125 34.96875 
Q 14.3125 22.359375 20.1875 14.515625 
Q 26.078125 6.6875 37.75 6.6875 
Q 48.484375 6.6875 54.109375 14.9375 
Q 57.078125 19.28125 58.546875 26.375 
L 68.015625 26.375 
Q 66.75 15.046875 59.625 7.375 
Q 51.078125 -1.859375 36.578125 -1.859375 
Q 24.078125 -1.859375 15.578125 5.71875 
Q 4.390625 15.71875 4.390625 36.625 
Q 4.390625 52.484375 12.796875 62.640625 
Q 21.875 73.6875 37.84375 73.6875 
z
M 35.890625 73.6875 
z
" id="Helvetica-43"/>
      <path id="Helvetica-20"/>
      <path d="M 29.59375 72.90625 
Q 21.921875 58.015625 19.625 50.984375 
Q 16.15625 40.28125 16.15625 26.265625 
Q 16.15625 12.109375 20.125 0.390625 
Q 22.5625 -6.84375 29.734375 -20.40625 
L 23.828125 -20.40625 
Q 16.703125 -9.28125 14.984375 -6.203125 
Q 13.28125 -3.125 11.28125 2.15625 
Q 8.546875 9.375 7.46875 17.578125 
Q 6.9375 21.828125 6.9375 25.6875 
Q 6.9375 40.140625 11.46875 51.421875 
Q 14.359375 58.59375 23.484375 72.90625 
z
" id="Helvetica-28"/>
      <path d="M 6.453125 52.296875 
L 15.140625 52.296875 
L 15.140625 44.875 
Q 18.265625 48.734375 20.796875 50.484375 
Q 25.140625 53.46875 30.671875 53.46875 
Q 36.921875 53.46875 40.71875 50.390625 
Q 42.875 48.640625 44.625 45.21875 
Q 47.5625 49.421875 51.515625 51.4375 
Q 55.46875 53.46875 60.40625 53.46875 
Q 70.953125 53.46875 74.75 45.84375 
Q 76.8125 41.75 76.8125 34.8125 
L 76.8125 0 
L 67.671875 0 
L 67.671875 36.328125 
Q 67.671875 41.546875 65.0625 43.5 
Q 62.453125 45.453125 58.6875 45.453125 
Q 53.515625 45.453125 49.78125 41.984375 
Q 46.046875 38.53125 46.046875 30.421875 
L 46.046875 0 
L 37.109375 0 
L 37.109375 34.125 
Q 37.109375 39.453125 35.84375 41.890625 
Q 33.84375 45.5625 28.375 45.5625 
Q 23.390625 45.5625 19.3125 41.703125 
Q 15.234375 37.84375 15.234375 27.734375 
L 15.234375 0 
L 6.453125 0 
z
" id="Helvetica-6d"/>
      <path d="M 7.625 71.734375 
L 17.09375 71.734375 
L 17.09375 36.765625 
L 52.046875 71.734375 
L 65.484375 71.734375 
L 35.640625 42.828125 
L 66.3125 0 
L 53.65625 0 
L 28.5625 35.984375 
L 17.09375 25 
L 17.09375 0 
L 7.625 0 
z
" id="Helvetica-4b"/>
      <path d="M 3.46875 -20.40625 
Q 11.234375 -5.28125 13.484375 1.65625 
Q 16.890625 12.15625 16.890625 26.265625 
Q 16.890625 40.375 12.9375 52.09375 
Q 10.5 59.328125 3.328125 72.90625 
L 9.234375 72.90625 
Q 16.75 60.890625 18.328125 58.078125 
Q 19.921875 55.28125 21.78125 50.34375 
Q 24.125 44.234375 25.125 38.28125 
Q 26.125 32.328125 26.125 26.8125 
Q 26.125 12.359375 21.53125 1.03125 
Q 18.65625 -6.25 9.578125 -20.40625 
z
" id="Helvetica-29"/>
     </defs>
     <g style="fill:#ffffff;" transform="translate(155.071959 259.3805)scale(0.2 -0.2)">
      <use transform="translate(0 0.09375)" xlink:href="#Helvetica-54"/>
      <use transform="translate(61.99918 -15.595313)scale(0.7)" xlink:href="#Helvetica-4d"/>
      <use transform="translate(120.309727 -15.595313)scale(0.7)" xlink:href="#Helvetica-43"/>
      <use transform="translate(173.476328 0.09375)" xlink:href="#Helvetica-20"/>
      <use transform="translate(201.259531 0.09375)" xlink:href="#Helvetica-28"/>
      <use transform="translate(234.560313 0.09375)" xlink:href="#Helvetica-6d"/>
      <use transform="translate(317.861094 0.09375)" xlink:href="#Helvetica-4b"/>
      <use transform="translate(384.560313 0.09375)" xlink:href="#Helvetica-29"/>
     </g>
    </g>
   </g>
   <g id="matplotlib.axis_2">
    <g id="ytick_1">
     <g id="line2d_43">
      <defs>
       <path d="M 0 0 
L 5 0 
" id="m3e63641a65" style="stroke:#ffffff;stroke-width:1.2;"/>
      </defs>
      <g>
       <use style="fill:#ffffff;stroke:#ffffff;stroke-width:1.2;" x="74.08" xlink:href="#m3e63641a65" y="216.78836"/>
      </g>
     </g>
     <g id="line2d_44">
      <defs>
       <path d="M 0 0 
L -5 0 
" id="m765e79b6d2" style="stroke:#ffffff;stroke-width:1.2;"/>
      </defs>
      <g>
       <use style="fill:#ffffff;stroke:#ffffff;stroke-width:1.2;" x="319.663917" xlink:href="#m765e79b6d2" y="216.78836"/>
      </g>
     </g>
     <g id="text_5">
      <!-- 640 -->
      <defs>
       <path d="M 29.25 70.21875 
Q 40.96875 70.21875 45.578125 64.140625 
Q 50.203125 58.0625 50.203125 51.609375 
L 41.5 51.609375 
Q 40.71875 55.765625 39.015625 58.109375 
Q 35.84375 62.5 29.390625 62.5 
Q 22.015625 62.5 17.671875 55.6875 
Q 13.328125 48.875 12.84375 36.1875 
Q 15.875 40.625 20.453125 42.828125 
Q 24.65625 44.78125 29.828125 44.78125 
Q 38.625 44.78125 45.15625 39.15625 
Q 51.703125 33.546875 51.703125 22.40625 
Q 51.703125 12.890625 45.5 5.53125 
Q 39.3125 -1.8125 27.828125 -1.8125 
Q 18.015625 -1.8125 10.890625 5.640625 
Q 3.765625 13.09375 3.765625 30.71875 
Q 3.765625 43.75 6.9375 52.828125 
Q 13.03125 70.21875 29.25 70.21875 
z
M 28.609375 6 
Q 35.546875 6 38.984375 10.65625 
Q 42.4375 15.328125 42.4375 21.6875 
Q 42.4375 27.046875 39.359375 31.90625 
Q 36.28125 36.765625 28.171875 36.765625 
Q 22.515625 36.765625 18.234375 33 
Q 13.96875 29.25 13.96875 21.6875 
Q 13.96875 15.046875 17.84375 10.515625 
Q 21.734375 6 28.609375 6 
z
" id="Helvetica-36"/>
       <path d="M 33.0625 24.75 
L 33.0625 56.453125 
L 10.640625 24.75 
z
M 33.203125 0 
L 33.203125 17.09375 
L 2.546875 17.09375 
L 2.546875 25.6875 
L 34.578125 70.125 
L 42 70.125 
L 42 24.75 
L 52.296875 24.75 
L 52.296875 17.09375 
L 42 17.09375 
L 42 0 
z
" id="Helvetica-34"/>
      </defs>
      <g style="fill:#ffffff;" transform="translate(43.8875 222.52711)scale(0.16 -0.16)">
       <use xlink:href="#Helvetica-36"/>
       <use x="55.615234" xlink:href="#Helvetica-34"/>
       <use x="111.230469" xlink:href="#Helvetica-30"/>
      </g>
     </g>
    </g>
    <g id="ytick_2">
     <g id="line2d_45">
      <g>
       <use style="fill:#ffffff;stroke:#ffffff;stroke-width:1.2;" x="74.08" xlink:href="#m3e63641a65" y="168.810728"/>
      </g>
     </g>
     <g id="line2d_46">
      <g>
       <use style="fill:#ffffff;stroke:#ffffff;stroke-width:1.2;" x="319.663917" xlink:href="#m765e79b6d2" y="168.810728"/>
      </g>
     </g>
     <g id="text_6">
      <!-- 650 -->
      <defs>
       <path d="M 12.359375 17.828125 
Q 13.234375 10.296875 19.34375 7.421875 
Q 22.46875 5.953125 26.5625 5.953125 
Q 34.375 5.953125 38.125 10.9375 
Q 41.890625 15.921875 41.890625 21.96875 
Q 41.890625 29.296875 37.421875 33.296875 
Q 32.953125 37.3125 26.703125 37.3125 
Q 22.171875 37.3125 18.921875 35.546875 
Q 15.671875 33.796875 13.375 30.671875 
L 5.765625 31.109375 
L 11.078125 68.75 
L 47.40625 68.75 
L 47.40625 60.25 
L 17.671875 60.25 
L 14.703125 40.828125 
Q 17.140625 42.671875 19.34375 43.609375 
Q 23.25 45.21875 28.375 45.21875 
Q 37.984375 45.21875 44.671875 39.015625 
Q 51.375 32.8125 51.375 23.296875 
Q 51.375 13.375 45.234375 5.796875 
Q 39.109375 -1.765625 25.6875 -1.765625 
Q 17.140625 -1.765625 10.5625 3.046875 
Q 4 7.859375 3.21875 17.828125 
z
" id="Helvetica-35"/>
      </defs>
      <g style="fill:#ffffff;" transform="translate(43.8875 174.549478)scale(0.16 -0.16)">
       <use xlink:href="#Helvetica-36"/>
       <use x="55.615234" xlink:href="#Helvetica-35"/>
       <use x="111.230469" xlink:href="#Helvetica-30"/>
      </g>
     </g>
    </g>
    <g id="ytick_3">
     <g id="line2d_47">
      <g>
       <use style="fill:#ffffff;stroke:#ffffff;stroke-width:1.2;" x="74.08" xlink:href="#m3e63641a65" y="120.833096"/>
      </g>
     </g>
     <g id="line2d_48">
      <g>
       <use style="fill:#ffffff;stroke:#ffffff;stroke-width:1.2;" x="319.663917" xlink:href="#m765e79b6d2" y="120.833096"/>
      </g>
     </g>
     <g id="text_7">
      <!-- 660 -->
      <g style="fill:#ffffff;" transform="translate(43.8875 126.571846)scale(0.16 -0.16)">
       <use xlink:href="#Helvetica-36"/>
       <use x="55.615234" xlink:href="#Helvetica-36"/>
       <use x="111.230469" xlink:href="#Helvetica-30"/>
      </g>
     </g>
    </g>
    <g id="ytick_4">
     <g id="line2d_49">
      <g>
       <use style="fill:#ffffff;stroke:#ffffff;stroke-width:1.2;" x="74.08" xlink:href="#m3e63641a65" y="72.855464"/>
      </g>
     </g>
     <g id="line2d_50">
      <g>
       <use style="fill:#ffffff;stroke:#ffffff;stroke-width:1.2;" x="319.663917" xlink:href="#m765e79b6d2" y="72.855464"/>
      </g>
     </g>
     <g id="text_8">
      <!-- 670 -->
      <defs>
       <path d="M 52.296875 68.75 
L 52.296875 61.078125 
Q 48.921875 57.8125 43.328125 49.703125 
Q 37.75 41.609375 33.453125 32.234375 
Q 29.203125 23.09375 27 15.578125 
Q 25.59375 10.75 23.34375 0 
L 13.625 0 
Q 16.9375 20.015625 28.265625 39.84375 
Q 34.96875 51.46875 42.328125 59.90625 
L 3.65625 59.90625 
L 3.65625 68.75 
z
" id="Helvetica-37"/>
      </defs>
      <g style="fill:#ffffff;" transform="translate(43.8875 78.594214)scale(0.16 -0.16)">
       <use xlink:href="#Helvetica-36"/>
       <use x="55.615234" xlink:href="#Helvetica-37"/>
       <use x="111.230469" xlink:href="#Helvetica-30"/>
      </g>
     </g>
    </g>
    <g id="ytick_5">
     <g id="line2d_51">
      <g>
       <use style="fill:#ffffff;stroke:#ffffff;stroke-width:1.2;" x="74.08" xlink:href="#m3e63641a65" y="24.877833"/>
      </g>
     </g>
     <g id="line2d_52">
      <g>
       <use style="fill:#ffffff;stroke:#ffffff;stroke-width:1.2;" x="319.663917" xlink:href="#m765e79b6d2" y="24.877833"/>
      </g>
     </g>
     <g id="text_9">
      <!-- 680 -->
      <defs>
       <path d="M 27.203125 40.625 
Q 33.015625 40.625 36.28125 43.875 
Q 39.546875 47.125 39.546875 51.609375 
Q 39.546875 55.515625 36.421875 58.78125 
Q 33.296875 62.0625 26.90625 62.0625 
Q 20.5625 62.0625 17.71875 58.78125 
Q 14.890625 55.515625 14.890625 51.125 
Q 14.890625 46.1875 18.546875 43.40625 
Q 22.21875 40.625 27.203125 40.625 
z
M 27.734375 6 
Q 33.84375 6 37.859375 9.296875 
Q 41.890625 12.59375 41.890625 19.140625 
Q 41.890625 25.921875 37.734375 29.4375 
Q 33.59375 32.953125 27.09375 32.953125 
Q 20.796875 32.953125 16.8125 29.359375 
Q 12.84375 25.78125 12.84375 19.4375 
Q 12.84375 13.96875 16.484375 9.984375 
Q 20.125 6 27.734375 6 
z
M 15.234375 37.25 
Q 11.578125 38.8125 9.515625 40.921875 
Q 5.671875 44.828125 5.671875 51.078125 
Q 5.671875 58.890625 11.328125 64.5 
Q 17 70.125 27.390625 70.125 
Q 37.453125 70.125 43.15625 64.8125 
Q 48.875 59.515625 48.875 52.4375 
Q 48.875 45.90625 45.5625 41.84375 
Q 43.703125 39.546875 39.796875 37.359375 
Q 44.140625 35.359375 46.625 32.765625 
Q 51.265625 27.875 51.265625 20.0625 
Q 51.265625 10.84375 45.0625 4.421875 
Q 38.875 -2 27.546875 -2 
Q 17.328125 -2 10.265625 3.53125 
Q 3.21875 9.078125 3.21875 19.625 
Q 3.21875 25.828125 6.25 30.34375 
Q 9.28125 34.859375 15.234375 37.25 
z
" id="Helvetica-38"/>
      </defs>
      <g style="fill:#ffffff;" transform="translate(43.8875 30.616583)scale(0.16 -0.16)">
       <use xlink:href="#Helvetica-36"/>
       <use x="55.615234" xlink:href="#Helvetica-38"/>
       <use x="111.230469" xlink:href="#Helvetica-30"/>
      </g>
     </g>
    </g>
    <g id="text_10">
     <!-- R ($\Omega$) -->
     <defs>
      <path d="M 40.96875 38.875 
Q 47.796875 38.875 51.78125 41.609375 
Q 55.765625 44.34375 55.765625 51.46875 
Q 55.765625 59.125 50.203125 61.921875 
Q 47.21875 63.375 42.234375 63.375 
L 18.5 63.375 
L 18.5 38.875 
z
M 8.796875 71.734375 
L 42 71.734375 
Q 50.203125 71.734375 55.515625 69.34375 
Q 65.625 64.75 65.625 52.390625 
Q 65.625 45.953125 62.953125 41.84375 
Q 60.296875 37.75 55.515625 35.25 
Q 59.71875 33.546875 61.84375 30.765625 
Q 63.96875 27.984375 64.203125 21.734375 
L 64.546875 12.109375 
Q 64.703125 8.015625 65.234375 6 
Q 66.109375 2.59375 68.359375 1.609375 
L 68.359375 0 
L 56.453125 0 
Q 55.953125 0.921875 55.65625 2.390625 
Q 55.375 3.859375 55.171875 8.0625 
L 54.59375 20.015625 
Q 54.25 27.046875 49.359375 29.4375 
Q 46.578125 30.765625 40.625 30.765625 
L 18.5 30.765625 
L 18.5 0 
L 8.796875 0 
z
" id="Helvetica-52"/>
      <path d="M 4.890625 8.40625 
L 21.78125 8.40625 
L 21.78125 8.59375 
Q 5.171875 18.796875 5.515625 38.8125 
Q 6.296875 71.6875 38.921875 72.40625 
Q 71.484375 71.6875 72.3125 38.8125 
Q 72.609375 18.796875 56 8.59375 
L 56 8.40625 
L 72.90625 8.40625 
L 72.90625 0 
L 45.21875 0 
L 45.21875 8.40625 
Q 62.890625 18.21875 62.703125 38.71875 
Q 62.703125 49.609375 56.6875 56.78125 
Q 50.6875 63.921875 38.921875 64.015625 
Q 27.203125 63.921875 21.1875 56.78125 
Q 15.09375 49.609375 15.09375 38.71875 
Q 14.890625 18.21875 32.625 8.40625 
L 32.625 0 
L 4.890625 0 
z
" id="Helvetica-3a9"/>
     </defs>
     <g style="fill:#ffffff;" transform="translate(37.6875 146.559003)rotate(-90)scale(0.2 -0.2)">
      <use transform="translate(0 0.09375)" xlink:href="#Helvetica-52"/>
      <use transform="translate(72.216797 0.09375)" xlink:href="#Helvetica-20"/>
      <use transform="translate(100 0.09375)" xlink:href="#Helvetica-28"/>
      <use transform="translate(133.300781 0.09375)" xlink:href="#Helvetica-3a9"/>
      <use transform="translate(211.083984 0.09375)" xlink:href="#Helvetica-29"/>
     </g>
    </g>
   </g>
   <g id="PathCollection_1">
    <defs>
     <path d="M 0 3 
C 0.795609 3 1.55874 2.683901 2.12132 2.12132 
C 2.683901 1.55874 3 0.795609 3 0 
C 3 -0.795609 2.683901 -1.55874 2.12132 -2.12132 
C 1.55874 -2.683901 0.795609 -3 0 -3 
C -0.795609 -3 -1.55874 -2.683901 -2.12132 -2.12132 
C -2.683901 -1.55874 -3 -0.795609 -3 0 
C -3 0.795609 -2.683901 1.55874 -2.12132 2.12132 
C -1.55874 2.683901 -0.795609 3 0 3 
z
" id="mfd74036e97" style="stroke:#bfbbd9;"/>
    </defs>
    <g clip-path="url(#p75ac134884)">
     <use style="fill:#bfbbd9;stroke:#bfbbd9;" x="271.022538" xlink:href="#mfd74036e97" y="215.110431"/>
     <use style="fill:#bfbbd9;stroke:#bfbbd9;" x="265.120796" xlink:href="#mfd74036e97" y="211.580339"/>
     <use style="fill:#bfbbd9;stroke:#bfbbd9;" x="258.385969" xlink:href="#mfd74036e97" y="207.454626"/>
     <use style="fill:#bfbbd9;stroke:#bfbbd9;" x="250.315758" xlink:href="#mfd74036e97" y="202.725092"/>
     <use style="fill:#bfbbd9;stroke:#bfbbd9;" x="240.540094" xlink:href="#mfd74036e97" y="197.14371"/>
     <use style="fill:#bfbbd9;stroke:#bfbbd9;" x="234.679949" xlink:href="#mfd74036e97" y="193.613618"/>
     <use style="fill:#bfbbd9;stroke:#bfbbd9;" x="227.833509" xlink:href="#mfd74036e97" y="190.265081"/>
     <use style="fill:#bfbbd9;stroke:#bfbbd9;" x="219.946623" xlink:href="#mfd74036e97" y="186.467047"/>
     <use style="fill:#bfbbd9;stroke:#bfbbd9;" x="209.96123" xlink:href="#mfd74036e97" y="182.686583"/>
     <use style="fill:#bfbbd9;stroke:#bfbbd9;" x="205.450471" xlink:href="#mfd74036e97" y="180.96268"/>
     <use style="fill:#bfbbd9;stroke:#bfbbd9;" x="200.176261" xlink:href="#mfd74036e97" y="180.129572"/>
     <use style="fill:#bfbbd9;stroke:#bfbbd9;" x="194.389084" xlink:href="#mfd74036e97" y="178.711093"/>
     <use style="fill:#bfbbd9;stroke:#bfbbd9;" x="187.578957" xlink:href="#mfd74036e97" y="178.040214"/>
     <use style="fill:#bfbbd9;stroke:#bfbbd9;" x="179.581338" xlink:href="#mfd74036e97" y="176.420852"/>
     <use style="fill:#bfbbd9;stroke:#bfbbd9;" x="169.749396" xlink:href="#mfd74036e97" y="176.451892"/>
     <use style="fill:#bfbbd9;stroke:#bfbbd9;" x="157.066029" xlink:href="#mfd74036e97" y="175.900489"/>
     <use style="fill:#bfbbd9;stroke:#bfbbd9;" x="139.293427" xlink:href="#mfd74036e97" y="175.897268"/>
     <use style="fill:#bfbbd9;stroke:#bfbbd9;" x="108.871587" xlink:href="#mfd74036e97" y="175.357871"/>
     <use style="fill:#bfbbd9;stroke:#bfbbd9;" x="85.280562" xlink:href="#mfd74036e97" y="175.316289"/>
    </g>
   </g>
   <g id="line2d_53">
    <path clip-path="url(#p75ac134884)" d="M 271.022538 175.33708 
L 265.120796 175.33708 
L 258.385969 175.33708 
L 250.315758 175.33708 
L 240.540094 175.33708 
L 234.679949 175.33708 
L 227.833509 175.33708 
L 219.946623 175.33708 
L 209.96123 175.33708 
L 205.450471 175.33708 
L 200.176261 175.33708 
L 194.389084 175.33708 
L 187.578957 175.33708 
L 179.581338 175.33708 
L 169.749396 175.33708 
L 157.066029 175.33708 
L 139.293427 175.33708 
L 108.871587 175.33708 
L 85.280562 175.33708 
" style="fill:none;stroke:#90ee90;stroke-dasharray:7.4,3.2;stroke-dashoffset:0;stroke-width:2;"/>
   </g>
   <g id="line2d_54">
    <path clip-path="url(#p75ac134884)" d="M 271.022538 214.739623 
L 265.120796 211.394305 
L 258.385969 207.576766 
L 250.315758 203.002283 
L 240.540094 197.46109 
L 234.679949 194.139352 
L 227.833509 190.258546 
L 219.946623 185.787978 
L 209.96123 180.127903 
L 205.450471 177.571044 
L 200.176261 174.581435 
L 194.389084 171.301057 
L 187.578957 167.440835 
L 179.581338 162.9075 
L 169.749396 157.334406 
L 157.066029 150.145023 
L 139.293427 140.07088 
L 108.871587 122.8267 
L 85.280562 109.454468 
" style="fill:none;stroke:#90ee90;stroke-linecap:square;stroke-width:2;"/>
   </g>
   <g id="patch_3">
    <path d="M 74.08 224.468 
L 74.08 19.650005 
" style="fill:none;stroke:#ffffff;stroke-linecap:square;stroke-linejoin:miter;stroke-width:1.2;"/>
   </g>
   <g id="patch_4">
    <path d="M 319.663917 224.468 
L 319.663917 19.650005 
" style="fill:none;stroke:#ffffff;stroke-linecap:square;stroke-linejoin:miter;stroke-width:1.2;"/>
   </g>
   <g id="patch_5">
    <path d="M 74.08 224.468 
L 319.663917 224.468 
" style="fill:none;stroke:#ffffff;stroke-linecap:square;stroke-linejoin:miter;stroke-width:1.2;"/>
   </g>
   <g id="patch_6">
    <path d="M 74.08 19.650005 
L 319.663917 19.650005 
" style="fill:none;stroke:#ffffff;stroke-linecap:square;stroke-linejoin:miter;stroke-width:1.2;"/>
   </g>
   <g id="text_11">
    <!-- $T_e^{Ecco}$ = 162 mK -->
    <defs>
     <path d="M 8.546875 71.734375 
L 60.84375 71.734375 
L 60.84375 62.9375 
L 18.015625 62.9375 
L 18.015625 41.15625 
L 57.625 41.15625 
L 57.625 32.859375 
L 18.015625 32.859375 
L 18.015625 8.546875 
L 61.578125 8.546875 
L 61.578125 0 
L 8.546875 0 
z
M 35.0625 71.734375 
z
" id="Helvetica-45"/>
     <path d="M 26.609375 53.8125 
Q 35.453125 53.8125 40.984375 49.515625 
Q 46.53125 45.21875 47.65625 34.71875 
L 39.109375 34.71875 
Q 38.328125 39.546875 35.546875 42.75 
Q 32.765625 45.953125 26.609375 45.953125 
Q 18.21875 45.953125 14.59375 37.75 
Q 12.25 32.421875 12.25 24.609375 
Q 12.25 16.75 15.5625 11.375 
Q 18.890625 6 26.03125 6 
Q 31.5 6 34.6875 9.34375 
Q 37.890625 12.703125 39.109375 18.5 
L 47.65625 18.5 
Q 46.1875 8.109375 40.328125 3.296875 
Q 34.46875 -1.515625 25.34375 -1.515625 
Q 15.09375 -1.515625 8.984375 5.984375 
Q 2.875 13.484375 2.875 24.703125 
Q 2.875 38.484375 9.5625 46.140625 
Q 16.265625 53.8125 26.609375 53.8125 
z
M 25.25 53.5625 
z
" id="Helvetica-63"/>
     <path d="M 27.203125 5.671875 
Q 35.9375 5.671875 39.1875 12.28125 
Q 42.4375 18.890625 42.4375 27 
Q 42.4375 34.328125 40.09375 38.921875 
Q 36.375 46.140625 27.296875 46.140625 
Q 19.234375 46.140625 15.578125 39.984375 
Q 11.921875 33.84375 11.921875 25.140625 
Q 11.921875 16.796875 15.578125 11.234375 
Q 19.234375 5.671875 27.203125 5.671875 
z
M 27.546875 53.8125 
Q 37.640625 53.8125 44.625 47.0625 
Q 51.609375 40.328125 51.609375 27.25 
Q 51.609375 14.59375 45.453125 6.34375 
Q 39.3125 -1.90625 26.375 -1.90625 
Q 15.578125 -1.90625 9.21875 5.390625 
Q 2.875 12.703125 2.875 25 
Q 2.875 38.1875 9.5625 46 
Q 16.265625 53.8125 27.546875 53.8125 
z
M 27.25 53.5625 
z
" id="Helvetica-6f"/>
     <path d="M 28.21875 53.46875 
Q 33.796875 53.46875 39.015625 50.859375 
Q 44.234375 48.25 46.96875 44.09375 
Q 49.609375 40.140625 50.484375 34.859375 
Q 51.265625 31.25 51.265625 23.34375 
L 12.9375 23.34375 
Q 13.1875 15.375 16.703125 10.5625 
Q 20.21875 5.765625 27.59375 5.765625 
Q 34.46875 5.765625 38.578125 10.296875 
Q 40.921875 12.9375 41.890625 16.40625 
L 50.53125 16.40625 
Q 50.203125 13.53125 48.265625 9.984375 
Q 46.34375 6.453125 43.953125 4.203125 
Q 39.9375 0.296875 34.03125 -1.078125 
Q 30.859375 -1.859375 26.859375 -1.859375 
Q 17.09375 -1.859375 10.296875 5.25 
Q 3.515625 12.359375 3.515625 25.140625 
Q 3.515625 37.75 10.34375 45.609375 
Q 17.1875 53.46875 28.21875 53.46875 
z
M 42.234375 30.328125 
Q 41.703125 36.03125 39.75 39.453125 
Q 36.140625 45.796875 27.6875 45.796875 
Q 21.625 45.796875 17.515625 41.421875 
Q 13.421875 37.0625 13.1875 30.328125 
z
M 27.390625 53.5625 
z
" id="Helvetica-65"/>
     <path d="M 55.421875 40.140625 
L 55.421875 31.9375 
L 4.5 31.9375 
L 4.5 40.140625 
z
M 55.421875 19.1875 
L 55.421875 10.84375 
L 4.5 10.84375 
L 4.5 19.1875 
z
" id="Helvetica-3d"/>
    </defs>
    <g style="fill:#ffffff;" transform="translate(98.638392 60.613604)scale(0.22 -0.22)">
     <use transform="translate(0 0.178125)" xlink:href="#Helvetica-54"/>
     <use transform="translate(61.99918 36.785938)scale(0.7)" xlink:href="#Helvetica-45"/>
     <use transform="translate(108.688633 36.785938)scale(0.7)" xlink:href="#Helvetica-63"/>
     <use transform="translate(143.688633 36.785938)scale(0.7)" xlink:href="#Helvetica-63"/>
     <use transform="translate(178.688633 36.785938)scale(0.7)" xlink:href="#Helvetica-6f"/>
     <use transform="translate(61.99918 -25.970312)scale(0.7)" xlink:href="#Helvetica-65"/>
     <use transform="translate(220.234141 0.178125)" xlink:href="#Helvetica-20"/>
     <use transform="translate(248.017344 0.178125)" xlink:href="#Helvetica-3d"/>
     <use transform="translate(306.415781 0.178125)" xlink:href="#Helvetica-20"/>
     <use transform="translate(334.198984 0.178125)" xlink:href="#Helvetica-31"/>
     <use transform="translate(389.814219 0.178125)" xlink:href="#Helvetica-36"/>
     <use transform="translate(445.429453 0.178125)" xlink:href="#Helvetica-32"/>
     <use transform="translate(501.044688 0.178125)" xlink:href="#Helvetica-20"/>
     <use transform="translate(528.827891 0.178125)" xlink:href="#Helvetica-6d"/>
     <use transform="translate(612.128672 0.178125)" xlink:href="#Helvetica-4b"/>
    </g>
   </g>
   <g id="text_12">
    <!-- $T_e^{Ecco+RC}$ = 43 mK -->
    <defs>
     <path d="M 4.5 21.390625 
L 4.5 29.59375 
L 25.78125 29.59375 
L 25.78125 51.03125 
L 34.125 51.03125 
L 34.125 29.59375 
L 55.421875 29.59375 
L 55.421875 21.390625 
L 34.125 21.390625 
L 34.125 0 
L 25.78125 0 
L 25.78125 21.390625 
z
" id="Helvetica-2b"/>
    </defs>
    <g style="fill:#ffffff;" transform="translate(371.534475 183.504401)scale(0.22 -0.22)">
     <use transform="translate(0 0.810937)" xlink:href="#Helvetica-54"/>
     <use transform="translate(61.99918 37.41875)scale(0.7)" xlink:href="#Helvetica-45"/>
     <use transform="translate(108.688633 37.41875)scale(0.7)" xlink:href="#Helvetica-63"/>
     <use transform="translate(143.688633 37.41875)scale(0.7)" xlink:href="#Helvetica-63"/>
     <use transform="translate(178.688633 37.41875)scale(0.7)" xlink:href="#Helvetica-6f"/>
     <use transform="translate(229.281406 37.41875)scale(0.7)" xlink:href="#Helvetica-2b"/>
     <use transform="translate(281.822422 37.41875)scale(0.7)" xlink:href="#Helvetica-52"/>
     <use transform="translate(332.37418 37.41875)scale(0.7)" xlink:href="#Helvetica-43"/>
     <use transform="translate(61.99918 -25.3375)scale(0.7)" xlink:href="#Helvetica-65"/>
     <use transform="translate(385.540781 0.810937)" xlink:href="#Helvetica-20"/>
     <use transform="translate(413.323984 0.810937)" xlink:href="#Helvetica-3d"/>
     <use transform="translate(471.722422 0.810937)" xlink:href="#Helvetica-20"/>
     <use transform="translate(499.505625 0.810937)" xlink:href="#Helvetica-34"/>
     <use transform="translate(555.120859 0.810937)" xlink:href="#Helvetica-33"/>
     <use transform="translate(610.736094 0.810937)" xlink:href="#Helvetica-20"/>
     <use transform="translate(638.519297 0.810937)" xlink:href="#Helvetica-6d"/>
     <use transform="translate(721.820078 0.810937)" xlink:href="#Helvetica-4b"/>
    </g>
   </g>
  </g>
  <g id="axes_2">
   <g id="patch_7">
    <path d="M 346.976083 224.468 
L 592.56 224.468 
L 592.56 19.650005 
L 346.976083 19.650005 
z
" style="fill:none;"/>
   </g>
   <g id="matplotlib.axis_3">
    <g id="xtick_22">
     <g id="line2d_55">
      <g>
       <use style="fill:#ffffff;stroke:#ffffff;stroke-width:1.2;" x="351.268619" xlink:href="#m69f5c1351b" y="224.468"/>
      </g>
     </g>
     <g id="line2d_56">
      <g>
       <use style="fill:#ffffff;stroke:#ffffff;stroke-width:1.2;" x="351.268619" xlink:href="#m8142cb114e" y="19.650005"/>
      </g>
     </g>
     <g id="text_13">
      <!-- $\mathdefault{10^{1}}$ -->
      <g style="fill:#ffffff;" transform="translate(338.948619 239.4455)scale(0.16 -0.16)">
       <use transform="translate(0 0.654688)" xlink:href="#Helvetica-31"/>
       <use transform="translate(55.615234 0.654688)" xlink:href="#Helvetica-30"/>
       <use transform="translate(112.145664 37.2625)scale(0.7)" xlink:href="#Helvetica-31"/>
      </g>
     </g>
    </g>
    <g id="xtick_23">
     <g id="line2d_57">
      <g>
       <use style="fill:#ffffff;stroke:#ffffff;stroke-width:1.2;" x="452.494075" xlink:href="#m69f5c1351b" y="224.468"/>
      </g>
     </g>
     <g id="line2d_58">
      <g>
       <use style="fill:#ffffff;stroke:#ffffff;stroke-width:1.2;" x="452.494075" xlink:href="#m8142cb114e" y="19.650005"/>
      </g>
     </g>
     <g id="text_14">
      <!-- $\mathdefault{10^{2}}$ -->
      <g style="fill:#ffffff;" transform="translate(440.174075 239.4455)scale(0.16 -0.16)">
       <use transform="translate(0 0.271875)" xlink:href="#Helvetica-31"/>
       <use transform="translate(55.615234 0.271875)" xlink:href="#Helvetica-30"/>
       <use transform="translate(112.145664 36.879688)scale(0.7)" xlink:href="#Helvetica-32"/>
      </g>
     </g>
    </g>
    <g id="xtick_24">
     <g id="line2d_59">
      <g>
       <use style="fill:#ffffff;stroke:#ffffff;stroke-width:1.2;" x="553.719532" xlink:href="#m69f5c1351b" y="224.468"/>
      </g>
     </g>
     <g id="line2d_60">
      <g>
       <use style="fill:#ffffff;stroke:#ffffff;stroke-width:1.2;" x="553.719532" xlink:href="#m8142cb114e" y="19.650005"/>
      </g>
     </g>
     <g id="text_15">
      <!-- $\mathdefault{10^{3}}$ -->
      <g style="fill:#ffffff;" transform="translate(541.399532 239.4455)scale(0.16 -0.16)">
       <use transform="translate(0 0.38125)" xlink:href="#Helvetica-31"/>
       <use transform="translate(55.615234 0.38125)" xlink:href="#Helvetica-30"/>
       <use transform="translate(112.145664 36.989063)scale(0.7)" xlink:href="#Helvetica-33"/>
      </g>
     </g>
    </g>
    <g id="xtick_25">
     <g id="line2d_61">
      <g>
       <use style="fill:#ffffff;stroke:#ffffff;stroke-width:0.8;" x="346.636796" xlink:href="#m7b9dd0d383" y="224.468"/>
      </g>
     </g>
     <g id="line2d_62">
      <g>
       <use style="fill:#ffffff;stroke:#ffffff;stroke-width:0.8;" x="346.636796" xlink:href="#m60019104f0" y="19.650005"/>
      </g>
     </g>
    </g>
    <g id="xtick_26">
     <g id="line2d_63">
      <g>
       <use style="fill:#ffffff;stroke:#ffffff;stroke-width:0.8;" x="381.740518" xlink:href="#m7b9dd0d383" y="224.468"/>
      </g>
     </g>
     <g id="line2d_64">
      <g>
       <use style="fill:#ffffff;stroke:#ffffff;stroke-width:0.8;" x="381.740518" xlink:href="#m60019104f0" y="19.650005"/>
      </g>
     </g>
    </g>
    <g id="xtick_27">
     <g id="line2d_65">
      <g>
       <use style="fill:#ffffff;stroke:#ffffff;stroke-width:0.8;" x="399.565436" xlink:href="#m7b9dd0d383" y="224.468"/>
      </g>
     </g>
     <g id="line2d_66">
      <g>
       <use style="fill:#ffffff;stroke:#ffffff;stroke-width:0.8;" x="399.565436" xlink:href="#m60019104f0" y="19.650005"/>
      </g>
     </g>
    </g>
    <g id="xtick_28">
     <g id="line2d_67">
      <g>
       <use style="fill:#ffffff;stroke:#ffffff;stroke-width:0.8;" x="412.212416" xlink:href="#m7b9dd0d383" y="224.468"/>
      </g>
     </g>
     <g id="line2d_68">
      <g>
       <use style="fill:#ffffff;stroke:#ffffff;stroke-width:0.8;" x="412.212416" xlink:href="#m60019104f0" y="19.650005"/>
      </g>
     </g>
    </g>
    <g id="xtick_29">
     <g id="line2d_69">
      <g>
       <use style="fill:#ffffff;stroke:#ffffff;stroke-width:0.8;" x="422.022177" xlink:href="#m7b9dd0d383" y="224.468"/>
      </g>
     </g>
     <g id="line2d_70">
      <g>
       <use style="fill:#ffffff;stroke:#ffffff;stroke-width:0.8;" x="422.022177" xlink:href="#m60019104f0" y="19.650005"/>
      </g>
     </g>
    </g>
    <g id="xtick_30">
     <g id="line2d_71">
      <g>
       <use style="fill:#ffffff;stroke:#ffffff;stroke-width:0.8;" x="430.037334" xlink:href="#m7b9dd0d383" y="224.468"/>
      </g>
     </g>
     <g id="line2d_72">
      <g>
       <use style="fill:#ffffff;stroke:#ffffff;stroke-width:0.8;" x="430.037334" xlink:href="#m60019104f0" y="19.650005"/>
      </g>
     </g>
    </g>
    <g id="xtick_31">
     <g id="line2d_73">
      <g>
       <use style="fill:#ffffff;stroke:#ffffff;stroke-width:0.8;" x="436.814054" xlink:href="#m7b9dd0d383" y="224.468"/>
      </g>
     </g>
     <g id="line2d_74">
      <g>
       <use style="fill:#ffffff;stroke:#ffffff;stroke-width:0.8;" x="436.814054" xlink:href="#m60019104f0" y="19.650005"/>
      </g>
     </g>
    </g>
    <g id="xtick_32">
     <g id="line2d_75">
      <g>
       <use style="fill:#ffffff;stroke:#ffffff;stroke-width:0.8;" x="442.684315" xlink:href="#m7b9dd0d383" y="224.468"/>
      </g>
     </g>
     <g id="line2d_76">
      <g>
       <use style="fill:#ffffff;stroke:#ffffff;stroke-width:0.8;" x="442.684315" xlink:href="#m60019104f0" y="19.650005"/>
      </g>
     </g>
    </g>
    <g id="xtick_33">
     <g id="line2d_77">
      <g>
       <use style="fill:#ffffff;stroke:#ffffff;stroke-width:0.8;" x="447.862252" xlink:href="#m7b9dd0d383" y="224.468"/>
      </g>
     </g>
     <g id="line2d_78">
      <g>
       <use style="fill:#ffffff;stroke:#ffffff;stroke-width:0.8;" x="447.862252" xlink:href="#m60019104f0" y="19.650005"/>
      </g>
     </g>
    </g>
    <g id="xtick_34">
     <g id="line2d_79">
      <g>
       <use style="fill:#ffffff;stroke:#ffffff;stroke-width:0.8;" x="482.965974" xlink:href="#m7b9dd0d383" y="224.468"/>
      </g>
     </g>
     <g id="line2d_80">
      <g>
       <use style="fill:#ffffff;stroke:#ffffff;stroke-width:0.8;" x="482.965974" xlink:href="#m60019104f0" y="19.650005"/>
      </g>
     </g>
    </g>
    <g id="xtick_35">
     <g id="line2d_81">
      <g>
       <use style="fill:#ffffff;stroke:#ffffff;stroke-width:0.8;" x="500.790892" xlink:href="#m7b9dd0d383" y="224.468"/>
      </g>
     </g>
     <g id="line2d_82">
      <g>
       <use style="fill:#ffffff;stroke:#ffffff;stroke-width:0.8;" x="500.790892" xlink:href="#m60019104f0" y="19.650005"/>
      </g>
     </g>
    </g>
    <g id="xtick_36">
     <g id="line2d_83">
      <g>
       <use style="fill:#ffffff;stroke:#ffffff;stroke-width:0.8;" x="513.437873" xlink:href="#m7b9dd0d383" y="224.468"/>
      </g>
     </g>
     <g id="line2d_84">
      <g>
       <use style="fill:#ffffff;stroke:#ffffff;stroke-width:0.8;" x="513.437873" xlink:href="#m60019104f0" y="19.650005"/>
      </g>
     </g>
    </g>
    <g id="xtick_37">
     <g id="line2d_85">
      <g>
       <use style="fill:#ffffff;stroke:#ffffff;stroke-width:0.8;" x="523.247633" xlink:href="#m7b9dd0d383" y="224.468"/>
      </g>
     </g>
     <g id="line2d_86">
      <g>
       <use style="fill:#ffffff;stroke:#ffffff;stroke-width:0.8;" x="523.247633" xlink:href="#m60019104f0" y="19.650005"/>
      </g>
     </g>
    </g>
    <g id="xtick_38">
     <g id="line2d_87">
      <g>
       <use style="fill:#ffffff;stroke:#ffffff;stroke-width:0.8;" x="531.262791" xlink:href="#m7b9dd0d383" y="224.468"/>
      </g>
     </g>
     <g id="line2d_88">
      <g>
       <use style="fill:#ffffff;stroke:#ffffff;stroke-width:0.8;" x="531.262791" xlink:href="#m60019104f0" y="19.650005"/>
      </g>
     </g>
    </g>
    <g id="xtick_39">
     <g id="line2d_89">
      <g>
       <use style="fill:#ffffff;stroke:#ffffff;stroke-width:0.8;" x="538.03951" xlink:href="#m7b9dd0d383" y="224.468"/>
      </g>
     </g>
     <g id="line2d_90">
      <g>
       <use style="fill:#ffffff;stroke:#ffffff;stroke-width:0.8;" x="538.03951" xlink:href="#m60019104f0" y="19.650005"/>
      </g>
     </g>
    </g>
    <g id="xtick_40">
     <g id="line2d_91">
      <g>
       <use style="fill:#ffffff;stroke:#ffffff;stroke-width:0.8;" x="543.909771" xlink:href="#m7b9dd0d383" y="224.468"/>
      </g>
     </g>
     <g id="line2d_92">
      <g>
       <use style="fill:#ffffff;stroke:#ffffff;stroke-width:0.8;" x="543.909771" xlink:href="#m60019104f0" y="19.650005"/>
      </g>
     </g>
    </g>
    <g id="xtick_41">
     <g id="line2d_93">
      <g>
       <use style="fill:#ffffff;stroke:#ffffff;stroke-width:0.8;" x="549.087709" xlink:href="#m7b9dd0d383" y="224.468"/>
      </g>
     </g>
     <g id="line2d_94">
      <g>
       <use style="fill:#ffffff;stroke:#ffffff;stroke-width:0.8;" x="549.087709" xlink:href="#m60019104f0" y="19.650005"/>
      </g>
     </g>
    </g>
    <g id="xtick_42">
     <g id="line2d_95">
      <g>
       <use style="fill:#ffffff;stroke:#ffffff;stroke-width:0.8;" x="584.19143" xlink:href="#m7b9dd0d383" y="224.468"/>
      </g>
     </g>
     <g id="line2d_96">
      <g>
       <use style="fill:#ffffff;stroke:#ffffff;stroke-width:0.8;" x="584.19143" xlink:href="#m60019104f0" y="19.650005"/>
      </g>
     </g>
    </g>
    <g id="text_16">
     <!-- T$_{MC}$ (mK) -->
     <g style="fill:#ffffff;" transform="translate(427.968041 259.3805)scale(0.2 -0.2)">
      <use transform="translate(0 0.09375)" xlink:href="#Helvetica-54"/>
      <use transform="translate(61.99918 -15.595313)scale(0.7)" xlink:href="#Helvetica-4d"/>
      <use transform="translate(120.309727 -15.595313)scale(0.7)" xlink:href="#Helvetica-43"/>
      <use transform="translate(173.476328 0.09375)" xlink:href="#Helvetica-20"/>
      <use transform="translate(201.259531 0.09375)" xlink:href="#Helvetica-28"/>
      <use transform="translate(234.560313 0.09375)" xlink:href="#Helvetica-6d"/>
      <use transform="translate(317.861094 0.09375)" xlink:href="#Helvetica-4b"/>
      <use transform="translate(384.560313 0.09375)" xlink:href="#Helvetica-29"/>
     </g>
    </g>
   </g>
   <g id="matplotlib.axis_4">
    <g id="ytick_6">
     <g id="line2d_97">
      <g>
       <use style="fill:#ffffff;stroke:#ffffff;stroke-width:1.2;" x="346.976083" xlink:href="#m3e63641a65" y="216.78836"/>
      </g>
     </g>
     <g id="line2d_98">
      <g>
       <use style="fill:#ffffff;stroke:#ffffff;stroke-width:1.2;" x="592.56" xlink:href="#m765e79b6d2" y="216.78836"/>
      </g>
     </g>
    </g>
    <g id="ytick_7">
     <g id="line2d_99">
      <g>
       <use style="fill:#ffffff;stroke:#ffffff;stroke-width:1.2;" x="346.976083" xlink:href="#m3e63641a65" y="168.810728"/>
      </g>
     </g>
     <g id="line2d_100">
      <g>
       <use style="fill:#ffffff;stroke:#ffffff;stroke-width:1.2;" x="592.56" xlink:href="#m765e79b6d2" y="168.810728"/>
      </g>
     </g>
    </g>
    <g id="ytick_8">
     <g id="line2d_101">
      <g>
       <use style="fill:#ffffff;stroke:#ffffff;stroke-width:1.2;" x="346.976083" xlink:href="#m3e63641a65" y="120.833096"/>
      </g>
     </g>
     <g id="line2d_102">
      <g>
       <use style="fill:#ffffff;stroke:#ffffff;stroke-width:1.2;" x="592.56" xlink:href="#m765e79b6d2" y="120.833096"/>
      </g>
     </g>
    </g>
    <g id="ytick_9">
     <g id="line2d_103">
      <g>
       <use style="fill:#ffffff;stroke:#ffffff;stroke-width:1.2;" x="346.976083" xlink:href="#m3e63641a65" y="72.855464"/>
      </g>
     </g>
     <g id="line2d_104">
      <g>
       <use style="fill:#ffffff;stroke:#ffffff;stroke-width:1.2;" x="592.56" xlink:href="#m765e79b6d2" y="72.855464"/>
      </g>
     </g>
    </g>
    <g id="ytick_10">
     <g id="line2d_105">
      <g>
       <use style="fill:#ffffff;stroke:#ffffff;stroke-width:1.2;" x="346.976083" xlink:href="#m3e63641a65" y="24.877833"/>
      </g>
     </g>
     <g id="line2d_106">
      <g>
       <use style="fill:#ffffff;stroke:#ffffff;stroke-width:1.2;" x="592.56" xlink:href="#m765e79b6d2" y="24.877833"/>
      </g>
     </g>
    </g>
   </g>
   <g id="line2d_107">
    <path clip-path="url(#p5601b31b9b)" d="M 361.686902 57.916921 
L 366.396033 58.483552 
L 370.843791 59.222953 
L 375.387174 59.007136 
L 379.781179 58.497315 
L 384.218936 59.144181 
L 389.027579 59.732481 
L 392.984503 60.539527 
L 397.409867 60.218583 
L 402.564341 60.746266 
L 406.903093 62.75246 
L 410.463128 63.396398 
L 414.171444 64.283972 
L 419.495577 65.678147 
L 423.576977 67.363689 
L 427.689477 68.563715 
L 432.129936 69.653344 
L 436.33272 71.940071 
L 441.926826 75.316719 
L 446.313787 77.241506 
L 450.356543 77.253804 
L 454.485048 78.803765 
L 458.181833 81.804124 
L 463.214495 84.936551 
L 467.823397 85.574047 
L 472.19206 88.354196 
L 476.239763 90.42042 
L 481.053397 92.782697 
L 485.899529 95.474704 
L 490.201536 98.288236 
L 494.137597 99.188695 
L 498.24472 102.052302 
L 502.850717 103.876939 
L 507.678109 106.351371 
L 511.484486 108.768116 
L 516.210591 111.183103 
L 520.592804 113.875695 
L 524.73462 115.802531 
L 528.956225 118.498638 
L 534.001507 120.97717 
L 538.255395 123.682354 
L 542.344706 126.034675 
L 546.825797 128.378797 
L 551.222374 130.674895 
L 556.09544 133.824891 
L 559.698424 135.824349 
L 564.125009 138.05046 
L 567.733021 139.874512 
L 574.09056 142.824211 
L 577.759154 145.064377 
L 581.397095 146.713023 
" style="fill:none;stroke:#8dd3c7;stroke-linecap:square;stroke-width:2;"/>
    <defs>
     <path d="M 0 3 
C 0.795609 3 1.55874 2.683901 2.12132 2.12132 
C 2.683901 1.55874 3 0.795609 3 0 
C 3 -0.795609 2.683901 -1.55874 2.12132 -2.12132 
C 1.55874 -2.683901 0.795609 -3 0 -3 
C -0.795609 -3 -1.55874 -2.683901 -2.12132 -2.12132 
C -2.683901 -1.55874 -3 -0.795609 -3 0 
C -3 0.795609 -2.683901 1.55874 -2.12132 2.12132 
C -1.55874 2.683901 -0.795609 3 0 3 
z
" id="m409a60a269" style="stroke:#8dd3c7;"/>
    </defs>
    <g clip-path="url(#p5601b31b9b)">
     <use style="fill:#8dd3c7;stroke:#8dd3c7;" x="361.686902" xlink:href="#m409a60a269" y="57.916921"/>
     <use style="fill:#8dd3c7;stroke:#8dd3c7;" x="366.396033" xlink:href="#m409a60a269" y="58.483552"/>
     <use style="fill:#8dd3c7;stroke:#8dd3c7;" x="370.843791" xlink:href="#m409a60a269" y="59.222953"/>
     <use style="fill:#8dd3c7;stroke:#8dd3c7;" x="375.387174" xlink:href="#m409a60a269" y="59.007136"/>
     <use style="fill:#8dd3c7;stroke:#8dd3c7;" x="379.781179" xlink:href="#m409a60a269" y="58.497315"/>
     <use style="fill:#8dd3c7;stroke:#8dd3c7;" x="384.218936" xlink:href="#m409a60a269" y="59.144181"/>
     <use style="fill:#8dd3c7;stroke:#8dd3c7;" x="389.027579" xlink:href="#m409a60a269" y="59.732481"/>
     <use style="fill:#8dd3c7;stroke:#8dd3c7;" x="392.984503" xlink:href="#m409a60a269" y="60.539527"/>
     <use style="fill:#8dd3c7;stroke:#8dd3c7;" x="397.409867" xlink:href="#m409a60a269" y="60.218583"/>
     <use style="fill:#8dd3c7;stroke:#8dd3c7;" x="402.564341" xlink:href="#m409a60a269" y="60.746266"/>
     <use style="fill:#8dd3c7;stroke:#8dd3c7;" x="406.903093" xlink:href="#m409a60a269" y="62.75246"/>
     <use style="fill:#8dd3c7;stroke:#8dd3c7;" x="410.463128" xlink:href="#m409a60a269" y="63.396398"/>
     <use style="fill:#8dd3c7;stroke:#8dd3c7;" x="414.171444" xlink:href="#m409a60a269" y="64.283972"/>
     <use style="fill:#8dd3c7;stroke:#8dd3c7;" x="419.495577" xlink:href="#m409a60a269" y="65.678147"/>
     <use style="fill:#8dd3c7;stroke:#8dd3c7;" x="423.576977" xlink:href="#m409a60a269" y="67.363689"/>
     <use style="fill:#8dd3c7;stroke:#8dd3c7;" x="427.689477" xlink:href="#m409a60a269" y="68.563715"/>
     <use style="fill:#8dd3c7;stroke:#8dd3c7;" x="432.129936" xlink:href="#m409a60a269" y="69.653344"/>
     <use style="fill:#8dd3c7;stroke:#8dd3c7;" x="436.33272" xlink:href="#m409a60a269" y="71.940071"/>
     <use style="fill:#8dd3c7;stroke:#8dd3c7;" x="441.926826" xlink:href="#m409a60a269" y="75.316719"/>
     <use style="fill:#8dd3c7;stroke:#8dd3c7;" x="446.313787" xlink:href="#m409a60a269" y="77.241506"/>
     <use style="fill:#8dd3c7;stroke:#8dd3c7;" x="450.356543" xlink:href="#m409a60a269" y="77.253804"/>
     <use style="fill:#8dd3c7;stroke:#8dd3c7;" x="454.485048" xlink:href="#m409a60a269" y="78.803765"/>
     <use style="fill:#8dd3c7;stroke:#8dd3c7;" x="458.181833" xlink:href="#m409a60a269" y="81.804124"/>
     <use style="fill:#8dd3c7;stroke:#8dd3c7;" x="463.214495" xlink:href="#m409a60a269" y="84.936551"/>
     <use style="fill:#8dd3c7;stroke:#8dd3c7;" x="467.823397" xlink:href="#m409a60a269" y="85.574047"/>
     <use style="fill:#8dd3c7;stroke:#8dd3c7;" x="472.19206" xlink:href="#m409a60a269" y="88.354196"/>
     <use style="fill:#8dd3c7;stroke:#8dd3c7;" x="476.239763" xlink:href="#m409a60a269" y="90.42042"/>
     <use style="fill:#8dd3c7;stroke:#8dd3c7;" x="481.053397" xlink:href="#m409a60a269" y="92.782697"/>
     <use style="fill:#8dd3c7;stroke:#8dd3c7;" x="485.899529" xlink:href="#m409a60a269" y="95.474704"/>
     <use style="fill:#8dd3c7;stroke:#8dd3c7;" x="490.201536" xlink:href="#m409a60a269" y="98.288236"/>
     <use style="fill:#8dd3c7;stroke:#8dd3c7;" x="494.137597" xlink:href="#m409a60a269" y="99.188695"/>
     <use style="fill:#8dd3c7;stroke:#8dd3c7;" x="498.24472" xlink:href="#m409a60a269" y="102.052302"/>
     <use style="fill:#8dd3c7;stroke:#8dd3c7;" x="502.850717" xlink:href="#m409a60a269" y="103.876939"/>
     <use style="fill:#8dd3c7;stroke:#8dd3c7;" x="507.678109" xlink:href="#m409a60a269" y="106.351371"/>
     <use style="fill:#8dd3c7;stroke:#8dd3c7;" x="511.484486" xlink:href="#m409a60a269" y="108.768116"/>
     <use style="fill:#8dd3c7;stroke:#8dd3c7;" x="516.210591" xlink:href="#m409a60a269" y="111.183103"/>
     <use style="fill:#8dd3c7;stroke:#8dd3c7;" x="520.592804" xlink:href="#m409a60a269" y="113.875695"/>
     <use style="fill:#8dd3c7;stroke:#8dd3c7;" x="524.73462" xlink:href="#m409a60a269" y="115.802531"/>
     <use style="fill:#8dd3c7;stroke:#8dd3c7;" x="528.956225" xlink:href="#m409a60a269" y="118.498638"/>
     <use style="fill:#8dd3c7;stroke:#8dd3c7;" x="534.001507" xlink:href="#m409a60a269" y="120.97717"/>
     <use style="fill:#8dd3c7;stroke:#8dd3c7;" x="538.255395" xlink:href="#m409a60a269" y="123.682354"/>
     <use style="fill:#8dd3c7;stroke:#8dd3c7;" x="542.344706" xlink:href="#m409a60a269" y="126.034675"/>
     <use style="fill:#8dd3c7;stroke:#8dd3c7;" x="546.825797" xlink:href="#m409a60a269" y="128.378797"/>
     <use style="fill:#8dd3c7;stroke:#8dd3c7;" x="551.222374" xlink:href="#m409a60a269" y="130.674895"/>
     <use style="fill:#8dd3c7;stroke:#8dd3c7;" x="556.09544" xlink:href="#m409a60a269" y="133.824891"/>
     <use style="fill:#8dd3c7;stroke:#8dd3c7;" x="559.698424" xlink:href="#m409a60a269" y="135.824349"/>
     <use style="fill:#8dd3c7;stroke:#8dd3c7;" x="564.125009" xlink:href="#m409a60a269" y="138.05046"/>
     <use style="fill:#8dd3c7;stroke:#8dd3c7;" x="567.733021" xlink:href="#m409a60a269" y="139.874512"/>
     <use style="fill:#8dd3c7;stroke:#8dd3c7;" x="574.09056" xlink:href="#m409a60a269" y="142.824211"/>
     <use style="fill:#8dd3c7;stroke:#8dd3c7;" x="577.759154" xlink:href="#m409a60a269" y="145.064377"/>
     <use style="fill:#8dd3c7;stroke:#8dd3c7;" x="581.397095" xlink:href="#m409a60a269" y="146.713023"/>
    </g>
   </g>
   <g id="line2d_108">
    <path clip-path="url(#p5601b31b9b)" d="M 361.686902 58.200383 
L 366.396033 58.200383 
L 370.843791 58.200383 
L 375.387174 58.200383 
L 379.781179 58.200383 
L 384.218936 58.200383 
L 389.027579 58.200383 
L 392.984503 58.200383 
L 397.409867 58.200383 
L 402.564341 58.200383 
L 406.903093 58.200383 
L 410.463128 58.200383 
L 414.171444 58.200383 
L 419.495577 58.200383 
L 423.576977 58.200383 
L 427.689477 58.200383 
L 432.129936 58.200383 
L 436.33272 58.200383 
L 441.926826 58.200383 
L 446.313787 58.200383 
L 450.356543 58.200383 
L 454.485048 58.200383 
L 458.181833 58.200383 
L 463.214495 58.200383 
L 467.823397 58.200383 
L 472.19206 58.200383 
L 476.239763 58.200383 
L 481.053397 58.200383 
L 485.899529 58.200383 
L 490.201536 58.200383 
L 494.137597 58.200383 
L 498.24472 58.200383 
L 502.850717 58.200383 
L 507.678109 58.200383 
L 511.484486 58.200383 
L 516.210591 58.200383 
L 520.592804 58.200383 
L 524.73462 58.200383 
L 528.956225 58.200383 
L 534.001507 58.200383 
L 538.255395 58.200383 
L 542.344706 58.200383 
L 546.825797 58.200383 
L 551.222374 58.200383 
L 556.09544 58.200383 
L 559.698424 58.200383 
L 564.125009 58.200383 
L 567.733021 58.200383 
L 574.09056 58.200383 
L 577.759154 58.200383 
L 581.397095 58.200383 
" style="fill:none;stroke:#add8e6;stroke-dasharray:7.4,3.2;stroke-dashoffset:0;stroke-width:2;"/>
   </g>
   <g id="line2d_109">
    <path clip-path="url(#p5601b31b9b)" d="M 361.686905 28.959914 
L 366.396033 31.485592 
L 370.843791 33.871003 
L 375.387169 36.30766 
L 379.781179 38.664374 
L 384.218932 41.044221 
L 389.027575 43.623195 
L 392.984506 45.74535 
L 397.409867 48.118755 
L 402.564341 50.883384 
L 406.903093 53.210229 
L 410.463132 55.119495 
L 414.171448 57.108412 
L 419.49558 59.963819 
L 423.576971 62.152739 
L 427.68948 64.358352 
L 432.129938 66.739956 
L 436.332725 68.993886 
L 441.926822 71.994245 
L 446.313783 74.347152 
L 450.356536 76.515282 
L 454.485048 78.729386 
L 458.181833 80.712153 
L 463.214495 83.411188 
L 467.823401 85.883277 
L 472.19206 88.226228 
L 476.239763 90.396993 
L 481.053397 92.978602 
L 485.899532 95.577781 
L 490.201536 97.885006 
L 494.137597 99.996034 
L 498.24472 102.198718 
L 502.850717 104.66905 
L 507.678109 107.25798 
L 511.484486 109.299606 
L 516.210591 111.834362 
L 520.592804 114.184633 
L 524.73462 116.405766 
L 528.956225 118.669945 
L 534.001507 121.376007 
L 538.255395 123.65717 
L 542.344706 125.850484 
L 546.825797 128.253758 
L 551.222374 130.611643 
L 556.09544 133.22517 
L 559.698424 135.15757 
L 564.125009 137.531854 
L 567.733021 139.466889 
L 574.09056 142.876335 
L 577.759154 144.843875 
L 581.397095 146.795016 
" style="fill:none;stroke:#add8e6;stroke-linecap:square;stroke-width:2;"/>
   </g>
   <g id="patch_8">
    <path d="M 346.976083 224.468 
L 346.976083 19.650005 
" style="fill:none;stroke:#ffffff;stroke-linecap:square;stroke-linejoin:miter;stroke-width:1.2;"/>
   </g>
   <g id="patch_9">
    <path d="M 592.56 224.468 
L 592.56 19.650005 
" style="fill:none;stroke:#ffffff;stroke-linecap:square;stroke-linejoin:miter;stroke-width:1.2;"/>
   </g>
   <g id="patch_10">
    <path d="M 346.976083 224.468 
L 592.56 224.468 
" style="fill:none;stroke:#ffffff;stroke-linecap:square;stroke-linejoin:miter;stroke-width:1.2;"/>
   </g>
   <g id="patch_11">
    <path d="M 346.976083 19.650005 
L 592.56 19.650005 
" style="fill:none;stroke:#ffffff;stroke-linecap:square;stroke-linejoin:miter;stroke-width:1.2;"/>
   </g>
  </g>
 </g>
 <defs>
  <clipPath id="p75ac134884">
   <rect height="204.817995" width="245.583917" x="74.08" y="19.650005"/>
  </clipPath>
  <clipPath id="p5601b31b9b">
   <rect height="204.817995" width="245.583917" x="346.976083" y="19.650005"/>
  </clipPath>
 </defs>
</svg>
